{
.appVersion = "1320";
DisplayStrings = (
"0123456789567315031659743012947640312946732160903127964531297494531256752314069215467321504531028794635012437614340851769423751",
"/I.ss01/a.ss01/l.ss01/n.ss01/t.ss01/u.ss01/underscore.ss01 \012ABCDEFGHIJKLMNOP"
);
classes = (
{
automatic = 1;

glyphs = (
{
glyphname = A;
lastChange = "2020-04-18 19:57:05 +0000";
layers = (
{
anchors = (
{
name = bottom;
position = "{777, 0}";
},
{
name = ogonek;
position = "{1710, 67}";
},
{
name = top;
position = "{1028, 1205}";
}
);
layerId = "307B7D8E-54CC-4996-A0B0-7E3456408354";
paths = (
{
closed = 1;
nodes = (
"1515 -40 OFFCURVE",
"1608 111 OFFCURVE",
"1608 410 CURVE SMOOTH",
"1608 615 OFFCURVE",
"1554 843 OFFCURVE",
"1452 977 CURVE SMOOTH",
"1343 1121 OFFCURVE",
"1194 1195 OFFCURVE",
"1008 1195 CURVE SMOOTH",
"831 1195 OFFCURVE",
"598 1110 OFFCURVE",
"414 937 CURVE SMOOTH",
"195 731 OFFCURVE",
"8 459 OFFCURVE",
"8 173 CURVE SMOOTH",
"8 27 OFFCURVE",
"80 -25 OFFCURVE",
"241 -25 CURVE SMOOTH",
"384 -25 OFFCURVE",
"452 23 OFFCURVE",
"510 78 CURVE SMOOTH",
"549 115 OFFCURVE",
"578 154 OFFCURVE",
"613 184 CURVE SMOOTH",
"637 204 OFFCURVE",
"662 219 OFFCURVE",
"694 227 CURVE SMOOTH",
"722 234 OFFCURVE",
"756 237 OFFCURVE",
"787 237 CURVE SMOOTH",
"817 237 OFFCURVE",
"843 233 OFFCURVE",
"862 227 CURVE SMOOTH",
"893 217 OFFCURVE",
"919 195 OFFCURVE",
"941 158 CURVE SMOOTH",
"977 97 OFFCURVE",
"977 87 OFFCURVE",
"996 55 CURVE SMOOTH",
"1040 -19 OFFCURVE",
"1117 -40 OFFCURVE",
"1223 -40 CURVE SMOOTH"
);
},
{
closed = 1;
nodes = (
"950 558 OFFCURVE",
"912 550 OFFCURVE",
"875 550 CURVE SMOOTH",
"830 550 OFFCURVE",
"787 566 OFFCURVE",
"787 604 CURVE SMOOTH",
"787 629 OFFCURVE",
"815 690 OFFCURVE",
"838 719 CURVE SMOOTH",
"869 758 OFFCURVE",
"915 807 OFFCURVE",
"961 807 CURVE SMOOTH",
"986 807 OFFCURVE",
"1006 787 OFFCURVE",
"1017 757 CURVE SMOOTH",
"1023 739 OFFCURVE",
"1027 713 OFFCURVE",
"1027 687 CURVE SMOOTH",
"1027 634 OFFCURVE",
"1014 589 OFFCURVE",
"975 570 CURVE SMOOTH"
);
}
);
width = 1702;
},
{
anchors = (
{
name = bottom;
position = "{675, 0}";
},
{
name = ogonek;
position = "{1455, -17}";
},
{
name = top;
position = "{869, 1160}";
}
);
layerId = "AE979D1C-FDDA-49FD-8CD9-3E2A42843A18";
paths = (
{
closed = 1;
nodes = (
"1165 -40 OFFCURVE",
"1172 -30 OFFCURVE",
"1177 -7 CURVE SMOOTH",
"1185 30 OFFCURVE",
"1195 332 OFFCURVE",
"1195 524 CURVE SMOOTH",
"1195 888 OFFCURVE",
"1128 1218 OFFCURVE",
"890 1218 CURVE SMOOTH",
"643 1218 OFFCURVE",
"436 913 OFFCURVE",
"253 588 CURVE SMOOTH",
"199 492 OFFCURVE",
"-17 66 OFFCURVE",
"-17 4 CURVE SMOOTH",
"-17 -11 OFFCURVE",
"-11 -17 OFFCURVE",
"-1 -17 CURVE SMOOTH",
"30 -17 OFFCURVE",
"50 6 OFFCURVE",
"84 77 CURVE SMOOTH",
"136 187 OFFCURVE",
"204 329 OFFCURVE",
"245 403 CURVE SMOOTH",
"274 456 OFFCURVE",
"300 470 OFFCURVE",
"371 474 CURVE SMOOTH",
"458 479 OFFCURVE",
"585 485 OFFCURVE",
"704 485 CURVE SMOOTH",
"821 485 OFFCURVE",
"992 472 OFFCURVE",
"1041 468 CURVE SMOOTH",
"1107 463 OFFCURVE",
"1119 446 OFFCURVE",
"1120 401 CURVE SMOOTH",
"1121 337 OFFCURVE",
"1122 131 OFFCURVE",
"1124 34 CURVE SMOOTH",
"1125 -10 OFFCURVE",
"1132 -40 OFFCURVE",
"1150 -40 CURVE SMOOTH"
);
},
{
closed = 1;
nodes = (
"957 539 OFFCURVE",
"774 547 OFFCURVE",
"438 547 CURVE SMOOTH",
"367 547 OFFCURVE",
"345 553 OFFCURVE",
"345 576 CURVE SMOOTH",
"345 648 OFFCURVE",
"507 870 OFFCURVE",
"579 956 CURVE SMOOTH",
"683 1081 OFFCURVE",
"793 1160 OFFCURVE",
"889 1160 CURVE SMOOTH",
"988 1160 OFFCURVE",
"1048 1068 OFFCURVE",
"1083 948 CURVE SMOOTH",
"1109 858 OFFCURVE",
"1120 753 OFFCURVE",
"1120 671 CURVE SMOOTH",
"1120 592 OFFCURVE",
"1118 539 OFFCURVE",
"1063 539 CURVE SMOOTH"
);
}
);
width = 1367;
},
{
anchors = (
{
name = bottom;
position = "{857, 0}";
},
{
name = ogonek;
position = "{1648, -17}";
},
{
name = top;
position = "{537, 1180}";
}
);
layerId = "A5079BDB-9783-4F5E-864F-267B8C6F09C1";
paths = (
{
closed = 1;
nodes = (
"1361 -40 OFFCURVE",
"1369 -36 OFFCURVE",
"1369 -13 CURVE SMOOTH",
"1369 34 OFFCURVE",
"1158 508 OFFCURVE",
"1086 645 CURVE SMOOTH",
"929 944 OFFCURVE",
"750 1218 OFFCURVE",
"530 1218 CURVE SMOOTH",
"283 1218 OFFCURVE",
"203 913 OFFCURVE",
"170 588 CURVE SMOOTH",
"161 502 OFFCURVE",
"153 308 OFFCURVE",
"153 171 CURVE SMOOTH",
"153 90 OFFCURVE",
"153 -17 OFFCURVE",
"194 -17 CURVE SMOOTH",
"215 -17 OFFCURVE",
"225 6 OFFCURVE",
"225 77 CURVE SMOOTH",
"225 188 OFFCURVE",
"229 329 OFFCURVE",
"236 403 CURVE SMOOTH",
"241 456 OFFCURVE",
"264 470 OFFCURVE",
"335 474 CURVE SMOOTH",
"418 479 OFFCURVE",
"548 485 OFFCURVE",
"667 485 CURVE SMOOTH",
"784 485 OFFCURVE",
"951 472 OFFCURVE",
"1002 468 CURVE SMOOTH",
"1070 463 OFFCURVE",
"1091 446 OFFCURVE",
"1112 401 CURVE SMOOTH",
"1142 337 OFFCURVE",
"1241 131 OFFCURVE",
"1286 34 CURVE SMOOTH",
"1307 -10 OFFCURVE",
"1323 -40 OFFCURVE",
"1346 -40 CURVE SMOOTH"
);
},
{
closed = 1;
nodes = (
"886 539 OFFCURVE",
"699 547 OFFCURVE",
"363 547 CURVE SMOOTH",
"271 547 OFFCURVE",
"249 551 OFFCURVE",
"249 629 CURVE SMOOTH",
"249 720 OFFCURVE",
"284 865 OFFCURVE",
"314 956 CURVE SMOOTH",
"356 1081 OFFCURVE",
"434 1160 OFFCURVE",
"530 1160 CURVE SMOOTH",
"629 1160 OFFCURVE",
"734 1068 OFFCURVE",
"825 948 CURVE SMOOTH",
"931 808 OFFCURVE",
"1023 629 OFFCURVE",
"1023 564 CURVE SMOOTH",
"1023 546 OFFCURVE",
"1014 539 OFFCURVE",
"992 539 CURVE SMOOTH"
);
}
);
width = 1367;
},
{
anchors = (
{
name = bottom;
position = "{958, 0}";
},
{
name = ogonek;
position = "{1850, 50}";
},
{
name = top;
position = "{625, 1205}";
}
);
layerId = "AE80B40C-E5A8-4B5C-A94B-22B98FE5A19F";
paths = (
{
closed = 1;
nodes = (
"1579 -40 OFFCURVE",
"1666 11 OFFCURVE",
"1666 153 CURVE SMOOTH",
"1666 407 OFFCURVE",
"1413 796 OFFCURVE",
"1192 977 CURVE SMOOTH",
"1016 1121 OFFCURVE",
"812 1195 OFFCURVE",
"626 1195 CURVE SMOOTH",
"449 1195 OFFCURVE",
"276 1110 OFFCURVE",
"172 937 CURVE SMOOTH",
"97 811 OFFCURVE",
"41 653 OFFCURVE",
"41 470 CURVE SMOOTH",
"41 167 OFFCURVE",
"136 -25 OFFCURVE",
"413 -25 CURVE SMOOTH",
"556 -25 OFFCURVE",
"614 21 OFFCURVE",
"644 78 CURVE SMOOTH",
"664 116 OFFCURVE",
"676 156 OFFCURVE",
"699 184 CURVE SMOOTH",
"715 204 OFFCURVE",
"734 219 OFFCURVE",
"762 227 CURVE SMOOTH",
"786 234 OFFCURVE",
"818 237 OFFCURVE",
"849 237 CURVE SMOOTH",
"879 237 OFFCURVE",
"907 233 OFFCURVE",
"928 227 CURVE SMOOTH",
"963 217 OFFCURVE",
"999 195 OFFCURVE",
"1039 158 CURVE SMOOTH",
"1103 99 OFFCURVE",
"1107 87 OFFCURVE",
"1142 55 CURVE SMOOTH",
"1221 -17 OFFCURVE",
"1307 -40 OFFCURVE",
"1413 -40 CURVE SMOOTH"
);
},
{
closed = 1;
nodes = (
"846 558 OFFCURVE",
"810 550 OFFCURVE",
"773 550 CURVE SMOOTH",
"700 550 OFFCURVE",
"651 580 OFFCURVE",
"651 660 CURVE SMOOTH",
"651 682 OFFCURVE",
"654 705 OFFCURVE",
"658 719 CURVE SMOOTH",
"670 759 OFFCURVE",
"695 807 OFFCURVE",
"741 807 CURVE SMOOTH",
"766 807 OFFCURVE",
"796 787 OFFCURVE",
"821 757 CURVE SMOOTH",
"852 720 OFFCURVE",
"883 650 OFFCURVE",
"883 605 CURVE SMOOTH",
"883 588 OFFCURVE",
"878 578 OFFCURVE",
"865 570 CURVE SMOOTH"
);
}
);
width = 1702;
},
{
anchors = (
{
name = bottom;
position = "{852, 0}";
},
{
name = ogonek;
position = "{1765, 67}";
},
{
name = top;
position = "{807, 1205}";
}
);
layerId = "6282282A-FA3F-4DEE-9DB6-5D5B2A6C152F";
paths = (
{
closed = 1;
nodes = (
"1493 -40 OFFCURVE",
"1615 23 OFFCURVE",
"1615 205 CURVE SMOOTH",
"1615 440 OFFCURVE",
"1492 795 OFFCURVE",
"1312 977 CURVE SMOOTH",
"1168 1120 OFFCURVE",
"993 1195 OFFCURVE",
"807 1195 CURVE SMOOTH",
"630 1195 OFFCURVE",
"427 1110 OFFCURVE",
"283 937 CURVE SMOOTH",
"140 765 OFFCURVE",
"30 532 OFFCURVE",
"30 257 CURVE SMOOTH",
"30 47 OFFCURVE",
"123 -25 OFFCURVE",
"312 -25 CURVE SMOOTH",
"455 -25 OFFCURVE",
"522 23 OFFCURVE",
"567 78 CURVE SMOOTH",
"598 115 OFFCURVE",
"618 154 OFFCURVE",
"646 184 CURVE SMOOTH",
"665 204 OFFCURVE",
"687 219 OFFCURVE",
"717 227 CURVE SMOOTH",
"743 234 OFFCURVE",
"777 237 OFFCURVE",
"808 237 CURVE SMOOTH",
"838 237 OFFCURVE",
"865 233 OFFCURVE",
"885 227 CURVE SMOOTH",
"918 216 OFFCURVE",
"949 195 OFFCURVE",
"980 158 CURVE SMOOTH",
"1026 95 OFFCURVE",
"1032 87 OFFCURVE",
"1059 55 CURVE SMOOTH",
"1121 -18 OFFCURVE",
"1202 -40 OFFCURVE",
"1308 -40 CURVE SMOOTH"
);
},
{
closed = 1;
nodes = (
"889 558 OFFCURVE",
"852 550 OFFCURVE",
"815 550 CURVE SMOOTH",
"765 550 OFFCURVE",
"713 570 OFFCURVE",
"713 619 CURVE SMOOTH",
"713 648 OFFCURVE",
"726 695 OFFCURVE",
"739 719 CURVE SMOOTH",
"759 759 OFFCURVE",
"796 807 OFFCURVE",
"842 807 CURVE SMOOTH",
"867 807 OFFCURVE",
"892 787 OFFCURVE",
"910 757 CURVE SMOOTH",
"927 729 OFFCURVE",
"941 678 OFFCURVE",
"941 645 CURVE SMOOTH",
"941 603 OFFCURVE",
"936 584 OFFCURVE",
"911 570 CURVE SMOOTH"
);
}
);
width = 1702;
},
{
anchors = (
{
name = bottom;
position = "{750, 0}";
},
{
name = ogonek;
position = "{1540, -7}";
},
{
name = top;
position = "{697, 1180}";
}
);
layerId = "4C364951-5780-4BC6-AB35-57CC8C56127C";
paths = (
{
closed = 1;
nodes = (
"1255 -40 OFFCURVE",
"1260 -30 OFFCURVE",
"1260 -7 CURVE SMOOTH",
"1260 40 OFFCURVE",
"1165 508 OFFCURVE",
"1125 645 CURVE SMOOTH",
"1038 945 OFFCURVE",
"915 1218 OFFCURVE",
"695 1218 CURVE SMOOTH",
"448 1218 OFFCURVE",
"307 913 OFFCURVE",
"200 588 CURVE SMOOTH",
"158 460 OFFCURVE",
"61 90 OFFCURVE",
"61 30 CURVE SMOOTH",
"61 -3 OFFCURVE",
"69 -17 OFFCURVE",
"84 -17 CURVE SMOOTH",
"110 -17 OFFCURVE",
"125 6 OFFCURVE",
"142 77 CURVE SMOOTH",
"168 188 OFFCURVE",
"204 329 OFFCURVE",
"228 403 CURVE SMOOTH",
"245 456 OFFCURVE",
"267 470 OFFCURVE",
"338 474 CURVE SMOOTH",
"423 479 OFFCURVE",
"554 485 OFFCURVE",
"673 485 CURVE SMOOTH",
"790 485 OFFCURVE",
"959 472 OFFCURVE",
"1009 468 CURVE SMOOTH",
"1076 463 OFFCURVE",
"1093 446 OFFCURVE",
"1104 401 CURVE SMOOTH",
"1120 337 OFFCURVE",
"1168 131 OFFCURVE",
"1193 34 CURVE SMOOTH",
"1204 -10 OFFCURVE",
"1217 -40 OFFCURVE",
"1240 -40 CURVE SMOOTH"
);
},
{
closed = 1;
nodes = (
"909 539 OFFCURVE",
"724 547 OFFCURVE",
"388 547 CURVE SMOOTH",
"304 547 OFFCURVE",
"287 556 OFFCURVE",
"287 590 CURVE SMOOTH",
"287 672 OFFCURVE",
"371 851 OFFCURVE",
"434 956 CURVE SMOOTH",
"509 1081 OFFCURVE",
"601 1160 OFFCURVE",
"697 1160 CURVE SMOOTH",
"796 1160 OFFCURVE",
"880 1068 OFFCURVE",
"943 948 CURVE SMOOTH",
"1008 823 OFFCURVE",
"1055 666 OFFCURVE",
"1055 588 CURVE SMOOTH",
"1055 552 OFFCURVE",
"1045 539 OFFCURVE",
"1015 539 CURVE SMOOTH"
);
}
);
width = 1367;
}
);
leftKerningGroup = A;
rightKerningGroup = A;
unicode = 0041;
},
{
glyphname = AE;
lastChange = "2020-04-22 01:08:31 +0000";
layers = (
{
anchors = (
{
name = bottom;
position = "{1014, 0}";
},
{
name = ogonek;
position = "{1381, 17}";
},
{
name = top;
position = "{1302, 1250}";
}
);
components = (
{
alignment = -1;
name = E;
transform = "{1, 0, 0, 1, 897, 33}";
}
);
layerId = "307B7D8E-54CC-4996-A0B0-7E3456408354";
paths = (
{
closed = 1;
nodes = (
"196 -25 OFFCURVE",
"297 13 OFFCURVE",
"396 70 CURVE SMOOTH",
"491 125 OFFCURVE",
"614 247 OFFCURVE",
"692 267 CURVE SMOOTH",
"742 280 OFFCURVE",
"874 282 OFFCURVE",
"909 282 CURVE SMOOTH",
"1172 282 OFFCURVE",
"1384 328 OFFCURVE",
"1402 398 CURVE SMOOTH",
"1462 637 OFFCURVE",
"1532 795 OFFCURVE",
"1444 977 CURVE SMOOTH",
"1374 1122 OFFCURVE",
"1246 1195 OFFCURVE",
"1094 1195 CURVE SMOOTH",
"934 1195 OFFCURVE",
"739 1110 OFFCURVE",
"539 937 CURVE SMOOTH",
"342 767 OFFCURVE",
"136 537 OFFCURVE",
"24 268 CURVE SMOOTH",
"-68 50 OFFCURVE",
"-19 -25 OFFCURVE",
"112 -25 CURVE SMOOTH"
);
},
{
closed = 1;
nodes = (
"766 545 OFFCURVE",
"757 575 OFFCURVE",
"784 622 CURVE SMOOTH",
"817 683 OFFCURVE",
"889 767 OFFCURVE",
"974 767 CURVE SMOOTH",
"1054 767 OFFCURVE",
"1066 613 OFFCURVE",
"957 573 CURVE SMOOTH",
"917 558 OFFCURVE",
"844 553 OFFCURVE",
"814 550 CURVE SMOOTH"
);
}
);
width = 2067;
},
{
anchors = (
{
name = bottom;
position = "{1028, 0}";
},
{
name = ogonek;
position = "{1328, 17}";
},
{
name = top;
position = "{1316, 1250}";
}
);
components = (
{
alignment = -1;
name = E;
transform = "{1, 0, 0, 1, 1030, 33}";
}
);
layerId = "AE979D1C-FDDA-49FD-8CD9-3E2A42843A18";
paths = (
{
closed = 1;
nodes = (
"31 -17 OFFCURVE",
"63 38 OFFCURVE",
"193 232 CURVE SMOOTH",
"278 360 OFFCURVE",
"303 420 OFFCURVE",
"386 450 CURVE SMOOTH",
"530 502 OFFCURVE",
"1041 468 OFFCURVE",
"1166 450 CURVE SMOOTH",
"1210 443 OFFCURVE",
"1208 522 OFFCURVE",
"1236 625 CURVE SMOOTH",
"1301 858 OFFCURVE",
"1295 840 OFFCURVE",
"1280 1003 CURVE SMOOTH",
"1261 1183 OFFCURVE",
"1188 1218 OFFCURVE",
"1101 1218 CURVE SMOOTH",
"985 1218 OFFCURVE",
"843 1143 OFFCURVE",
"638 942 CURVE SMOOTH",
"476 782 OFFCURVE",
"325 562 OFFCURVE",
"180 340 CURVE SMOOTH",
"38 125 OFFCURVE",
"-52 -17 OFFCURVE",
"-9 -17 CURVE SMOOTH"
);
},
{
closed = 1;
nodes = (
"486 547 OFFCURVE",
"380 493 OFFCURVE",
"445 592 CURVE SMOOTH",
"616 855 OFFCURVE",
"931 1160 OFFCURVE",
"1078 1160 CURVE SMOOTH",
"1308 1160 OFFCURVE",
"1176 608 OFFCURVE",
"1165 557 CURVE SMOOTH",
"1150 497 OFFCURVE",
"1143 543 OFFCURVE",
"786 545 CURVE SMOOTH"
);
}
);
width = 2132;
},
{
anchors = (
{
name = bottom;
position = "{1212, 0}";
},
{
name = ogonek;
position = "{1503, 17}";
},
{
name = top;
position = "{877, 1250}";
}
);
components = (
{
alignment = -1;
name = E;
transform = "{1, 0, 0, 1, 1015, 33}";
}
);
layerId = "A5079BDB-9783-4F5E-864F-267B8C6F09C1";
paths = (
{
closed = 1;
nodes = (
"225 -17 OFFCURVE",
"228 38 OFFCURVE",
"262 232 CURVE SMOOTH",
"283 360 OFFCURVE",
"277 420 OFFCURVE",
"347 450 CURVE SMOOTH",
"463 502 OFFCURVE",
"993 468 OFFCURVE",
"1127 450 CURVE SMOOTH",
"1173 443 OFFCURVE",
"1132 522 OFFCURVE",
"1108 625 CURVE SMOOTH",
"1058 858 OFFCURVE",
"1060 840 OFFCURVE",
"963 1003 CURVE SMOOTH",
"857 1183 OFFCURVE",
"765 1218 OFFCURVE",
"678 1218 CURVE SMOOTH",
"562 1218 OFFCURVE",
"473 1143 OFFCURVE",
"370 942 CURVE SMOOTH",
"287 782 OFFCURVE",
"247 562 OFFCURVE",
"210 340 CURVE SMOOTH",
"177 125 OFFCURVE",
"142 -17 OFFCURVE",
"185 -17 CURVE SMOOTH"
);
},
{
closed = 1;
nodes = (
"398 547 OFFCURVE",
"315 493 OFFCURVE",
"330 592 CURVE SMOOTH",
"372 855 OFFCURVE",
"520 1160 OFFCURVE",
"683 1160 CURVE SMOOTH",
"913 1160 OFFCURVE",
"1057 608 OFFCURVE",
"1070 557 CURVE SMOOTH",
"1087 497 OFFCURVE",
"1057 543 OFFCURVE",
"698 545 CURVE SMOOTH"
);
}
);
width = 2132;
},
{
anchors = (
{
name = bottom;
position = "{1191, 0}";
},
{
name = ogonek;
position = "{1549, 17}";
},
{
name = top;
position = "{856, 1250}";
}
);
components = (
{
alignment = -1;
name = E;
transform = "{1, 0, 0, 1, 876, 33}";
}
);
layerId = "AE80B40C-E5A8-4B5C-A94B-22B98FE5A19F";
paths = (
{
closed = 1;
nodes = (
"386 -25 OFFCURVE",
"469 13 OFFCURVE",
"539 70 CURVE SMOOTH",
"606 125 OFFCURVE",
"667 247 OFFCURVE",
"736 267 CURVE SMOOTH",
"781 280 OFFCURVE",
"911 282 OFFCURVE",
"946 282 CURVE SMOOTH",
"1209 282 OFFCURVE",
"1397 328 OFFCURVE",
"1381 398 CURVE SMOOTH",
"1322 637 OFFCURVE",
"1312 795 OFFCURVE",
"1134 977 CURVE SMOOTH",
"992 1122 OFFCURVE",
"827 1195 OFFCURVE",
"676 1195 CURVE SMOOTH",
"516 1195 OFFCURVE",
"364 1110 OFFCURVE",
"249 937 CURVE SMOOTH",
"137 767 OFFCURVE",
"46 537 OFFCURVE",
"67 268 CURVE SMOOTH",
"86 50 OFFCURVE",
"171 -25 OFFCURVE",
"302 -25 CURVE SMOOTH"
);
},
{
closed = 1;
nodes = (
"671 545 OFFCURVE",
"649 575 OFFCURVE",
"651 622 CURVE SMOOTH",
"654 683 OFFCURVE",
"684 767 OFFCURVE",
"769 767 CURVE SMOOTH",
"849 767 OFFCURVE",
"936 613 OFFCURVE",
"849 573 CURVE SMOOTH",
"816 558 OFFCURVE",
"746 553 OFFCURVE",
"717 550 CURVE SMOOTH"
);
}
);
width = 2061;
},
{
anchors = (
{
name = bottom;
position = "{1094, 0}";
},
{
name = ogonek;
position = "{1457, 17}";
},
{
name = top;
position = "{1094, 1250}";
}
);
components = (
{
alignment = -1;
name = E;
transform = "{1, 0, 0, 1, 894, 33}";
}
);
layerId = "6282282A-FA3F-4DEE-9DB6-5D5B2A6C152F";
paths = (
{
closed = 1;
nodes = (
"282 -25 OFFCURVE",
"376 13 OFFCURVE",
"461 70 CURVE SMOOTH",
"542 125 OFFCURVE",
"637 247 OFFCURVE",
"711 267 CURVE SMOOTH",
"759 280 OFFCURVE",
"889 282 OFFCURVE",
"924 282 CURVE SMOOTH",
"1187 282 OFFCURVE",
"1389 328 OFFCURVE",
"1391 398 CURVE SMOOTH",
"1396 637 OFFCURVE",
"1429 795 OFFCURVE",
"1299 977 CURVE SMOOTH",
"1196 1122 OFFCURVE",
"1051 1195 OFFCURVE",
"899 1195 CURVE SMOOTH",
"739 1195 OFFCURVE",
"564 1110 OFFCURVE",
"404 937 CURVE SMOOTH",
"246 767 OFFCURVE",
"92 537 OFFCURVE",
"42 268 CURVE SMOOTH",
"2 50 OFFCURVE",
"67 -25 OFFCURVE",
"199 -25 CURVE SMOOTH"
);
},
{
closed = 1;
nodes = (
"721 545 OFFCURVE",
"706 575 OFFCURVE",
"721 622 CURVE SMOOTH",
"741 683 OFFCURVE",
"792 767 OFFCURVE",
"877 767 CURVE SMOOTH",
"957 767 OFFCURVE",
"1004 613 OFFCURVE",
"906 573 CURVE SMOOTH",
"869 558 OFFCURVE",
"797 553 OFFCURVE",
"767 550 CURVE SMOOTH"
);
}
);
width = 2070;
},
{
anchors = (
{
name = bottom;
position = "{1106, 0}";
},
{
name = ogonek;
position = "{1402, 17}";
},
{
name = top;
position = "{1106, 1250}";
}
);
components = (
{
alignment = -1;
name = E;
transform = "{1, 0, 0, 1, 1024, 33}";
}
);
layerId = "4C364951-5780-4BC6-AB35-57CC8C56127C";
paths = (
{
closed = 1;
nodes = (
"114 -17 OFFCURVE",
"133 38 OFFCURVE",
"218 232 CURVE SMOOTH",
"274 360 OFFCURVE",
"284 420 OFFCURVE",
"361 450 CURVE SMOOTH",
"493 502 OFFCURVE",
"1013 468 OFFCURVE",
"1141 450 CURVE SMOOTH",
"1186 443 OFFCURVE",
"1166 522 OFFCURVE",
"1171 625 CURVE SMOOTH",
"1183 858 OFFCURVE",
"1179 840 OFFCURVE",
"1126 1003 CURVE SMOOTH",
"1068 1183 OFFCURVE",
"986 1218 OFFCURVE",
"899 1218 CURVE SMOOTH",
"783 1218 OFFCURVE",
"658 1143 OFFCURVE",
"499 942 CURVE SMOOTH",
"374 782 OFFCURVE",
"284 562 OFFCURVE",
"189 340 CURVE SMOOTH",
"98 125 OFFCURVE",
"31 -17 OFFCURVE",
"74 -17 CURVE SMOOTH"
);
},
{
closed = 1;
nodes = (
"439 547 OFFCURVE",
"328 493 OFFCURVE",
"369 592 CURVE SMOOTH",
"481 855 OFFCURVE",
"726 1160 OFFCURVE",
"889 1160 CURVE SMOOTH",
"1119 1160 OFFCURVE",
"1114 608 OFFCURVE",
"1114 557 CURVE SMOOTH",
"1114 497 OFFCURVE",
"1096 543 OFFCURVE",
"739 545 CURVE SMOOTH"
);
}
);
width = 2134;
}
);
leftKerningGroup = A;
leftMetricsKey = A;
rightKerningGroup = E;
rightMetricsKey = E;
unicode = 00C6;
},
{
glyphname = B;
lastChange = "2020-04-11 20:31:10 +0000";
layers = (
{
anchors = (
{
name = bottom;
position = "{625, 0}";
},
{
name = top;
position = "{893, 1167}";
}
);
layerId = "307B7D8E-54CC-4996-A0B0-7E3456408354";
paths = (
{
closed = 1;
nodes = (
"678 -70 OFFCURVE",
"1015 -23 OFFCURVE",
"1147 80 CURVE SMOOTH",
"1233 148 OFFCURVE",
"1303 263 OFFCURVE",
"1303 380 CURVE SMOOTH",
"1303 488 OFFCURVE",
"1238 571 OFFCURVE",
"1133 602 CURVE SMOOTH",
"1089 615 OFFCURVE",
"1057 626 OFFCURVE",
"1057 637 CURVE SMOOTH",
"1057 647 OFFCURVE",
"1104 673 OFFCURVE",
"1143 693 CURVE SMOOTH",
"1227 736 OFFCURVE",
"1300 818 OFFCURVE",
"1300 938 CURVE SMOOTH",
"1300 1137 OFFCURVE",
"1040 1190 OFFCURVE",
"802 1190 CURVE SMOOTH",
"387 1190 OFFCURVE",
"185 1065 OFFCURVE",
"92 667 CURVE SMOOTH",
"62 540 OFFCURVE",
"18 263 OFFCURVE",
"18 150 CURVE SMOOTH",
"18 -53 OFFCURVE",
"150 -70 OFFCURVE",
"463 -70 CURVE SMOOTH"
);
},
{
closed = 1;
nodes = (
"570 283 OFFCURVE",
"560 310 OFFCURVE",
"560 333 CURVE SMOOTH",
"560 403 OFFCURVE",
"622 420 OFFCURVE",
"685 420 CURVE SMOOTH",
"735 420 OFFCURVE",
"800 407 OFFCURVE",
"800 363 CURVE SMOOTH",
"800 303 OFFCURVE",
"673 283 OFFCURVE",
"605 283 CURVE SMOOTH"
);
},
{
closed = 1;
nodes = (
"650 752 OFFCURVE",
"637 768 OFFCURVE",
"637 800 CURVE SMOOTH",
"637 820 OFFCURVE",
"643 863 OFFCURVE",
"658 887 CURVE SMOOTH",
"672 905 OFFCURVE",
"698 913 OFFCURVE",
"728 913 CURVE SMOOTH",
"790 913 OFFCURVE",
"863 887 OFFCURVE",
"863 845 CURVE SMOOTH",
"863 820 OFFCURVE",
"835 797 OFFCURVE",
"798 782 CURVE SMOOTH",
"757 765 OFFCURVE",
"715 752 OFFCURVE",
"683 752 CURVE SMOOTH"
);
}
);
width = 1348;
},
{
anchors = (
{
name = bottom;
position = "{547, 0}";
},
{
name = top;
position = "{815, 1167}";
}
);
layerId = "AE979D1C-FDDA-49FD-8CD9-3E2A42843A18";
paths = (
{
closed = 1;
nodes = (
"507 -40 OFFCURVE",
"730 3 OFFCURVE",
"855 77 CURVE SMOOTH",
"965 142 OFFCURVE",
"1065 250 OFFCURVE",
"1065 382 CURVE SMOOTH",
"1065 483 OFFCURVE",
"992 538 OFFCURVE",
"872 572 CURVE SMOOTH",
"790 595 OFFCURVE",
"732 603 OFFCURVE",
"732 608 CURVE SMOOTH",
"732 615 OFFCURVE",
"765 618 OFFCURVE",
"818 637 CURVE SMOOTH",
"955 683 OFFCURVE",
"1085 803 OFFCURVE",
"1085 960 CURVE SMOOTH",
"1085 1128 OFFCURVE",
"912 1207 OFFCURVE",
"710 1207 CURVE SMOOTH",
"457 1207 OFFCURVE",
"303 1140 OFFCURVE",
"233 948 CURVE SMOOTH",
"173 782 OFFCURVE",
"8 247 OFFCURVE",
"8 115 CURVE SMOOTH",
"8 -8 OFFCURVE",
"85 -40 OFFCURVE",
"292 -40 CURVE SMOOTH"
);
},
{
closed = 1;
nodes = (
"135 23 OFFCURVE",
"83 45 OFFCURVE",
"83 135 CURVE SMOOTH",
"83 310 OFFCURVE",
"173 578 OFFCURVE",
"242 578 CURVE SMOOTH",
"517 578 OFFCURVE",
"1000 578 OFFCURVE",
"1000 375 CURVE SMOOTH",
"1000 123 OFFCURVE",
"620 23 OFFCURVE",
"283 23 CURVE SMOOTH"
);
},
{
closed = 1;
nodes = (
"225 630 OFFCURVE",
"212 640 OFFCURVE",
"212 670 CURVE SMOOTH",
"212 730 OFFCURVE",
"295 962 OFFCURVE",
"338 1023 CURVE SMOOTH",
"395 1105 OFFCURVE",
"542 1152 OFFCURVE",
"685 1152 CURVE SMOOTH",
"858 1152 OFFCURVE",
"1022 1088 OFFCURVE",
"1022 955 CURVE SMOOTH",
"1022 805 OFFCURVE",
"908 702 OFFCURVE",
"738 663 CURVE SMOOTH",
"607 633 OFFCURVE",
"480 630 OFFCURVE",
"250 630 CURVE SMOOTH"
);
}
);
width = 1137;
},
{
anchors = (
{
name = bottom;
position = "{728, 0}";
},
{
name = top;
position = "{415, 1167}";
}
);
layerId = "A5079BDB-9783-4F5E-864F-267B8C6F09C1";
paths = (
{
closed = 1;
nodes = (
"690 -40 OFFCURVE",
"895 2 OFFCURVE",
"980 78 CURVE SMOOTH",
"1030 123 OFFCURVE",
"1078 195 OFFCURVE",
"1078 275 CURVE SMOOTH",
"1078 432 OFFCURVE",
"950 525 OFFCURVE",
"775 572 CURVE SMOOTH",
"680 597 OFFCURVE",
"618 603 OFFCURVE",
"618 608 CURVE SMOOTH",
"618 615 OFFCURVE",
"645 618 OFFCURVE",
"692 637 CURVE SMOOTH",
"755 662 OFFCURVE",
"837 728 OFFCURVE",
"837 837 CURVE SMOOTH",
"837 1068 OFFCURVE",
"582 1207 OFFCURVE",
"320 1207 CURVE SMOOTH",
"80 1207 OFFCURVE",
"-42 1147 OFFCURVE",
"-42 978 CURVE SMOOTH",
"-42 873 OFFCURVE",
"37 430 OFFCURVE",
"78 252 CURVE SMOOTH",
"133 15 OFFCURVE",
"207 -40 OFFCURVE",
"475 -40 CURVE SMOOTH"
);
},
{
closed = 1;
nodes = (
"172 23 OFFCURVE",
"95 287 OFFCURVE",
"95 518 CURVE SMOOTH",
"95 558 OFFCURVE",
"118 578 OFFCURVE",
"153 578 CURVE SMOOTH",
"453 578 OFFCURVE",
"1015 575 OFFCURVE",
"1015 278 CURVE SMOOTH",
"1015 105 OFFCURVE",
"860 23 OFFCURVE",
"402 23 CURVE SMOOTH"
);
},
{
closed = 1;
nodes = (
"82 630 OFFCURVE",
"68 655 OFFCURVE",
"60 695 CURVE SMOOTH",
"43 770 OFFCURVE",
"23 895 OFFCURVE",
"23 973 CURVE SMOOTH",
"23 1107 OFFCURVE",
"148 1152 OFFCURVE",
"298 1152 CURVE SMOOTH",
"517 1152 OFFCURVE",
"772 1063 OFFCURVE",
"772 842 CURVE SMOOTH",
"772 740 OFFCURVE",
"705 692 OFFCURVE",
"598 663 CURVE SMOOTH",
"480 633 OFFCURVE",
"338 630 OFFCURVE",
"108 630 CURVE SMOOTH"
);
}
);
width = 1137;
},
{
anchors = (
{
name = bottom;
position = "{807, 0}";
},
{
name = top;
position = "{493, 1167}";
}
);
layerId = "AE80B40C-E5A8-4B5C-A94B-22B98FE5A19F";
paths = (
{
closed = 1;
nodes = (
"885 -70 OFFCURVE",
"1200 -22 OFFCURVE",
"1283 80 CURVE SMOOTH",
"1318 122 OFFCURVE",
"1337 178 OFFCURVE",
"1337 238 CURVE SMOOTH",
"1337 403 OFFCURVE",
"1209 558 OFFCURVE",
"1030 602 CURVE SMOOTH",
"981 614 OFFCURVE",
"937 627 OFFCURVE",
"937 637 CURVE SMOOTH",
"937 649 OFFCURVE",
"965 669 OFFCURVE",
"1000 686 CURVE SMOOTH",
"1052 712 OFFCURVE",
"1085 765 OFFCURVE",
"1085 873 CURVE SMOOTH",
"1085 1131 OFFCURVE",
"692 1190 OFFCURVE",
"428 1190 CURVE SMOOTH",
"93 1190 OFFCURVE",
"-68 1108 OFFCURVE",
"-68 867 CURVE SMOOTH",
"-68 698 OFFCURVE",
"27 402 OFFCURVE",
"103 200 CURVE SMOOTH",
"198 -50 OFFCURVE",
"332 -70 OFFCURVE",
"670 -70 CURVE SMOOTH"
);
},
{
closed = 1;
nodes = (
"607 283 OFFCURVE",
"572 332 OFFCURVE",
"572 373 CURVE SMOOTH",
"572 418 OFFCURVE",
"633 420 OFFCURVE",
"665 420 CURVE SMOOTH",
"715 420 OFFCURVE",
"807 407 OFFCURVE",
"807 363 CURVE SMOOTH",
"807 303 OFFCURVE",
"717 283 OFFCURVE",
"648 283 CURVE SMOOTH"
);
},
{
closed = 1;
nodes = (
"463 752 OFFCURVE",
"440 783 OFFCURVE",
"428 843 CURVE SMOOTH",
"427 855 OFFCURVE",
"423 867 OFFCURVE",
"423 877 CURVE SMOOTH",
"423 903 OFFCURVE",
"452 913 OFFCURVE",
"482 913 CURVE SMOOTH",
"550 913 OFFCURVE",
"652 880 OFFCURVE",
"652 830 CURVE SMOOTH",
"652 810 OFFCURVE",
"635 793 OFFCURVE",
"612 782 CURVE SMOOTH",
"578 765 OFFCURVE",
"542 752 OFFCURVE",
"510 752 CURVE SMOOTH"
);
}
);
width = 1348;
},
{
anchors = (
{
name = bottom;
position = "{700, 0}";
},
{
name = top;
position = "{700, 1167}";
}
);
layerId = "6282282A-FA3F-4DEE-9DB6-5D5B2A6C152F";
paths = (
{
closed = 1;
nodes = (
"773 -70 OFFCURVE",
"1098 -22 OFFCURVE",
"1207 80 CURVE SMOOTH",
"1268 138 OFFCURVE",
"1303 223 OFFCURVE",
"1303 308 CURVE SMOOTH",
"1303 455 OFFCURVE",
"1208 560 OFFCURVE",
"1073 602 CURVE SMOOTH",
"1030 615 OFFCURVE",
"988 628 OFFCURVE",
"988 637 CURVE SMOOTH",
"988 647 OFFCURVE",
"1037 660 OFFCURVE",
"1083 683 CURVE SMOOTH",
"1138 711 OFFCURVE",
"1190 755 OFFCURVE",
"1190 873 CURVE SMOOTH",
"1190 1125 OFFCURVE",
"870 1190 OFFCURVE",
"607 1190 CURVE SMOOTH",
"192 1190 OFFCURVE",
"17 1065 OFFCURVE",
"17 667 CURVE SMOOTH",
"17 517 OFFCURVE",
"33 337 OFFCURVE",
"53 200 CURVE SMOOTH",
"92 -50 OFFCURVE",
"220 -70 OFFCURVE",
"558 -70 CURVE SMOOTH"
);
},
{
closed = 1;
nodes = (
"572 283 OFFCURVE",
"560 332 OFFCURVE",
"560 357 CURVE SMOOTH",
"560 418 OFFCURVE",
"632 420 OFFCURVE",
"667 420 CURVE SMOOTH",
"717 420 OFFCURVE",
"795 405 OFFCURVE",
"795 363 CURVE SMOOTH",
"795 303 OFFCURVE",
"687 283 OFFCURVE",
"618 283 CURVE SMOOTH"
);
},
{
closed = 1;
nodes = (
"542 752 OFFCURVE",
"527 783 OFFCURVE",
"527 843 CURVE SMOOTH",
"527 860 OFFCURVE",
"528 877 OFFCURVE",
"533 887 CURVE SMOOTH",
"542 905 OFFCURVE",
"567 913 OFFCURVE",
"597 913 CURVE SMOOTH",
"662 913 OFFCURVE",
"748 883 OFFCURVE",
"748 837 CURVE SMOOTH",
"748 815 OFFCURVE",
"727 795 OFFCURVE",
"697 782 CURVE SMOOTH",
"660 763 OFFCURVE",
"620 752 OFFCURVE",
"588 752 CURVE SMOOTH"
);
}
);
width = 1348;
},
{
anchors = (
{
name = bottom;
position = "{622, 0}";
},
{
name = top;
position = "{622, 1167}";
}
);
layerId = "4C364951-5780-4BC6-AB35-57CC8C56127C";
paths = (
{
closed = 1;
nodes = (
"595 -40 OFFCURVE",
"813 2 OFFCURVE",
"917 78 CURVE SMOOTH",
"988 132 OFFCURVE",
"1062 223 OFFCURVE",
"1062 322 CURVE SMOOTH",
"1062 462 OFFCURVE",
"970 530 OFFCURVE",
"820 572 CURVE SMOOTH",
"732 597 OFFCURVE",
"672 603 OFFCURVE",
"672 608 CURVE SMOOTH",
"672 615 OFFCURVE",
"702 618 OFFCURVE",
"752 637 CURVE SMOOTH",
"832 665 OFFCURVE",
"950 750 OFFCURVE",
"950 893 CURVE SMOOTH",
"950 1108 OFFCURVE",
"738 1207 OFFCURVE",
"512 1207 CURVE SMOOTH",
"258 1207 OFFCURVE",
"120 1140 OFFCURVE",
"93 948 CURVE SMOOTH",
"73 807 OFFCURVE",
"50 417 OFFCURVE",
"50 252 CURVE SMOOTH",
"50 15 OFFCURVE",
"112 -40 OFFCURVE",
"380 -40 CURVE SMOOTH"
);
},
{
closed = 1;
nodes = (
"137 23 OFFCURVE",
"120 72 OFFCURVE",
"120 322 CURVE SMOOTH",
"120 523 OFFCURVE",
"128 578 OFFCURVE",
"182 578 CURVE SMOOTH",
"470 578 OFFCURVE",
"1003 570 OFFCURVE",
"1003 333 CURVE SMOOTH",
"1003 127 OFFCURVE",
"758 23 OFFCURVE",
"358 23 CURVE SMOOTH"
);
},
{
closed = 1;
nodes = (
"140 630 OFFCURVE",
"133 655 OFFCURVE",
"133 695 CURVE SMOOTH",
"133 790 OFFCURVE",
"150 963 OFFCURVE",
"178 1023 CURVE SMOOTH",
"217 1105 OFFCURVE",
"347 1152 OFFCURVE",
"490 1152 CURVE SMOOTH",
"682 1152 OFFCURVE",
"887 1075 OFFCURVE",
"887 912 CURVE SMOOTH",
"887 760 OFFCURVE",
"802 697 OFFCURVE",
"665 663 CURVE SMOOTH",
"540 635 OFFCURVE",
"397 630 OFFCURVE",
"167 630 CURVE SMOOTH"
);
}
);
width = 1137;
}
);
leftKerningGroup = H;
rightKerningGroup = B;
unicode = 0042;
},
{
glyphname = C;
lastChange = "2020-03-06 01:16:00 +0000";
layers = (
{
anchors = (
{
name = bottom;
position = "{743, 33}";
},
{
name = top;
position = "{855, 1167}";
}
);
layerId = "307B7D8E-54CC-4996-A0B0-7E3456408354";
paths = (
{
closed = 1;
nodes = (
"880 -75 OFFCURVE",
"1210 27 OFFCURVE",
"1210 312 CURVE SMOOTH",
"1210 389 OFFCURVE",
"1165 437 OFFCURVE",
"1041 437 CURVE SMOOTH",
"948 437 OFFCURVE",
"862 396 OFFCURVE",
"813 396 CURVE SMOOTH",
"739 396 OFFCURVE",
"715 431 OFFCURVE",
"715 486 CURVE SMOOTH",
"715 600 OFFCURVE",
"788 784 OFFCURVE",
"890 784 CURVE SMOOTH",
"946 784 OFFCURVE",
"987 771 OFFCURVE",
"1085 771 CURVE SMOOTH",
"1204 771 OFFCURVE",
"1290 868 OFFCURVE",
"1290 984 CURVE SMOOTH",
"1290 1123 OFFCURVE",
"1120 1185 OFFCURVE",
"945 1185 CURVE SMOOTH",
"455 1185 OFFCURVE",
"49 829 OFFCURVE",
"49 351 CURVE SMOOTH",
"49 77 OFFCURVE",
"243 -75 OFFCURVE",
"566 -75 CURVE SMOOTH"
);
}
);
width = 1292;
},
{
anchors = (
{
name = bottom;
position = "{582, -50}";
},
{
name = top;
position = "{778, 1167}";
}
);
layerId = "AE979D1C-FDDA-49FD-8CD9-3E2A42843A18";
paths = (
{
closed = 1;
nodes = (
"802 -58 OFFCURVE",
"985 93 OFFCURVE",
"985 158 CURVE SMOOTH",
"985 172 OFFCURVE",
"978 175 OFFCURVE",
"965 175 CURVE SMOOTH",
"905 175 OFFCURVE",
"802 0 OFFCURVE",
"533 0 CURVE SMOOTH",
"263 0 OFFCURVE",
"155 178 OFFCURVE",
"155 400 CURVE SMOOTH",
"155 782 OFFCURVE",
"437 1123 OFFCURVE",
"808 1123 CURVE SMOOTH",
"1110 1123 OFFCURVE",
"1102 1005 OFFCURVE",
"1150 1005 CURVE SMOOTH",
"1162 1005 OFFCURVE",
"1183 1010 OFFCURVE",
"1183 1030 CURVE SMOOTH",
"1183 1080 OFFCURVE",
"1060 1185 OFFCURVE",
"838 1185 CURVE SMOOTH",
"388 1185 OFFCURVE",
"78 838 OFFCURVE",
"78 388 CURVE SMOOTH",
"78 125 OFFCURVE",
"225 -58 OFFCURVE",
"535 -58 CURVE SMOOTH"
);
}
);
width = 1123;
},
{
anchors = (
{
name = bottom;
position = "{788, -50}";
},
{
name = top;
position = "{378, 1167}";
}
);
layerId = "A5079BDB-9783-4F5E-864F-267B8C6F09C1";
paths = (
{
closed = 1;
nodes = (
"967 -58 OFFCURVE",
"1087 93 OFFCURVE",
"1087 145 CURVE SMOOTH",
"1087 168 OFFCURVE",
"1073 175 OFFCURVE",
"1055 175 CURVE SMOOTH",
"995 175 OFFCURVE",
"972 0 OFFCURVE",
"703 0 CURVE SMOOTH",
"342 0 OFFCURVE",
"72 325 OFFCURVE",
"72 700 CURVE SMOOTH",
"72 982 OFFCURVE",
"248 1123 OFFCURVE",
"453 1123 CURVE SMOOTH",
"752 1123 OFFCURVE",
"808 1005 OFFCURVE",
"857 1005 CURVE SMOOTH",
"862 1005 OFFCURVE",
"880 1008 OFFCURVE",
"880 1022 CURVE SMOOTH",
"880 1097 OFFCURVE",
"645 1185 OFFCURVE",
"490 1185 CURVE SMOOTH",
"158 1185 OFFCURVE",
"-3 995 OFFCURVE",
"-3 717 CURVE SMOOTH",
"-3 282 OFFCURVE",
"267 -58 OFFCURVE",
"702 -58 CURVE SMOOTH"
);
}
);
width = 1123;
},
{
anchors = (
{
name = bottom;
position = "{910, 33}";
},
{
name = top;
position = "{455, 1167}";
}
);
layerId = "AE80B40C-E5A8-4B5C-A94B-22B98FE5A19F";
paths = (
{
closed = 1;
nodes = (
"1054 -75 OFFCURVE",
"1285 -10 OFFCURVE",
"1285 173 CURVE SMOOTH",
"1285 330 OFFCURVE",
"1185 437 OFFCURVE",
"1019 437 CURVE SMOOTH",
"926 437 OFFCURVE",
"862 396 OFFCURVE",
"813 396 CURVE SMOOTH",
"687 396 OFFCURVE",
"622 533 OFFCURVE",
"622 680 CURVE SMOOTH",
"622 745 OFFCURVE",
"646 784 OFFCURVE",
"696 784 CURVE SMOOTH",
"752 784 OFFCURVE",
"799 771 OFFCURVE",
"897 771 CURVE SMOOTH",
"975 771 OFFCURVE",
"1018 812 OFFCURVE",
"1018 888 CURVE SMOOTH",
"1018 1091 OFFCURVE",
"795 1185 OFFCURVE",
"581 1185 CURVE SMOOTH",
"210 1185 OFFCURVE",
"-5 991 OFFCURVE",
"-5 674 CURVE SMOOTH",
"-5 223 OFFCURVE",
"324 -75 OFFCURVE",
"790 -75 CURVE SMOOTH"
);
}
);
width = 1292;
},
{
anchors = (
{
name = bottom;
position = "{812, 33}";
},
{
name = top;
position = "{662, 1167}";
}
);
layerId = "6282282A-FA3F-4DEE-9DB6-5D5B2A6C152F";
paths = (
{
closed = 1;
nodes = (
"957 -75 OFFCURVE",
"1230 5 OFFCURVE",
"1230 237 CURVE SMOOTH",
"1230 357 OFFCURVE",
"1182 437 OFFCURVE",
"1022 437 CURVE SMOOTH",
"929 437 OFFCURVE",
"854 396 OFFCURVE",
"805 396 CURVE SMOOTH",
"694 396 OFFCURVE",
"675 475 OFFCURVE",
"675 578 CURVE SMOOTH",
"675 702 OFFCURVE",
"713 784 OFFCURVE",
"785 784 CURVE SMOOTH",
"841 784 OFFCURVE",
"885 771 OFFCURVE",
"983 771 CURVE SMOOTH",
"1081 771 OFFCURVE",
"1140 836 OFFCURVE",
"1140 954 CURVE SMOOTH",
"1140 1111 OFFCURVE",
"957 1185 OFFCURVE",
"770 1185 CURVE SMOOTH",
"323 1185 OFFCURVE",
"33 903 OFFCURVE",
"33 465 CURVE SMOOTH",
"33 110 OFFCURVE",
"300 -75 OFFCURVE",
"665 -75 CURVE SMOOTH"
);
}
);
width = 1292;
},
{
anchors = (
{
name = bottom;
position = "{668, -50}";
},
{
name = top;
position = "{585, 1167}";
}
);
layerId = "4C364951-5780-4BC6-AB35-57CC8C56127C";
paths = (
{
closed = 1;
nodes = (
"887 -58 OFFCURVE",
"1032 93 OFFCURVE",
"1032 145 CURVE SMOOTH",
"1032 168 OFFCURVE",
"1025 175 OFFCURVE",
"1007 175 CURVE SMOOTH",
"947 175 OFFCURVE",
"883 0 OFFCURVE",
"615 0 CURVE SMOOTH",
"288 0 OFFCURVE",
"125 263 OFFCURVE",
"125 548 CURVE SMOOTH",
"125 930 OFFCURVE",
"390 1123 OFFCURVE",
"630 1123 CURVE SMOOTH",
"932 1123 OFFCURVE",
"952 1005 OFFCURVE",
"1000 1005 CURVE SMOOTH",
"1011 1005 OFFCURVE",
"1028 1008 OFFCURVE",
"1028 1025 CURVE SMOOTH",
"1028 1072 OFFCURVE",
"890 1185 OFFCURVE",
"660 1185 CURVE SMOOTH",
"260 1185 OFFCURVE",
"50 908 OFFCURVE",
"50 535 CURVE SMOOTH",
"50 180 OFFCURVE",
"257 -58 OFFCURVE",
"622 -58 CURVE SMOOTH"
);
}
);
width = 1123;
}
);
leftKerningGroup = O;
rightKerningGroup = C;
unicode = 0043;
},
{
glyphname = D;
lastChange = "2020-04-11 20:34:19 +0000";
layers = (
{
anchors = (
{
name = bottom;
position = "{655, 0}";
},
{
name = center;
position = "{789, 583}";
},
{
name = top;
position = "{1045, 1207}";
}
);
layerId = "307B7D8E-54CC-4996-A0B0-7E3456408354";
paths = (
{
closed = 1;
nodes = (
"796 -37 OFFCURVE",
"1449 187 OFFCURVE",
"1449 607 CURVE SMOOTH",
"1449 891 OFFCURVE",
"1142 1232 OFFCURVE",
"665 1232 CURVE SMOOTH",
"428 1232 OFFCURVE",
"290 1119 OFFCURVE",
"194 928 CURVE SMOOTH",
"131 803 OFFCURVE",
"88 642 OFFCURVE",
"45 457 CURVE SMOOTH",
"26 377 OFFCURVE",
"13 273 OFFCURVE",
"13 195 CURVE SMOOTH",
"13 33 OFFCURVE",
"70 -37 OFFCURVE",
"293 -37 CURVE SMOOTH"
);
},
{
closed = 1;
nodes = (
"637 495 OFFCURVE",
"626 510 OFFCURVE",
"626 539 CURVE SMOOTH",
"626 559 OFFCURVE",
"630 585 OFFCURVE",
"637 617 CURVE SMOOTH",
"643 643 OFFCURVE",
"649 664 OFFCURVE",
"659 680 CURVE SMOOTH",
"676 707 OFFCURVE",
"696 720 OFFCURVE",
"725 720 CURVE SMOOTH",
"819 720 OFFCURVE",
"870 663 OFFCURVE",
"870 618 CURVE SMOOTH",
"870 554 OFFCURVE",
"754 495 OFFCURVE",
"661 495 CURVE SMOOTH"
);
}
);
width = 1432;
},
{
anchors = (
{
name = bottom;
position = "{552, 0}";
},
{
name = center;
position = "{282, 583}";
},
{
name = top;
position = "{823, 1183}";
}
);
layerId = "AE979D1C-FDDA-49FD-8CD9-3E2A42843A18";
paths = (
{
closed = 1;
nodes = (
"672 -12 OFFCURVE",
"1223 255 OFFCURVE",
"1223 645 CURVE SMOOTH",
"1223 871 OFFCURVE",
"932 1210 OFFCURVE",
"443 1210 CURVE SMOOTH",
"350 1210 OFFCURVE",
"289 1138 OFFCURVE",
"245 1023 CURVE SMOOTH",
"207 924 OFFCURVE",
"176 794 OFFCURVE",
"143 650 CURVE SMOOTH",
"97 448 OFFCURVE",
"70 283 OFFCURVE",
"70 169 CURVE SMOOTH",
"70 53 OFFCURVE",
"107 -12 OFFCURVE",
"209 -12 CURVE SMOOTH"
);
},
{
closed = 1;
nodes = (
"175 52 OFFCURVE",
"139 95 OFFCURVE",
"139 184 CURVE SMOOTH",
"139 294 OFFCURVE",
"174 475 OFFCURVE",
"233 732 CURVE SMOOTH",
"258 840 OFFCURVE",
"284 943 OFFCURVE",
"316 1019 CURVE SMOOTH",
"349 1097 OFFCURVE",
"387 1148 OFFCURVE",
"432 1148 CURVE SMOOTH",
"907 1148 OFFCURVE",
"1156 837 OFFCURVE",
"1156 645 CURVE SMOOTH",
"1156 316 OFFCURVE",
"644 52 OFFCURVE",
"240 52 CURVE SMOOTH"
);
}
);
width = 1219;
},
{
anchors = (
{
name = bottom;
position = "{729, 0}";
},
{
name = center;
position = "{169, 583}";
},
{
name = top;
position = "{413, 1183}";
}
);
layerId = "A5079BDB-9783-4F5E-864F-267B8C6F09C1";
paths = (
{
closed = 1;
nodes = (
"883 -12 OFFCURVE",
"1113 285 OFFCURVE",
"1113 555 CURVE SMOOTH",
"1113 918 OFFCURVE",
"511 1210 OFFCURVE",
"57 1210 CURVE SMOOTH",
"-25 1210 OFFCURVE",
"-52 1154 OFFCURVE",
"-52 1062 CURVE SMOOTH",
"-52 957 OFFCURVE",
"-15 785 OFFCURVE",
"16 650 CURVE SMOOTH",
"62 448 OFFCURVE",
"106 283 OFFCURVE",
"158 169 CURVE SMOOTH",
"211 53 OFFCURVE",
"275 -12 OFFCURVE",
"377 -12 CURVE SMOOTH"
);
},
{
closed = 1;
nodes = (
"324 52 OFFCURVE",
"270 94 OFFCURVE",
"229 179 CURVE SMOOTH",
"176 289 OFFCURVE",
"127 471 OFFCURVE",
"67 732 CURVE SMOOTH",
"39 853 OFFCURVE",
"19 967 OFFCURVE",
"19 1044 CURVE SMOOTH",
"19 1108 OFFCURVE",
"34 1148 OFFCURVE",
"74 1148 CURVE SMOOTH",
"473 1148 OFFCURVE",
"1047 875 OFFCURVE",
"1047 557 CURVE SMOOTH",
"1047 338 OFFCURVE",
"861 52 OFFCURVE",
"388 52 CURVE SMOOTH"
);
}
);
width = 1213;
},
{
anchors = (
{
name = bottom;
position = "{824, 0}";
},
{
name = center;
position = "{667, 583}";
},
{
name = top;
position = "{612, 1207}";
}
);
layerId = "AE80B40C-E5A8-4B5C-A94B-22B98FE5A19F";
paths = (
{
closed = 1;
nodes = (
"1023 -37 OFFCURVE",
"1364 236 OFFCURVE",
"1364 521 CURVE SMOOTH",
"1364 914 OFFCURVE",
"730 1232 OFFCURVE",
"270 1232 CURVE SMOOTH",
"24 1232 OFFCURVE",
"-71 1110 OFFCURVE",
"-71 906 CURVE SMOOTH",
"-71 783 OFFCURVE",
"-34 626 OFFCURVE",
"11 457 CURVE SMOOTH",
"34 370 OFFCURVE",
"55 298 OFFCURVE",
"77 236 CURVE SMOOTH",
"145 44 OFFCURVE",
"241 -37 OFFCURVE",
"482 -37 CURVE SMOOTH"
);
},
{
closed = 1;
nodes = (
"580 495 OFFCURVE",
"563 513 OFFCURVE",
"547 546 CURVE SMOOTH",
"538 565 OFFCURVE",
"530 589 OFFCURVE",
"524 617 CURVE SMOOTH",
"520 637 OFFCURVE",
"517 653 OFFCURVE",
"517 667 CURVE SMOOTH",
"517 704 OFFCURVE",
"533 720 OFFCURVE",
"566 720 CURVE SMOOTH",
"676 720 OFFCURVE",
"763 643 OFFCURVE",
"763 596 CURVE SMOOTH",
"763 555 OFFCURVE",
"711 495 OFFCURVE",
"606 495 CURVE SMOOTH"
);
}
);
width = 1432;
},
{
anchors = (
{
name = bottom;
position = "{720, 0}";
},
{
name = center;
position = "{720, 583}";
},
{
name = top;
position = "{832, 1207}";
}
);
layerId = "6282282A-FA3F-4DEE-9DB6-5D5B2A6C152F";
paths = (
{
closed = 1;
nodes = (
"951 -37 OFFCURVE",
"1415 220 OFFCURVE",
"1415 555 CURVE SMOOTH",
"1415 867 OFFCURVE",
"986 1232 OFFCURVE",
"479 1232 CURVE SMOOTH",
"242 1232 OFFCURVE",
"130 1119 OFFCURVE",
"78 928 CURVE SMOOTH",
"45 802 OFFCURVE",
"37 642 OFFCURVE",
"37 457 CURVE SMOOTH",
"37 371 OFFCURVE",
"39 298 OFFCURVE",
"47 236 CURVE SMOOTH",
"70 44 OFFCURVE",
"148 -37 OFFCURVE",
"389 -37 CURVE SMOOTH"
);
},
{
closed = 1;
nodes = (
"619 495 OFFCURVE",
"605 513 OFFCURVE",
"598 546 CURVE SMOOTH",
"594 565 OFFCURVE",
"592 589 OFFCURVE",
"592 617 CURVE SMOOTH",
"592 643 OFFCURVE",
"594 664 OFFCURVE",
"600 680 CURVE SMOOTH",
"609 708 OFFCURVE",
"628 720 OFFCURVE",
"657 720 CURVE SMOOTH",
"760 720 OFFCURVE",
"827 652 OFFCURVE",
"827 605 CURVE SMOOTH",
"827 565 OFFCURVE",
"759 495 OFFCURVE",
"645 495 CURVE SMOOTH"
);
}
);
width = 1452;
},
{
anchors = (
{
name = bottom;
position = "{575, 0}";
},
{
name = center;
position = "{171, 583}";
},
{
name = top;
position = "{575, 1183}";
}
);
layerId = "4C364951-5780-4BC6-AB35-57CC8C56127C";
paths = (
{
closed = 1;
nodes = (
"832 -12 OFFCURVE",
"1155 298 OFFCURVE",
"1155 615 CURVE SMOOTH",
"1155 868 OFFCURVE",
"781 1210 OFFCURVE",
"240 1210 CURVE SMOOTH",
"147 1210 OFFCURVE",
"107 1138 OFFCURVE",
"89 1023 CURVE SMOOTH",
"73 925 OFFCURVE",
"73 794 OFFCURVE",
"73 650 CURVE SMOOTH",
"73 448 OFFCURVE",
"81 283 OFFCURVE",
"107 169 CURVE SMOOTH",
"133 53 OFFCURVE",
"186 -12 OFFCURVE",
"288 -12 CURVE SMOOTH"
);
},
{
closed = 1;
nodes = (
"240 52 OFFCURVE",
"195 94 OFFCURVE",
"174 179 CURVE SMOOTH",
"146 289 OFFCURVE",
"140 471 OFFCURVE",
"140 732 CURVE SMOOTH",
"140 840 OFFCURVE",
"143 943 OFFCURVE",
"157 1019 CURVE SMOOTH",
"172 1097 OFFCURVE",
"198 1148 OFFCURVE",
"243 1148 CURVE SMOOTH",
"744 1148 OFFCURVE",
"1088 832 OFFCURVE",
"1088 615 CURVE SMOOTH",
"1088 357 OFFCURVE",
"820 52 OFFCURVE",
"304 52 CURVE SMOOTH"
);
}
);
width = 1210;
}
);
leftKerningGroup = H;
leftMetricsKey = H;
rightKerningGroup = O;
rightMetricsKey = P;
unicode = 0044;
},
{
glyphname = Eth;
lastChange = "2020-01-31 16:00:40 +0000";
layers = (
{
anchors = (
{
name = _center;
position = "{257, 583}";
}
);
components = (
{
name = D;
}
);
layerId = "307B7D8E-54CC-4996-A0B0-7E3456408354";
paths = (
{
closed = 1;
nodes = (
"303 447 OFFCURVE",
"522 459 OFFCURVE",
"577 476 CURVE SMOOTH",
"627 492 OFFCURVE",
"667 523 OFFCURVE",
"681 586 CURVE SMOOTH",
"698 655 OFFCURVE",
"666 692 OFFCURVE",
"610 715 CURVE SMOOTH",
"538 744 OFFCURVE",
"422 746 OFFCURVE",
"277 742 CURVE SMOOTH",
"144 735 OFFCURVE",
"112 730 OFFCURVE",
"13 713 CURVE SMOOTH",
"-55 702 OFFCURVE",
"-103 657 OFFCURVE",
"-123 572 CURVE SMOOTH",
"-148 465 OFFCURVE",
"43 445 OFFCURVE",
"163 446 CURVE SMOOTH"
);
}
);
width = 1487;
},
{
anchors = (
{
name = _center;
position = "{303, 583}";
}
);
components = (
{
name = D;
}
);
layerId = "AE979D1C-FDDA-49FD-8CD9-3E2A42843A18";
paths = (
{
closed = 1;
nodes = (
"279 560 OFFCURVE",
"429 558 OFFCURVE",
"466 560 CURVE SMOOTH",
"496 562 OFFCURVE",
"521 568 OFFCURVE",
"523 588 CURVE SMOOTH",
"526 605 OFFCURVE",
"494 617 OFFCURVE",
"452 617 CURVE SMOOTH",
"399 617 OFFCURVE",
"321 620 OFFCURVE",
"221 620 CURVE SMOOTH",
"129 618 OFFCURVE",
"102 620 OFFCURVE",
"37 617 CURVE SMOOTH",
"-7 615 OFFCURVE",
"-35 610 OFFCURVE",
"-38 583 CURVE SMOOTH",
"-43 548 OFFCURVE",
"97 560 OFFCURVE",
"182 560 CURVE SMOOTH"
);
}
);
width = 1262;
},
{
anchors = (
{
name = _center;
position = "{178, 583}";
}
);
components = (
{
name = D;
}
);
layerId = "A5079BDB-9783-4F5E-864F-267B8C6F09C1";
paths = (
{
closed = 1;
nodes = (
"208 560 OFFCURVE",
"360 555 OFFCURVE",
"395 560 CURVE SMOOTH",
"425 563 OFFCURVE",
"447 568 OFFCURVE",
"444 588 CURVE SMOOTH",
"441 608 OFFCURVE",
"412 610 OFFCURVE",
"368 612 CURVE SMOOTH",
"312 613 OFFCURVE",
"231 620 OFFCURVE",
"130 620 CURVE SMOOTH",
"39 618 OFFCURVE",
"-24 617 OFFCURVE",
"-85 613 CURVE SMOOTH",
"-125 612 OFFCURVE",
"-154 610 OFFCURVE",
"-150 583 CURVE SMOOTH",
"-143 548 OFFCURVE",
"-8 560 OFFCURVE",
"110 560 CURVE SMOOTH"
);
}
);
width = 1262;
},
{
anchors = (
{
name = _center;
position = "{223, 583}";
}
);
components = (
{
name = D;
}
);
layerId = "AE80B40C-E5A8-4B5C-A94B-22B98FE5A19F";
paths = (
{
closed = 1;
nodes = (
"265 447 OFFCURVE",
"478 459 OFFCURVE",
"523 476 CURVE SMOOTH",
"564 492 OFFCURVE",
"589 523 OFFCURVE",
"572 586 CURVE SMOOTH",
"552 655 OFFCURVE",
"500 693 OFFCURVE",
"432 716 CURVE SMOOTH",
"345 745 OFFCURVE",
"228 753 OFFCURVE",
"86 742 CURVE SMOOTH",
"7 735 OFFCURVE",
"-87 747 OFFCURVE",
"-168 713 CURVE SMOOTH",
"-222 692 OFFCURVE",
"-250 657 OFFCURVE",
"-227 572 CURVE SMOOTH",
"-197 465 OFFCURVE",
"5 445 OFFCURVE",
"125 446 CURVE SMOOTH"
);
}
);
width = 1487;
},
{
anchors = (
{
name = _center;
position = "{227, 583}";
}
);
components = (
{
name = D;
}
);
layerId = "6282282A-FA3F-4DEE-9DB6-5D5B2A6C152F";
paths = (
{
closed = 1;
nodes = (
"275 457 OFFCURVE",
"490 469 OFFCURVE",
"541 486 CURVE SMOOTH",
"587 501 OFFCURVE",
"620 523 OFFCURVE",
"620 586 CURVE SMOOTH",
"620 655 OFFCURVE",
"578 684 OFFCURVE",
"516 707 CURVE SMOOTH",
"438 736 OFFCURVE",
"322 736 OFFCURVE",
"178 732 CURVE SMOOTH",
"46 728 OFFCURVE",
"8 728 OFFCURVE",
"-82 703 CURVE SMOOTH",
"-143 687 OFFCURVE",
"-182 657 OFFCURVE",
"-182 572 CURVE SMOOTH",
"-182 465 OFFCURVE",
"15 455 OFFCURVE",
"134 456 CURVE SMOOTH"
);
}
);
width = 1487;
},
{
anchors = (
{
name = _center;
position = "{263, 583}";
}
);
components = (
{
name = D;
}
);
layerId = "4C364951-5780-4BC6-AB35-57CC8C56127C";
paths = (
{
closed = 1;
nodes = (
"267 560 OFFCURVE",
"418 557 OFFCURVE",
"453 562 CURVE SMOOTH",
"485 565 OFFCURVE",
"508 568 OFFCURVE",
"508 588 CURVE SMOOTH",
"508 610 OFFCURVE",
"478 610 OFFCURVE",
"437 613 CURVE SMOOTH",
"382 618 OFFCURVE",
"301 620 OFFCURVE",
"200 620 CURVE SMOOTH",
"109 618 OFFCURVE",
"47 618 OFFCURVE",
"-16 613 CURVE SMOOTH",
"-58 610 OFFCURVE",
"-86 610 OFFCURVE",
"-86 583 CURVE SMOOTH",
"-86 548 OFFCURVE",
"51 560 OFFCURVE",
"170 560 CURVE SMOOTH"
);
}
);
width = 1262;
}
);
leftKerningGroup = H;
rightKerningGroup = O;
unicode = 00D0;
},
{
glyphname = E;
lastChange = "2020-04-19 03:04:41 +0000";
layers = (
{
anchors = (
{
name = bottom;
position = "{525, -17}";
},
{
name = ogonek;
position = "{1050, 17}";
},
{
name = top;
position = "{827, 1290}";
},
{
name = topleft;
position = "{187, 1167}";
}
);
layerId = "307B7D8E-54CC-4996-A0B0-7E3456408354";
paths = (
{
closed = 1;
nodes = (
"742 -43 OFFCURVE",
"1053 -11 OFFCURVE",
"1053 242 CURVE SMOOTH",
"1053 323 OFFCURVE",
"1020 367 OFFCURVE",
"924 367 CURVE SMOOTH",
"877 367 OFFCURVE",
"805 370 OFFCURVE",
"752 370 CURVE SMOOTH",
"655 370 OFFCURVE",
"625 385 OFFCURVE",
"625 409 CURVE SMOOTH",
"625 436 OFFCURVE",
"655 459 OFFCURVE",
"708 459 CURVE SMOOTH",
"746 459 OFFCURVE",
"793 458 OFFCURVE",
"860 458 CURVE SMOOTH",
"1003 458 OFFCURVE",
"1088 554 OFFCURVE",
"1088 693 CURVE SMOOTH",
"1088 767 OFFCURVE",
"1054 810 OFFCURVE",
"971 810 CURVE SMOOTH",
"911 810 OFFCURVE",
"880 802 OFFCURVE",
"817 802 CURVE SMOOTH",
"786 802 OFFCURVE",
"776 825 OFFCURVE",
"776 848 CURVE SMOOTH",
"776 889 OFFCURVE",
"808 907 OFFCURVE",
"846 910 CURVE SMOOTH",
"916 915 OFFCURVE",
"1041 925 OFFCURVE",
"1112 945 CURVE SMOOTH",
"1186 966 OFFCURVE",
"1260 1021 OFFCURVE",
"1260 1115 CURVE SMOOTH",
"1260 1227 OFFCURVE",
"1121 1263 OFFCURVE",
"929 1263 CURVE SMOOTH",
"533 1263 OFFCURVE",
"230 1126 OFFCURVE",
"134 618 CURVE SMOOTH",
"116 523 OFFCURVE",
"105 437 OFFCURVE",
"105 362 CURVE SMOOTH",
"105 52 OFFCURVE",
"269 -43 OFFCURVE",
"492 -43 CURVE SMOOTH"
);
}
);
width = 1177;
},
{
anchors = (
{
name = bottom;
position = "{537, -55}";
},
{
name = ogonek;
position = "{918, -33}";
},
{
name = top;
position = "{760, 1213}";
},
{
name = topleft;
position = "{227, 1167}";
}
);
layerId = "AE979D1C-FDDA-49FD-8CD9-3E2A42843A18";
paths = (
{
closed = 1;
nodes = (
"613 -73 OFFCURVE",
"925 -33 OFFCURVE",
"925 10 CURVE SMOOTH",
"925 25 OFFCURVE",
"920 30 OFFCURVE",
"892 30 CURVE SMOOTH",
"813 30 OFFCURVE",
"600 -3 OFFCURVE",
"390 -3 CURVE SMOOTH",
"213 -3 OFFCURVE",
"153 63 OFFCURVE",
"153 203 CURVE SMOOTH",
"153 472 OFFCURVE",
"193 607 OFFCURVE",
"343 607 CURVE SMOOTH",
"420 607 OFFCURVE",
"717 603 OFFCURVE",
"780 603 CURVE SMOOTH",
"845 603 OFFCURVE",
"883 608 OFFCURVE",
"883 633 CURVE SMOOTH",
"883 653 OFFCURVE",
"867 658 OFFCURVE",
"765 658 CURVE SMOOTH",
"725 658 OFFCURVE",
"550 657 OFFCURVE",
"500 657 CURVE SMOOTH",
"305 657 OFFCURVE",
"253 660 OFFCURVE",
"253 717 CURVE SMOOTH",
"253 940 OFFCURVE",
"407 1182 OFFCURVE",
"748 1182 CURVE SMOOTH",
"962 1182 OFFCURVE",
"1112 1150 OFFCURVE",
"1172 1150 CURVE SMOOTH",
"1190 1150 OFFCURVE",
"1203 1153 OFFCURVE",
"1203 1168 CURVE SMOOTH",
"1203 1203 OFFCURVE",
"988 1232 OFFCURVE",
"793 1232 CURVE SMOOTH",
"447 1232 OFFCURVE",
"270 1132 OFFCURVE",
"168 705 CURVE SMOOTH",
"127 530 OFFCURVE",
"83 328 OFFCURVE",
"83 195 CURVE SMOOTH",
"83 20 OFFCURVE",
"153 -73 OFFCURVE",
"372 -73 CURVE SMOOTH"
);
}
);
width = 1110;
},
{
anchors = (
{
name = bottom;
position = "{747, -55}";
},
{
name = ogonek;
position = "{1117, -33}";
},
{
name = top;
position = "{337, 1213}";
},
{
name = topleft;
position = "{-173, 1167}";
}
);
layerId = "A5079BDB-9783-4F5E-864F-267B8C6F09C1";
paths = (
{
closed = 1;
nodes = (
"788 -73 OFFCURVE",
"1083 -35 OFFCURVE",
"1083 8 CURVE SMOOTH",
"1083 25 OFFCURVE",
"1070 30 OFFCURVE",
"1040 30 CURVE SMOOTH",
"962 30 OFFCURVE",
"760 -3 OFFCURVE",
"533 -3 CURVE SMOOTH",
"255 -3 OFFCURVE",
"125 362 OFFCURVE",
"125 543 CURVE SMOOTH",
"125 602 OFFCURVE",
"177 607 OFFCURVE",
"382 607 CURVE SMOOTH",
"458 607 OFFCURVE",
"602 603 OFFCURVE",
"665 603 CURVE SMOOTH",
"723 603 OFFCURVE",
"753 607 OFFCURVE",
"753 627 CURVE SMOOTH",
"753 652 OFFCURVE",
"735 658 OFFCURVE",
"623 658 CURVE SMOOTH",
"583 658 OFFCURVE",
"305 657 OFFCURVE",
"255 657 CURVE SMOOTH",
"95 657 OFFCURVE",
"45 708 OFFCURVE",
"45 947 CURVE SMOOTH",
"45 1128 OFFCURVE",
"165 1182 OFFCURVE",
"443 1182 CURVE SMOOTH",
"603 1182 OFFCURVE",
"743 1150 OFFCURVE",
"803 1150 CURVE SMOOTH",
"820 1150 OFFCURVE",
"828 1153 OFFCURVE",
"828 1163 CURVE SMOOTH",
"828 1213 OFFCURVE",
"560 1232 OFFCURVE",
"427 1232 CURVE SMOOTH",
"107 1232 OFFCURVE",
"-30 1173 OFFCURVE",
"-30 952 CURVE SMOOTH",
"-30 835 OFFCURVE",
"35 510 OFFCURVE",
"83 355 CURVE SMOOTH",
"172 78 OFFCURVE",
"273 -73 OFFCURVE",
"550 -73 CURVE SMOOTH"
);
}
);
width = 1110;
},
{
anchors = (
{
name = bottom;
position = "{727, -17}";
},
{
name = ogonek;
position = "{1233, 17}";
},
{
name = top;
position = "{377, 1290}";
},
{
name = topleft;
position = "{-203, 1167}";
}
);
layerId = "AE80B40C-E5A8-4B5C-A94B-22B98FE5A19F";
paths = (
{
closed = 1;
nodes = (
"881 -43 OFFCURVE",
"1141 -15 OFFCURVE",
"1141 175 CURVE SMOOTH",
"1141 296 OFFCURVE",
"1067 367 OFFCURVE",
"936 367 CURVE SMOOTH",
"889 367 OFFCURVE",
"815 370 OFFCURVE",
"762 370 CURVE SMOOTH",
"649 370 OFFCURVE",
"614 390 OFFCURVE",
"614 422 CURVE SMOOTH",
"614 443 OFFCURVE",
"633 459 OFFCURVE",
"678 459 CURVE SMOOTH",
"716 459 OFFCURVE",
"763 458 OFFCURVE",
"830 458 CURVE SMOOTH",
"909 458 OFFCURVE",
"973 492 OFFCURVE",
"973 588 CURVE SMOOTH",
"973 711 OFFCURVE",
"905 810 OFFCURVE",
"779 810 CURVE SMOOTH",
"719 810 OFFCURVE",
"692 802 OFFCURVE",
"629 802 CURVE SMOOTH",
"589 802 OFFCURVE",
"560 826 OFFCURVE",
"560 860 CURVE SMOOTH",
"560 886 OFFCURVE",
"579 908 OFFCURVE",
"608 910 CURVE SMOOTH",
"676 915 OFFCURVE",
"785 924 OFFCURVE",
"848 941 CURVE SMOOTH",
"899 955 OFFCURVE",
"938 993 OFFCURVE",
"938 1063 CURVE SMOOTH",
"938 1230 OFFCURVE",
"736 1263 OFFCURVE",
"537 1263 CURVE SMOOTH",
"211 1263 OFFCURVE",
"-1 1168 OFFCURVE",
"-1 853 CURVE SMOOTH",
"-1 713 OFFCURVE",
"51 506 OFFCURVE",
"105 362 CURVE SMOOTH",
"214 71 OFFCURVE",
"451 -43 OFFCURVE",
"674 -43 CURVE SMOOTH"
);
}
);
width = 1177;
},
{
anchors = (
{
name = bottom;
position = "{595, -17}";
},
{
name = ogonek;
position = "{1112, 17}";
},
{
name = top;
position = "{595, 1290}";
},
{
name = topleft;
position = "{-17, 1167}";
}
);
layerId = "6282282A-FA3F-4DEE-9DB6-5D5B2A6C152F";
paths = (
{
closed = 1;
nodes = (
"780 -43 OFFCURVE",
"1085 -12 OFFCURVE",
"1085 205 CURVE SMOOTH",
"1085 308 OFFCURVE",
"1030 367 OFFCURVE",
"920 367 CURVE SMOOTH",
"873 367 OFFCURVE",
"800 370 OFFCURVE",
"747 370 CURVE SMOOTH",
"645 370 OFFCURVE",
"610 386 OFFCURVE",
"610 413 CURVE SMOOTH",
"610 438 OFFCURVE",
"632 459 OFFCURVE",
"683 459 CURVE SMOOTH",
"721 459 OFFCURVE",
"768 458 OFFCURVE",
"835 458 CURVE SMOOTH",
"930 458 OFFCURVE",
"1015 507 OFFCURVE",
"1015 655 CURVE SMOOTH",
"1015 752 OFFCURVE",
"962 810 OFFCURVE",
"865 810 CURVE SMOOTH",
"805 810 OFFCURVE",
"776 802 OFFCURVE",
"713 802 CURVE SMOOTH",
"673 802 OFFCURVE",
"659 840 OFFCURVE",
"659 867 CURVE SMOOTH",
"659 892 OFFCURVE",
"688 908 OFFCURVE",
"717 910 CURVE SMOOTH",
"786 915 OFFCURVE",
"908 925 OFFCURVE",
"975 945 CURVE SMOOTH",
"1038 964 OFFCURVE",
"1087 1013 OFFCURVE",
"1087 1092 CURVE SMOOTH",
"1087 1222 OFFCURVE",
"923 1263 OFFCURVE",
"718 1263 CURVE SMOOTH",
"322 1263 OFFCURVE",
"72 1122 OFFCURVE",
"72 618 CURVE SMOOTH",
"72 523 OFFCURVE",
"77 437 OFFCURVE",
"88 362 CURVE SMOOTH",
"131 72 OFFCURVE",
"340 -43 OFFCURVE",
"563 -43 CURVE SMOOTH"
);
}
);
width = 1176;
},
{
anchors = (
{
name = bottom;
position = "{625, -55}";
},
{
name = ogonek;
position = "{1002, -33}";
},
{
name = top;
position = "{555, 1213}";
},
{
name = topleft;
position = "{33, 1167}";
}
);
layerId = "4C364951-5780-4BC6-AB35-57CC8C56127C";
paths = (
{
closed = 1;
nodes = (
"708 -73 OFFCURVE",
"1002 -33 OFFCURVE",
"1002 10 CURVE SMOOTH",
"1002 25 OFFCURVE",
"992 30 OFFCURVE",
"963 30 CURVE SMOOTH",
"885 30 OFFCURVE",
"680 -3 OFFCURVE",
"470 -3 CURVE SMOOTH",
"202 -3 OFFCURVE",
"162 150 OFFCURVE",
"162 488 CURVE SMOOTH",
"162 600 OFFCURVE",
"182 607 OFFCURVE",
"438 607 CURVE SMOOTH",
"515 607 OFFCURVE",
"657 603 OFFCURVE",
"720 603 CURVE SMOOTH",
"785 603 OFFCURVE",
"815 608 OFFCURVE",
"815 633 CURVE SMOOTH",
"815 653 OFFCURVE",
"793 658 OFFCURVE",
"692 658 CURVE SMOOTH",
"652 658 OFFCURVE",
"477 657 OFFCURVE",
"427 657 CURVE SMOOTH",
"177 657 OFFCURVE",
"163 662 OFFCURVE",
"163 777 CURVE SMOOTH",
"163 1098 OFFCURVE",
"282 1182 OFFCURVE",
"632 1182 CURVE SMOOTH",
"792 1182 OFFCURVE",
"925 1150 OFFCURVE",
"985 1150 CURVE SMOOTH",
"1003 1150 OFFCURVE",
"1013 1153 OFFCURVE",
"1013 1167 CURVE SMOOTH",
"1013 1203 OFFCURVE",
"825 1232 OFFCURVE",
"627 1232 CURVE SMOOTH",
"210 1232 OFFCURVE",
"85 1132 OFFCURVE",
"85 705 CURVE SMOOTH",
"85 572 OFFCURVE",
"85 455 OFFCURVE",
"93 355 CURVE SMOOTH",
"113 77 OFFCURVE",
"190 -73 OFFCURVE",
"467 -73 CURVE SMOOTH"
);
}
);
width = 1110;
}
);
leftKerningGroup = H;
rightKerningGroup = E;
unicode = 0045;
},
{
glyphname = F;
lastChange = "2020-04-11 20:34:19 +0000";
layers = (
{
anchors = (
{
name = bottom;
position = "{539, 0}";
},
{
name = top;
position = "{807, 1167}";
}
);
layerId = "307B7D8E-54CC-4996-A0B0-7E3456408354";
paths = (
{
closed = 1;
nodes = (
"362 -32 OFFCURVE",
"445 -5 OFFCURVE",
"500 63 CURVE SMOOTH",
"527 97 OFFCURVE",
"550 140 OFFCURVE",
"562 195 CURVE SMOOTH",
"577 262 OFFCURVE",
"605 310 OFFCURVE",
"685 318 CURVE SMOOTH",
"859 337 OFFCURVE",
"934 363 OFFCURVE",
"1002 438 CURVE SMOOTH",
"1035 477 OFFCURVE",
"1060 532 OFFCURVE",
"1060 580 CURVE SMOOTH",
"1060 608 OFFCURVE",
"1050 628 OFFCURVE",
"1032 642 CURVE SMOOTH",
"1004 662 OFFCURVE",
"917 663 OFFCURVE",
"824 663 CURVE SMOOTH",
"777 663 OFFCURVE",
"750 685 OFFCURVE",
"759 720 CURVE SMOOTH",
"762 733 OFFCURVE",
"774 757 OFFCURVE",
"785 768 CURVE SMOOTH",
"820 803 OFFCURVE",
"875 833 OFFCURVE",
"972 833 CURVE SMOOTH",
"1067 833 OFFCURVE",
"1144 835 OFFCURVE",
"1204 853 CURVE SMOOTH",
"1284 878 OFFCURVE",
"1334 948 OFFCURVE",
"1334 1025 CURVE SMOOTH",
"1334 1177 OFFCURVE",
"1077 1267 OFFCURVE",
"859 1267 CURVE SMOOTH",
"677 1267 OFFCURVE",
"519 1220 OFFCURVE",
"395 1130 CURVE SMOOTH",
"157 955 OFFCURVE",
"47 625 OFFCURVE",
"47 312 CURVE SMOOTH",
"47 242 OFFCURVE",
"55 177 OFFCURVE",
"72 123 CURVE SMOOTH",
"102 28 OFFCURVE",
"159 -32 OFFCURVE",
"279 -32 CURVE SMOOTH"
);
}
);
width = 1224;
},
{
anchors = (
{
name = bottom;
position = "{409, 0}";
},
{
name = top;
position = "{678, 1167}";
}
);
layerId = "AE979D1C-FDDA-49FD-8CD9-3E2A42843A18";
paths = (
{
closed = 1;
nodes = (
"126 -32 OFFCURVE",
"136 -23 OFFCURVE",
"148 25 CURVE SMOOTH",
"164 97 OFFCURVE",
"199 450 OFFCURVE",
"209 498 CURVE SMOOTH",
"216 528 OFFCURVE",
"231 543 OFFCURVE",
"251 547 CURVE SMOOTH",
"464 583 OFFCURVE",
"659 585 OFFCURVE",
"728 585 CURVE SMOOTH",
"756 585 OFFCURVE",
"796 587 OFFCURVE",
"796 617 CURVE SMOOTH",
"796 637 OFFCURVE",
"761 638 OFFCURVE",
"698 638 CURVE SMOOTH",
"603 638 OFFCURVE",
"434 627 OFFCURVE",
"269 607 CURVE SMOOTH",
"239 603 OFFCURVE",
"231 632 OFFCURVE",
"231 667 CURVE SMOOTH",
"231 815 OFFCURVE",
"314 1042 OFFCURVE",
"434 1135 CURVE SMOOTH",
"513 1197 OFFCURVE",
"619 1227 OFFCURVE",
"761 1227 CURVE SMOOTH",
"889 1227 OFFCURVE",
"999 1202 OFFCURVE",
"1054 1202 CURVE SMOOTH",
"1078 1202 OFFCURVE",
"1093 1205 OFFCURVE",
"1093 1220 CURVE SMOOTH",
"1093 1252 OFFCURVE",
"944 1280 OFFCURVE",
"788 1280 CURVE SMOOTH",
"649 1280 OFFCURVE",
"516 1263 OFFCURVE",
"409 1187 CURVE SMOOTH",
"308 1113 OFFCURVE",
"221 987 OFFCURVE",
"176 793 CURVE SMOOTH",
"149 677 OFFCURVE",
"83 215 OFFCURVE",
"83 92 CURVE SMOOTH",
"83 48 OFFCURVE",
"83 -32 OFFCURVE",
"108 -32 CURVE SMOOTH"
);
}
);
width = 943;
},
{
anchors = (
{
name = bottom;
position = "{595, 0}";
},
{
name = top;
position = "{282, 1167}";
}
);
layerId = "A5079BDB-9783-4F5E-864F-267B8C6F09C1";
paths = (
{
closed = 1;
nodes = (
"303 -32 OFFCURVE",
"310 -28 OFFCURVE",
"310 -12 CURVE SMOOTH",
"310 53 OFFCURVE",
"145 462 OFFCURVE",
"145 517 CURVE SMOOTH",
"145 535 OFFCURVE",
"153 543 OFFCURVE",
"168 547 CURVE SMOOTH",
"480 598 OFFCURVE",
"643 577 OFFCURVE",
"668 588 CURVE SMOOTH",
"678 593 OFFCURVE",
"683 602 OFFCURVE",
"683 608 CURVE SMOOTH",
"683 637 OFFCURVE",
"630 638 OFFCURVE",
"572 638 CURVE SMOOTH",
"477 638 OFFCURVE",
"313 625 OFFCURVE",
"155 608 CURVE SMOOTH",
"83 602 OFFCURVE",
"32 842 OFFCURVE",
"32 972 CURVE SMOOTH",
"32 1040 OFFCURVE",
"45 1095 OFFCURVE",
"78 1135 CURVE SMOOTH",
"128 1198 OFFCURVE",
"223 1227 OFFCURVE",
"365 1227 CURVE SMOOTH",
"493 1227 OFFCURVE",
"613 1202 OFFCURVE",
"668 1202 CURVE SMOOTH",
"688 1202 OFFCURVE",
"700 1205 OFFCURVE",
"700 1213 CURVE SMOOTH",
"700 1257 OFFCURVE",
"478 1280 OFFCURVE",
"365 1280 CURVE SMOOTH",
"227 1280 OFFCURVE",
"100 1263 OFFCURVE",
"30 1187 CURVE SMOOTH",
"-15 1138 OFFCURVE",
"-42 1067 OFFCURVE",
"-42 967 CURVE SMOOTH",
"-42 785 OFFCURVE",
"132 277 OFFCURVE",
"210 92 CURVE SMOOTH",
"228 48 OFFCURVE",
"263 -32 OFFCURVE",
"292 -32 CURVE SMOOTH"
);
}
);
width = 947;
},
{
anchors = (
{
name = bottom;
position = "{733, 0}";
},
{
name = top;
position = "{420, 1167}";
}
);
layerId = "AE80B40C-E5A8-4B5C-A94B-22B98FE5A19F";
paths = (
{
closed = 1;
nodes = (
"580 -32 OFFCURVE",
"655 17 OFFCURVE",
"655 125 CURVE SMOOTH",
"655 173 OFFCURVE",
"640 210 OFFCURVE",
"640 247 CURVE SMOOTH",
"640 285 OFFCURVE",
"657 312 OFFCURVE",
"710 318 CURVE SMOOTH",
"877 337 OFFCURVE",
"942 362 OFFCURVE",
"973 438 CURVE SMOOTH",
"982 457 OFFCURVE",
"985 477 OFFCURVE",
"985 498 CURVE SMOOTH",
"985 550 OFFCURVE",
"962 613 OFFCURVE",
"910 642 CURVE SMOOTH",
"872 663 OFFCURVE",
"785 663 OFFCURVE",
"692 663 CURVE SMOOTH",
"638 663 OFFCURVE",
"598 692 OFFCURVE",
"598 737 CURVE SMOOTH",
"598 748 OFFCURVE",
"600 760 OFFCURVE",
"603 768 CURVE SMOOTH",
"618 805 OFFCURVE",
"663 833 OFFCURVE",
"760 833 CURVE SMOOTH",
"855 833 OFFCURVE",
"932 835 OFFCURVE",
"982 853 CURVE SMOOTH",
"1025 868 OFFCURVE",
"1050 897 OFFCURVE",
"1050 943 CURVE SMOOTH",
"1050 1153 OFFCURVE",
"690 1267 OFFCURVE",
"447 1267 CURVE SMOOTH",
"265 1267 OFFCURVE",
"130 1220 OFFCURVE",
"47 1130 CURVE SMOOTH",
"-22 1058 OFFCURVE",
"-55 957 OFFCURVE",
"-55 830 CURVE SMOOTH",
"-55 612 OFFCURVE",
"53 293 OFFCURVE",
"187 123 CURVE SMOOTH",
"262 28 OFFCURVE",
"347 -32 OFFCURVE",
"467 -32 CURVE SMOOTH"
);
}
);
width = 1237;
},
{
anchors = (
{
name = bottom;
position = "{631, 0}";
},
{
name = top;
position = "{631, 1167}";
}
);
layerId = "6282282A-FA3F-4DEE-9DB6-5D5B2A6C152F";
paths = (
{
closed = 1;
nodes = (
"466 -32 OFFCURVE",
"542 -5 OFFCURVE",
"582 63 CURVE SMOOTH",
"602 97 OFFCURVE",
"614 140 OFFCURVE",
"614 195 CURVE SMOOTH",
"614 262 OFFCURVE",
"631 310 OFFCURVE",
"707 318 CURVE SMOOTH",
"877 338 OFFCURVE",
"947 362 OFFCURVE",
"997 438 CURVE SMOOTH",
"1017 470 OFFCURVE",
"1027 505 OFFCURVE",
"1027 540 CURVE SMOOTH",
"1027 588 OFFCURVE",
"1011 623 OFFCURVE",
"981 642 CURVE SMOOTH",
"947 662 OFFCURVE",
"861 663 OFFCURVE",
"767 663 CURVE SMOOTH",
"721 663 OFFCURVE",
"689 685 OFFCURVE",
"689 720 CURVE SMOOTH",
"689 733 OFFCURVE",
"696 757 OFFCURVE",
"704 768 CURVE SMOOTH",
"727 805 OFFCURVE",
"779 833 OFFCURVE",
"876 833 CURVE SMOOTH",
"971 833 OFFCURVE",
"1047 835 OFFCURVE",
"1102 853 CURVE SMOOTH",
"1162 873 OFFCURVE",
"1196 913 OFFCURVE",
"1196 990 CURVE SMOOTH",
"1196 1163 OFFCURVE",
"896 1267 OFFCURVE",
"662 1267 CURVE SMOOTH",
"481 1267 OFFCURVE",
"334 1220 OFFCURVE",
"231 1130 CURVE SMOOTH",
"104 1022 OFFCURVE",
"37 850 OFFCURVE",
"37 622 CURVE SMOOTH",
"37 445 OFFCURVE",
"67 253 OFFCURVE",
"139 123 CURVE SMOOTH",
"191 28 OFFCURVE",
"262 -32 OFFCURVE",
"382 -32 CURVE SMOOTH"
);
}
);
width = 1241;
},
{
anchors = (
{
name = bottom;
position = "{483, 0}";
},
{
name = top;
position = "{483, 1167}";
}
);
layerId = "4C364951-5780-4BC6-AB35-57CC8C56127C";
paths = (
{
closed = 1;
nodes = (
"213 -32 OFFCURVE",
"222 -23 OFFCURVE",
"222 25 CURVE SMOOTH",
"222 97 OFFCURVE",
"173 450 OFFCURVE",
"173 498 CURVE SMOOTH",
"173 528 OFFCURVE",
"185 543 OFFCURVE",
"205 547 CURVE SMOOTH",
"530 600 OFFCURVE",
"687 577 OFFCURVE",
"715 588 CURVE SMOOTH",
"728 593 OFFCURVE",
"735 603 OFFCURVE",
"735 612 CURVE SMOOTH",
"735 637 OFFCURVE",
"698 638 OFFCURVE",
"630 638 CURVE SMOOTH",
"535 638 OFFCURVE",
"370 625 OFFCURVE",
"208 607 CURVE SMOOTH",
"157 600 OFFCURVE",
"150 698 OFFCURVE",
"148 750 CURVE SMOOTH",
"142 932 OFFCURVE",
"172 1058 OFFCURVE",
"252 1135 CURVE SMOOTH",
"317 1197 OFFCURVE",
"417 1227 OFFCURVE",
"558 1227 CURVE SMOOTH",
"687 1227 OFFCURVE",
"802 1202 OFFCURVE",
"857 1202 CURVE SMOOTH",
"878 1202 OFFCURVE",
"892 1205 OFFCURVE",
"892 1217 CURVE SMOOTH",
"892 1250 OFFCURVE",
"733 1280 OFFCURVE",
"572 1280 CURVE SMOOTH",
"433 1280 OFFCURVE",
"303 1263 OFFCURVE",
"215 1187 CURVE SMOOTH",
"130 1113 OFFCURVE",
"73 987 OFFCURVE",
"73 793 CURVE SMOOTH",
"73 678 OFFCURVE",
"120 208 OFFCURVE",
"142 92 CURVE SMOOTH",
"148 48 OFFCURVE",
"167 -32 OFFCURVE",
"195 -32 CURVE SMOOTH"
);
}
);
width = 942;
}
);
leftKerningGroup = H;
leftMetricsKey = H;
rightKerningGroup = F;
unicode = 0046;
},
{
glyphname = G;
lastChange = "2020-01-31 16:00:40 +0000";
layers = (
{
anchors = (
{
name = bottom;
position = "{743, 0}";
},
{
name = top;
position = "{1042, 1298}";
}
);
layerId = "307B7D8E-54CC-4996-A0B0-7E3456408354";
paths = (
{
closed = 1;
nodes = (
"1198 -83 OFFCURVE",
"1595 27 OFFCURVE",
"1595 488 CURVE SMOOTH",
"1595 702 OFFCURVE",
"1453 807 OFFCURVE",
"1182 807 CURVE SMOOTH",
"995 807 OFFCURVE",
"793 743 OFFCURVE",
"793 553 CURVE SMOOTH",
"793 477 OFFCURVE",
"838 440 OFFCURVE",
"897 423 CURVE SMOOTH",
"962 405 OFFCURVE",
"988 390 OFFCURVE",
"988 368 CURVE SMOOTH",
"988 337 OFFCURVE",
"947 335 OFFCURVE",
"905 335 CURVE SMOOTH",
"748 335 OFFCURVE",
"675 407 OFFCURVE",
"675 520 CURVE SMOOTH",
"675 728 OFFCURVE",
"868 857 OFFCURVE",
"1083 885 CURVE SMOOTH",
"1182 898 OFFCURVE",
"1267 917 OFFCURVE",
"1333 943 CURVE SMOOTH",
"1418 978 OFFCURVE",
"1470 1032 OFFCURVE",
"1470 1110 CURVE SMOOTH",
"1470 1250 OFFCURVE",
"1260 1260 OFFCURVE",
"1083 1260 CURVE SMOOTH",
"502 1260 OFFCURVE",
"72 1035 OFFCURVE",
"72 460 CURVE SMOOTH",
"72 102 OFFCURVE",
"333 -83 OFFCURVE",
"717 -83 CURVE SMOOTH"
);
}
);
width = 1635;
},
{
anchors = (
{
name = bottom;
position = "{570, 0}";
},
{
name = top;
position = "{853, 1233}";
}
);
layerId = "AE979D1C-FDDA-49FD-8CD9-3E2A42843A18";
paths = (
{
closed = 1;
nodes = (
"895 -73 OFFCURVE",
"1213 98 OFFCURVE",
"1213 417 CURVE SMOOTH",
"1213 570 OFFCURVE",
"1078 662 OFFCURVE",
"848 662 CURVE SMOOTH",
"703 662 OFFCURVE",
"665 660 OFFCURVE",
"665 625 CURVE SMOOTH",
"665 593 OFFCURVE",
"727 593 OFFCURVE",
"858 593 CURVE SMOOTH",
"1050 593 OFFCURVE",
"1145 515 OFFCURVE",
"1145 400 CURVE SMOOTH",
"1145 145 OFFCURVE",
"857 0 OFFCURVE",
"563 0 CURVE SMOOTH",
"300 0 OFFCURVE",
"157 120 OFFCURVE",
"157 387 CURVE SMOOTH",
"157 807 OFFCURVE",
"430 1163 OFFCURVE",
"835 1163 CURVE SMOOTH",
"1112 1163 OFFCURVE",
"1177 1068 OFFCURVE",
"1208 1068 CURVE SMOOTH",
"1227 1068 OFFCURVE",
"1242 1088 OFFCURVE",
"1242 1100 CURVE SMOOTH",
"1242 1152 OFFCURVE",
"1055 1228 OFFCURVE",
"858 1228 CURVE SMOOTH",
"370 1228 OFFCURVE",
"87 867 OFFCURVE",
"87 382 CURVE SMOOTH",
"87 100 OFFCURVE",
"223 -73 OFFCURVE",
"545 -73 CURVE SMOOTH"
);
}
);
width = 1290;
},
{
anchors = (
{
name = bottom;
position = "{752, 0}";
},
{
name = top;
position = "{422, 1233}";
}
);
layerId = "A5079BDB-9783-4F5E-864F-267B8C6F09C1";
paths = (
{
closed = 1;
nodes = (
"1012 -73 OFFCURVE",
"1227 33 OFFCURVE",
"1227 262 CURVE SMOOTH",
"1227 527 OFFCURVE",
"1025 662 OFFCURVE",
"732 662 CURVE SMOOTH",
"595 662 OFFCURVE",
"548 660 OFFCURVE",
"548 632 CURVE SMOOTH",
"548 593 OFFCURVE",
"618 593 OFFCURVE",
"758 593 CURVE SMOOTH",
"983 593 OFFCURVE",
"1160 483 OFFCURVE",
"1160 273 CURVE SMOOTH",
"1160 90 OFFCURVE",
"982 0 OFFCURVE",
"737 0 CURVE SMOOTH",
"322 0 OFFCURVE",
"60 303 OFFCURVE",
"60 723 CURVE SMOOTH",
"60 1020 OFFCURVE",
"250 1163 OFFCURVE",
"487 1163 CURVE SMOOTH",
"775 1163 OFFCURVE",
"857 1068 OFFCURVE",
"888 1068 CURVE SMOOTH",
"902 1068 OFFCURVE",
"908 1080 OFFCURVE",
"908 1090 CURVE SMOOTH",
"908 1163 OFFCURVE",
"655 1228 OFFCURVE",
"493 1228 CURVE SMOOTH",
"258 1228 OFFCURVE",
"-15 1093 OFFCURVE",
"-15 733 CURVE SMOOTH",
"-15 280 OFFCURVE",
"273 -73 OFFCURVE",
"718 -73 CURVE SMOOTH"
);
}
);
width = 1290;
},
{
anchors = (
{
name = bottom;
position = "{925, 0}";
},
{
name = top;
position = "{577, 1298}";
}
);
layerId = "AE80B40C-E5A8-4B5C-A94B-22B98FE5A19F";
paths = (
{
closed = 1;
nodes = (
"1258 -83 OFFCURVE",
"1577 2 OFFCURVE",
"1577 320 CURVE SMOOTH",
"1577 660 OFFCURVE",
"1345 807 OFFCURVE",
"980 807 CURVE SMOOTH",
"825 807 OFFCURVE",
"683 762 OFFCURVE",
"683 647 CURVE SMOOTH",
"683 545 OFFCURVE",
"758 452 OFFCURVE",
"872 423 CURVE SMOOTH",
"957 402 OFFCURVE",
"990 387 OFFCURVE",
"990 358 CURVE SMOOTH",
"990 337 OFFCURVE",
"957 335 OFFCURVE",
"920 335 CURVE SMOOTH",
"723 335 OFFCURVE",
"575 467 OFFCURVE",
"575 650 CURVE SMOOTH",
"575 783 OFFCURVE",
"692 863 OFFCURVE",
"845 885 CURVE SMOOTH",
"937 898 OFFCURVE",
"1015 917 OFFCURVE",
"1068 943 CURVE SMOOTH",
"1115 967 OFFCURVE",
"1143 1000 OFFCURVE",
"1143 1045 CURVE SMOOTH",
"1143 1233 OFFCURVE",
"933 1260 OFFCURVE",
"738 1260 CURVE SMOOTH",
"352 1260 OFFCURVE",
"-33 1145 OFFCURVE",
"-33 728 CURVE SMOOTH",
"-33 227 OFFCURVE",
"333 -83 OFFCURVE",
"858 -83 CURVE SMOOTH"
);
}
);
width = 1635;
},
{
anchors = (
{
name = bottom;
position = "{818, 0}";
},
{
name = top;
position = "{818, 1298}";
}
);
layerId = "6282282A-FA3F-4DEE-9DB6-5D5B2A6C152F";
paths = (
{
closed = 1;
nodes = (
"1227 -83 OFFCURVE",
"1577 3 OFFCURVE",
"1577 425 CURVE SMOOTH",
"1577 697 OFFCURVE",
"1377 807 OFFCURVE",
"1078 807 CURVE SMOOTH",
"908 807 OFFCURVE",
"742 752 OFFCURVE",
"742 610 CURVE SMOOTH",
"742 493 OFFCURVE",
"805 443 OFFCURVE",
"882 423 CURVE SMOOTH",
"957 403 OFFCURVE",
"987 388 OFFCURVE",
"987 363 CURVE SMOOTH",
"987 337 OFFCURVE",
"948 335 OFFCURVE",
"910 335 CURVE SMOOTH",
"723 335 OFFCURVE",
"630 438 OFFCURVE",
"630 592 CURVE SMOOTH",
"630 760 OFFCURVE",
"782 860 OFFCURVE",
"962 885 CURVE SMOOTH",
"1057 900 OFFCURVE",
"1138 917 OFFCURVE",
"1198 943 CURVE SMOOTH",
"1262 973 OFFCURVE",
"1300 1013 OFFCURVE",
"1300 1072 CURVE SMOOTH",
"1300 1248 OFFCURVE",
"1100 1260 OFFCURVE",
"908 1260 CURVE SMOOTH",
"483 1260 OFFCURVE",
"28 1135 OFFCURVE",
"28 597 CURVE SMOOTH",
"28 135 OFFCURVE",
"355 -83 OFFCURVE",
"785 -83 CURVE SMOOTH"
);
}
);
width = 1635;
},
{
anchors = (
{
name = bottom;
position = "{645, 0}";
},
{
name = top;
position = "{645, 1233}";
}
);
layerId = "4C364951-5780-4BC6-AB35-57CC8C56127C";
paths = (
{
closed = 1;
nodes = (
"975 -73 OFFCURVE",
"1205 63 OFFCURVE",
"1205 360 CURVE SMOOTH",
"1205 563 OFFCURVE",
"1048 662 OFFCURVE",
"792 662 CURVE SMOOTH",
"647 662 OFFCURVE",
"600 660 OFFCURVE",
"600 625 CURVE SMOOTH",
"600 593 OFFCURVE",
"670 593 OFFCURVE",
"802 593 CURVE SMOOTH",
"1018 593 OFFCURVE",
"1138 495 OFFCURVE",
"1138 353 CURVE SMOOTH",
"1138 115 OFFCURVE",
"922 0 OFFCURVE",
"643 0 CURVE SMOOTH",
"320 0 OFFCURVE",
"123 165 OFFCURVE",
"123 592 CURVE SMOOTH",
"123 960 OFFCURVE",
"365 1163 OFFCURVE",
"647 1163 CURVE SMOOTH",
"923 1163 OFFCURVE",
"1010 1068 OFFCURVE",
"1042 1068 CURVE SMOOTH",
"1057 1068 OFFCURVE",
"1068 1083 OFFCURVE",
"1068 1095 CURVE SMOOTH",
"1068 1145 OFFCURVE",
"877 1228 OFFCURVE",
"672 1228 CURVE SMOOTH",
"363 1228 OFFCURVE",
"50 1047 OFFCURVE",
"50 597 CURVE SMOOTH",
"50 173 OFFCURVE",
"245 -73 OFFCURVE",
"642 -73 CURVE SMOOTH"
);
}
);
width = 1290;
}
);
leftKerningGroup = O;
rightKerningGroup = G;
unicode = 0047;
},
{
glyphname = H;
lastChange = "2020-04-12 01:00:35 +0000";
layers = (
{
anchors = (
{
name = bottom;
position = "{735, 0}";
},
{
name = center;
position = "{868, 583}";
},
{
name = top;
position = "{1030, 1283}";
},
{
name = topleft;
position = "{227, 1167}";
}
);
layerId = "307B7D8E-54CC-4996-A0B0-7E3456408354";
paths = (
{
closed = 1;
nodes = (
"1245 -43 OFFCURVE",
"1352 45 OFFCURVE",
"1430 192 CURVE SMOOTH",
"1497 317 OFFCURVE",
"1562 482 OFFCURVE",
"1605 670 CURVE SMOOTH",
"1633 792 OFFCURVE",
"1649 904 OFFCURVE",
"1648 997 CURVE SMOOTH",
"1648 1171 OFFCURVE",
"1595 1263 OFFCURVE",
"1417 1263 CURVE SMOOTH",
"1323 1263 OFFCURVE",
"1252 1227 OFFCURVE",
"1208 1177 CURVE SMOOTH",
"1162 1123 OFFCURVE",
"1142 1070 OFFCURVE",
"1113 992 CURVE SMOOTH",
"1085 912 OFFCURVE",
"1058 877 OFFCURVE",
"1030 853 CURVE SMOOTH",
"990 822 OFFCURVE",
"967 817 OFFCURVE",
"905 817 CURVE SMOOTH",
"868 817 OFFCURVE",
"843 828 OFFCURVE",
"825 853 CURVE SMOOTH",
"810 875 OFFCURVE",
"798 915 OFFCURVE",
"798 965 CURVE SMOOTH",
"798 1025 OFFCURVE",
"798 1093 OFFCURVE",
"788 1122 CURVE SMOOTH",
"764 1191 OFFCURVE",
"722 1238 OFFCURVE",
"593 1238 CURVE SMOOTH",
"420 1238 OFFCURVE",
"295 1115 OFFCURVE",
"205 945 CURVE SMOOTH",
"138 820 OFFCURVE",
"93 668 OFFCURVE",
"60 520 CURVE SMOOTH",
"39 425 OFFCURVE",
"24 334 OFFCURVE",
"23 255 CURVE SMOOTH",
"23 78 OFFCURVE",
"97 -23 OFFCURVE",
"265 -23 CURVE SMOOTH",
"440 -23 OFFCURVE",
"518 20 OFFCURVE",
"555 135 CURVE SMOOTH",
"577 202 OFFCURVE",
"595 250 OFFCURVE",
"630 285 CURVE SMOOTH",
"647 302 OFFCURVE",
"665 317 OFFCURVE",
"685 328 CURVE SMOOTH",
"717 347 OFFCURVE",
"752 358 OFFCURVE",
"803 358 CURVE SMOOTH",
"852 358 OFFCURVE",
"878 352 OFFCURVE",
"905 332 CURVE SMOOTH",
"918 322 OFFCURVE",
"928 300 OFFCURVE",
"928 275 CURVE SMOOTH",
"928 238 OFFCURVE",
"903 150 OFFCURVE",
"903 90 CURVE SMOOTH",
"903 -14 OFFCURVE",
"1000 -43 OFFCURVE",
"1098 -43 CURVE SMOOTH"
);
}
);
width = 1618;
},
{
anchors = (
{
name = bottom;
position = "{430, 0}";
},
{
name = center;
position = "{563, 583}";
},
{
name = top;
position = "{788, 1267}";
},
{
name = topleft;
position = "{-78, 1167}";
}
);
layerId = "AE979D1C-FDDA-49FD-8CD9-3E2A42843A18";
paths = (
{
closed = 1;
nodes = (
"912 -10 OFFCURVE",
"926 3 OFFCURVE",
"950 82 CURVE SMOOTH",
"984 197 OFFCURVE",
"1064 478 OFFCURVE",
"1107 663 CURVE SMOOTH",
"1150 848 OFFCURVE",
"1223 1186 OFFCURVE",
"1223 1237 CURVE SMOOTH",
"1223 1257 OFFCURVE",
"1218 1263 OFFCURVE",
"1210 1263 CURVE SMOOTH",
"1188 1263 OFFCURVE",
"1165 1227 OFFCURVE",
"1135 1097 CURVE SMOOTH",
"1100 947 OFFCURVE",
"1067 808 OFFCURVE",
"1055 767 CURVE SMOOTH",
"1041 718 OFFCURVE",
"1027 707 OFFCURVE",
"1002 707 CURVE SMOOTH",
"965 707 OFFCURVE",
"852 722 OFFCURVE",
"640 722 CURVE SMOOTH",
"498 722 OFFCURVE",
"353 717 OFFCURVE",
"293 717 CURVE SMOOTH",
"264 717 OFFCURVE",
"255 726 OFFCURVE",
"255 747 CURVE SMOOTH",
"255 798 OFFCURVE",
"350 1158 OFFCURVE",
"350 1215 CURVE SMOOTH",
"350 1232 OFFCURVE",
"345 1238 OFFCURVE",
"337 1238 CURVE SMOOTH",
"313 1238 OFFCURVE",
"292 1200 OFFCURVE",
"257 1083 CURVE SMOOTH",
"229 990 OFFCURVE",
"187 847 OFFCURVE",
"142 645 CURVE SMOOTH",
"44 214 OFFCURVE",
"8 48 OFFCURVE",
"8 23 CURVE SMOOTH",
"8 3 OFFCURVE",
"13 -7 OFFCURVE",
"28 -7 CURVE SMOOTH",
"52 -7 OFFCURVE",
"68 12 OFFCURVE",
"102 158 CURVE SMOOTH",
"154 387 OFFCURVE",
"182 505 OFFCURVE",
"195 568 CURVE SMOOTH",
"207 624 OFFCURVE",
"232 637 OFFCURVE",
"253 643 CURVE SMOOTH",
"297 657 OFFCURVE",
"327 657 OFFCURVE",
"618 657 CURVE SMOOTH",
"867 657 OFFCURVE",
"962 645 OFFCURVE",
"987 638 CURVE SMOOTH",
"1001 635 OFFCURVE",
"1012 630 OFFCURVE",
"1012 603 CURVE SMOOTH",
"1012 531 OFFCURVE",
"878 94 OFFCURVE",
"878 18 CURVE SMOOTH",
"878 -2 OFFCURVE",
"885 -10 OFFCURVE",
"895 -10 CURVE SMOOTH"
);
}
);
width = 1162;
},
{
anchors = (
{
name = bottom;
position = "{612, 0}";
},
{
name = center;
position = "{455, 583}";
},
{
name = top;
position = "{338, 1267}";
},
{
name = topleft;
position = "{-146, 1167}";
}
);
layerId = "A5079BDB-9783-4F5E-864F-267B8C6F09C1";
paths = (
{
closed = 1;
nodes = (
"1084 -10 OFFCURVE",
"1092 -4 OFFCURVE",
"1092 22 CURVE SMOOTH",
"1092 77 OFFCURVE",
"1006 530 OFFCURVE",
"975 663 CURVE SMOOTH",
"930 857 OFFCURVE",
"879 1063 OFFCURVE",
"865 1110 CURVE SMOOTH",
"831 1230 OFFCURVE",
"820 1263 OFFCURVE",
"802 1263 CURVE SMOOTH",
"790 1263 OFFCURVE",
"783 1253 OFFCURVE",
"783 1225 CURVE SMOOTH",
"783 1130 OFFCURVE",
"880 802 OFFCURVE",
"880 738 CURVE SMOOTH",
"880 713 OFFCURVE",
"870 707 OFFCURVE",
"850 707 CURVE SMOOTH",
"813 707 OFFCURVE",
"693 722 OFFCURVE",
"482 722 CURVE SMOOTH",
"340 722 OFFCURVE",
"198 717 OFFCURVE",
"138 717 CURVE SMOOTH",
"95 717 OFFCURVE",
"85 738 OFFCURVE",
"72 785 CURVE SMOOTH",
"62 820 OFFCURVE",
"34 937 OFFCURVE",
"2 1073 CURVE SMOOTH",
"-28 1202 OFFCURVE",
"-42 1238 OFFCURVE",
"-62 1238 CURVE SMOOTH",
"-75 1238 OFFCURVE",
"-81 1227 OFFCURVE",
"-80 1197 CURVE SMOOTH",
"-80 1113 OFFCURVE",
"-23 825 OFFCURVE",
"17 645 CURVE SMOOTH",
"43 527 OFFCURVE",
"109 265 OFFCURVE",
"137 153 CURVE SMOOTH",
"158 65 OFFCURVE",
"177 -7 OFFCURVE",
"202 -7 CURVE SMOOTH",
"215 -7 OFFCURVE",
"224 -1 OFFCURVE",
"223 30 CURVE SMOOTH",
"223 126 OFFCURVE",
"102 559 OFFCURVE",
"102 600 CURVE SMOOTH",
"102 628 OFFCURVE",
"117 638 OFFCURVE",
"132 643 CURVE SMOOTH",
"168 657 OFFCURVE",
"198 657 OFFCURVE",
"490 657 CURVE SMOOTH",
"738 657 OFFCURVE",
"837 644 OFFCURVE",
"865 638 CURVE SMOOTH",
"888 633 OFFCURVE",
"907 625 OFFCURVE",
"923 553 CURVE SMOOTH",
"947 452 OFFCURVE",
"994 225 OFFCURVE",
"1032 58 CURVE SMOOTH",
"1044 7 OFFCURVE",
"1058 -10 OFFCURVE",
"1073 -10 CURVE SMOOTH"
);
}
);
width = 1162;
},
{
anchors = (
{
name = bottom;
position = "{917, 0}";
},
{
name = center;
position = "{760, 583}";
},
{
name = top;
position = "{573, 1283}";
},
{
name = topleft;
position = "{-173, 1167}";
}
);
layerId = "AE80B40C-E5A8-4B5C-A94B-22B98FE5A19F";
paths = (
{
closed = 1;
nodes = (
"1473 -43 OFFCURVE",
"1520 78 OFFCURVE",
"1520 280 CURVE SMOOTH",
"1520 390 OFFCURVE",
"1505 523 OFFCURVE",
"1472 670 CURVE SMOOTH",
"1435 832 OFFCURVE",
"1382 977 OFFCURVE",
"1317 1083 CURVE SMOOTH",
"1248 1195 OFFCURVE",
"1155 1263 OFFCURVE",
"1007 1263 CURVE SMOOTH",
"881 1263 OFFCURVE",
"825 1203 OFFCURVE",
"825 1078 CURVE SMOOTH",
"825 1050 OFFCURVE",
"833 977 OFFCURVE",
"833 940 CURVE SMOOTH",
"833 895 OFFCURVE",
"823 872 OFFCURVE",
"810 853 CURVE SMOOTH",
"785 822 OFFCURVE",
"763 817 OFFCURVE",
"702 817 CURVE SMOOTH",
"665 817 OFFCURVE",
"637 828 OFFCURVE",
"605 853 CURVE SMOOTH",
"578 873 OFFCURVE",
"555 915 OFFCURVE",
"528 965 CURVE SMOOTH",
"508 1002 OFFCURVE",
"470 1083 OFFCURVE",
"445 1122 CURVE SMOOTH",
"397 1195 OFFCURVE",
"325 1238 OFFCURVE",
"197 1238 CURVE SMOOTH",
"8 1238 OFFCURVE",
"-56 1092 OFFCURVE",
"-56 898 CURVE SMOOTH",
"-56 783 OFFCURVE",
"-36 650 OFFCURVE",
"-7 520 CURVE SMOOTH",
"22 392 OFFCURVE",
"63 270 OFFCURVE",
"123 173 CURVE SMOOTH",
"197 55 OFFCURVE",
"302 -23 OFFCURVE",
"452 -23 CURVE SMOOTH",
"608 -23 OFFCURVE",
"671 11 OFFCURVE",
"672 100 CURVE SMOOTH",
"672 113 OFFCURVE",
"660 192 OFFCURVE",
"660 217 CURVE SMOOTH",
"660 265 OFFCURVE",
"673 297 OFFCURVE",
"708 328 CURVE SMOOTH",
"730 348 OFFCURVE",
"762 358 OFFCURVE",
"813 358 CURVE SMOOTH",
"870 358 OFFCURVE",
"897 350 OFFCURVE",
"935 325 CURVE SMOOTH",
"972 302 OFFCURVE",
"987 253 OFFCURVE",
"1005 190 CURVE SMOOTH",
"1017 150 OFFCURVE",
"1037 90 OFFCURVE",
"1053 53 CURVE SMOOTH",
"1093 -33 OFFCURVE",
"1197 -43 OFFCURVE",
"1295 -43 CURVE SMOOTH"
);
}
);
width = 1618;
},
{
anchors = (
{
name = bottom;
position = "{827, 0}";
},
{
name = center;
position = "{827, 583}";
},
{
name = top;
position = "{827, 1283}";
},
{
name = topleft;
position = "{50, 1167}";
}
);
layerId = "6282282A-FA3F-4DEE-9DB6-5D5B2A6C152F";
paths = (
{
closed = 1;
nodes = (
"1354 -43 OFFCURVE",
"1438 46 OFFCURVE",
"1483 192 CURVE SMOOTH",
"1523 317 OFFCURVE",
"1548 482 OFFCURVE",
"1548 670 CURVE SMOOTH",
"1548 832 OFFCURVE",
"1529 977 OFFCURVE",
"1490 1083 CURVE SMOOTH",
"1448 1195 OFFCURVE",
"1370 1263 OFFCURVE",
"1222 1263 CURVE SMOOTH",
"1128 1263 OFFCURVE",
"1067 1226 OFFCURVE",
"1035 1177 CURVE SMOOTH",
"1000 1123 OFFCURVE",
"992 1070 OFFCURVE",
"982 992 CURVE SMOOTH",
"972 912 OFFCURVE",
"953 877 OFFCURVE",
"930 853 CURVE SMOOTH",
"898 822 OFFCURVE",
"875 817 OFFCURVE",
"813 817 CURVE SMOOTH",
"777 817 OFFCURVE",
"750 828 OFFCURVE",
"725 853 CURVE SMOOTH",
"704 875 OFFCURVE",
"688 916 OFFCURVE",
"673 965 CURVE SMOOTH",
"661 1002 OFFCURVE",
"644 1084 OFFCURVE",
"627 1122 CURVE SMOOTH",
"593 1193 OFFCURVE",
"533 1238 OFFCURVE",
"404 1238 CURVE SMOOTH",
"232 1238 OFFCURVE",
"136 1116 OFFCURVE",
"85 945 CURVE SMOOTH",
"48 820 OFFCURVE",
"37 668 OFFCURVE",
"37 520 CURVE SMOOTH",
"37 392 OFFCURVE",
"49 269 OFFCURVE",
"87 173 CURVE SMOOTH",
"133 55 OFFCURVE",
"218 -23 OFFCURVE",
"369 -23 CURVE SMOOTH",
"543 -23 OFFCURVE",
"607 20 OFFCURVE",
"622 135 CURVE SMOOTH",
"631 202 OFFCURVE",
"640 248 OFFCURVE",
"662 283 CURVE SMOOTH",
"674 301 OFFCURVE",
"691 317 OFFCURVE",
"707 328 CURVE SMOOTH",
"733 348 OFFCURVE",
"767 358 OFFCURVE",
"818 358 CURVE SMOOTH",
"875 358 OFFCURVE",
"900 350 OFFCURVE",
"933 325 CURVE SMOOTH",
"964 302 OFFCURVE",
"969 254 OFFCURVE",
"972 190 CURVE SMOOTH",
"974 150 OFFCURVE",
"980 90 OFFCURVE",
"988 53 CURVE SMOOTH",
"1008 -33 OFFCURVE",
"1108 -43 OFFCURVE",
"1207 -43 CURVE SMOOTH"
);
}
);
width = 1618;
},
{
anchors = (
{
name = bottom;
position = "{505, 0}";
},
{
name = center;
position = "{505, 583}";
},
{
name = top;
position = "{572, 1267}";
},
{
name = topleft;
position = "{-4, 1167}";
}
);
layerId = "4C364951-5780-4BC6-AB35-57CC8C56127C";
paths = (
{
closed = 1;
nodes = (
"995 -10 OFFCURVE",
"1006 3 OFFCURVE",
"1012 82 CURVE SMOOTH",
"1020 197 OFFCURVE",
"1035 478 OFFCURVE",
"1035 663 CURVE SMOOTH",
"1035 857 OFFCURVE",
"1030 1063 OFFCURVE",
"1028 1110 CURVE SMOOTH",
"1023 1230 OFFCURVE",
"1018 1263 OFFCURVE",
"1000 1263 CURVE SMOOTH",
"978 1263 OFFCURVE",
"963 1227 OFFCURVE",
"963 1097 CURVE SMOOTH",
"963 947 OFFCURVE",
"963 808 OFFCURVE",
"960 766 CURVE SMOOTH",
"957 718 OFFCURVE",
"945 707 OFFCURVE",
"920 707 CURVE SMOOTH",
"883 707 OFFCURVE",
"767 722 OFFCURVE",
"555 722 CURVE SMOOTH",
"413 722 OFFCURVE",
"271 717 OFFCURVE",
"211 717 CURVE SMOOTH",
"166 717 OFFCURVE",
"163 739 OFFCURVE",
"160 786 CURVE SMOOTH",
"158 821 OFFCURVE",
"157 937 OFFCURVE",
"157 1073 CURVE SMOOTH",
"157 1202 OFFCURVE",
"152 1238 OFFCURVE",
"132 1238 CURVE SMOOTH",
"108 1238 OFFCURVE",
"97 1200 OFFCURVE",
"88 1083 CURVE SMOOTH",
"82 990 OFFCURVE",
"73 847 OFFCURVE",
"73 645 CURVE SMOOTH",
"73 527 OFFCURVE",
"78 265 OFFCURVE",
"78 153 CURVE SMOOTH",
"78 65 OFFCURVE",
"80 -7 OFFCURVE",
"107 -7 CURVE SMOOTH",
"130 -7 OFFCURVE",
"147 12 OFFCURVE",
"147 158 CURVE SMOOTH",
"147 387 OFFCURVE",
"145 505 OFFCURVE",
"145 568 CURVE SMOOTH",
"145 623 OFFCURVE",
"167 637 OFFCURVE",
"187 643 CURVE SMOOTH",
"227 655 OFFCURVE",
"257 657 OFFCURVE",
"548 657 CURVE SMOOTH",
"797 657 OFFCURVE",
"893 645 OFFCURVE",
"920 638 CURVE SMOOTH",
"942 633 OFFCURVE",
"958 625 OFFCURVE",
"958 553 CURVE SMOOTH",
"958 452 OFFCURVE",
"952 225 OFFCURVE",
"952 58 CURVE SMOOTH",
"952 7 OFFCURVE",
"963 -10 OFFCURVE",
"978 -10 CURVE SMOOTH"
);
}
);
width = 1162;
}
);
leftKerningGroup = H;
rightKerningGroup = H;
unicode = 0048;
},
{
glyphname = Hbar;
lastChange = "2020-01-31 16:00:40 +0000";
layers = (
{
components = (
{
name = H;
}
);
layerId = "307B7D8E-54CC-4996-A0B0-7E3456408354";
paths = (
{
closed = 1;
nodes = (
"870 950 OFFCURVE",
"1475 963 OFFCURVE",
"1635 983 CURVE SMOOTH",
"1732 995 OFFCURVE",
"1803 1010 OFFCURVE",
"1812 1037 CURVE SMOOTH",
"1818 1058 OFFCURVE",
"1807 1077 OFFCURVE",
"1780 1088 CURVE SMOOTH",
"1727 1112 OFFCURVE",
"1630 1125 OFFCURVE",
"1508 1128 CURVE SMOOTH",
"1388 1132 OFFCURVE",
"875 1115 OFFCURVE",
"657 1115 CURVE SMOOTH",
"533 1115 OFFCURVE",
"412 1110 OFFCURVE",
"350 1102 CURVE SMOOTH",
"263 1090 OFFCURVE",
"195 1075 OFFCURVE",
"187 1042 CURVE SMOOTH",
"177 1002 OFFCURVE",
"240 980 OFFCURVE",
"335 967 CURVE SMOOTH",
"430 953 OFFCURVE",
"562 950 OFFCURVE",
"688 950 CURVE SMOOTH"
);
}
);
width = 1618;
},
{
components = (
{
name = H;
}
);
layerId = "AE979D1C-FDDA-49FD-8CD9-3E2A42843A18";
paths = (
{
closed = 1;
nodes = (
"345 1003 OFFCURVE",
"440 1007 OFFCURVE",
"530 1007 CURVE SMOOTH",
"660 1007 OFFCURVE",
"1088 1005 OFFCURVE",
"1203 1013 CURVE SMOOTH",
"1270 1018 OFFCURVE",
"1323 1028 OFFCURVE",
"1327 1050 CURVE SMOOTH",
"1328 1060 OFFCURVE",
"1322 1065 OFFCURVE",
"1302 1070 CURVE SMOOTH",
"1262 1080 OFFCURVE",
"1152 1075 OFFCURVE",
"1065 1075 CURVE SMOOTH",
"980 1075 OFFCURVE",
"652 1078 OFFCURVE",
"495 1075 CURVE SMOOTH",
"407 1073 OFFCURVE",
"320 1073 OFFCURVE",
"278 1070 CURVE SMOOTH",
"200 1063 OFFCURVE",
"170 1057 OFFCURVE",
"165 1042 CURVE SMOOTH",
"158 1023 OFFCURVE",
"190 1010 OFFCURVE",
"275 1007 CURVE SMOOTH"
);
}
);
width = 1162;
},
{
components = (
{
name = H;
}
);
layerId = "A5079BDB-9783-4F5E-864F-267B8C6F09C1";
paths = (
{
closed = 1;
nodes = (
"48 1003 OFFCURVE",
"143 1007 OFFCURVE",
"233 1007 CURVE SMOOTH",
"363 1007 OFFCURVE",
"792 1005 OFFCURVE",
"900 1013 CURVE SMOOTH",
"967 1018 OFFCURVE",
"1010 1028 OFFCURVE",
"1007 1050 CURVE SMOOTH",
"1005 1060 OFFCURVE",
"992 1065 OFFCURVE",
"968 1070 CURVE SMOOTH",
"922 1080 OFFCURVE",
"818 1075 OFFCURVE",
"732 1075 CURVE SMOOTH",
"643 1075 OFFCURVE",
"315 1078 OFFCURVE",
"162 1075 CURVE SMOOTH",
"73 1073 OFFCURVE",
"-13 1073 OFFCURVE",
"-55 1070 CURVE SMOOTH",
"-130 1063 OFFCURVE",
"-157 1057 OFFCURVE",
"-152 1042 CURVE SMOOTH",
"-145 1023 OFFCURVE",
"-110 1012 OFFCURVE",
"-22 1007 CURVE SMOOTH"
);
}
);
width = 1162;
},
{
components = (
{
name = H;
}
);
layerId = "AE80B40C-E5A8-4B5C-A94B-22B98FE5A19F";
paths = (
{
closed = 1;
nodes = (
"502 950 OFFCURVE",
"1097 963 OFFCURVE",
"1248 983 CURVE SMOOTH",
"1340 995 OFFCURVE",
"1403 1010 OFFCURVE",
"1395 1037 CURVE SMOOTH",
"1388 1058 OFFCURVE",
"1372 1077 OFFCURVE",
"1337 1088 CURVE SMOOTH",
"1268 1112 OFFCURVE",
"1167 1125 OFFCURVE",
"1045 1128 CURVE SMOOTH",
"922 1132 OFFCURVE",
"417 1115 OFFCURVE",
"200 1115 CURVE SMOOTH",
"77 1115 OFFCURVE",
"-43 1110 OFFCURVE",
"-100 1102 CURVE SMOOTH",
"-180 1090 OFFCURVE",
"-240 1075 OFFCURVE",
"-232 1042 CURVE SMOOTH",
"-222 1002 OFFCURVE",
"-145 980 OFFCURVE",
"-43 967 CURVE SMOOTH",
"60 953 OFFCURVE",
"193 950 OFFCURVE",
"320 950 CURVE SMOOTH"
);
}
);
width = 1618;
},
{
components = (
{
name = H;
}
);
layerId = "6282282A-FA3F-4DEE-9DB6-5D5B2A6C152F";
paths = (
{
closed = 1;
nodes = (
"677 949 OFFCURVE",
"1277 965 OFFCURVE",
"1434 983 CURVE SMOOTH",
"1527 994 OFFCURVE",
"1595 1011 OFFCURVE",
"1595 1037 CURVE SMOOTH",
"1595 1058 OFFCURVE",
"1581 1076 OFFCURVE",
"1551 1089 CURVE SMOOTH",
"1490 1114 OFFCURVE",
"1389 1126 OFFCURVE",
"1268 1128 CURVE SMOOTH",
"1147 1131 OFFCURVE",
"638 1116 OFFCURVE",
"420 1115 CURVE SMOOTH",
"297 1114 OFFCURVE",
"175 1110 OFFCURVE",
"117 1101 CURVE SMOOTH",
"33 1089 OFFCURVE",
"-30 1074 OFFCURVE",
"-30 1042 CURVE SMOOTH",
"-30 1002 OFFCURVE",
"40 979 OFFCURVE",
"138 966 CURVE SMOOTH",
"236 953 OFFCURVE",
"369 949 OFFCURVE",
"495 949 CURVE SMOOTH"
);
}
);
width = 1618;
},
{
components = (
{
name = H;
}
);
layerId = "4C364951-5780-4BC6-AB35-57CC8C56127C";
paths = (
{
closed = 1;
nodes = (
"188 1003 OFFCURVE",
"283 1007 OFFCURVE",
"373 1007 CURVE SMOOTH",
"503 1007 OFFCURVE",
"932 1005 OFFCURVE",
"1043 1013 CURVE SMOOTH",
"1110 1018 OFFCURVE",
"1158 1028 OFFCURVE",
"1158 1050 CURVE SMOOTH",
"1158 1060 OFFCURVE",
"1148 1065 OFFCURVE",
"1127 1070 CURVE SMOOTH",
"1083 1082 OFFCURVE",
"977 1075 OFFCURVE",
"890 1075 CURVE SMOOTH",
"803 1077 OFFCURVE",
"475 1077 OFFCURVE",
"320 1075 CURVE SMOOTH",
"232 1075 OFFCURVE",
"145 1073 OFFCURVE",
"103 1070 CURVE SMOOTH",
"27 1063 OFFCURVE",
"-2 1057 OFFCURVE",
"-2 1042 CURVE SMOOTH",
"-2 1023 OFFCURVE",
"32 1012 OFFCURVE",
"118 1007 CURVE SMOOTH"
);
}
);
width = 1162;
}
);
leftKerningGroup = H;
rightKerningGroup = H;
unicode = 0126;
},
{
glyphname = I;
lastChange = "2020-04-12 00:59:36 +0000";
layers = (
{
anchors = (
{
name = bottom;
position = "{182, 0}";
},
{
name = ogonek;
position = "{328, 10}";
},
{
name = top;
position = "{182, 1167}";
},
{
name = topleft;
position = "{20, 1167}";
}
);
layerId = "4C364951-5780-4BC6-AB35-57CC8C56127C";
paths = (
{
closed = 1;
nodes = (
"182 -7 OFFCURVE",
"195 8 OFFCURVE",
"198 95 CURVE SMOOTH",
"203 228 OFFCURVE",
"204 797 OFFCURVE",
"204 998 CURVE SMOOTH",
"204 1075 OFFCURVE",
"203 1178 OFFCURVE",
"175 1178 CURVE SMOOTH",
"158 1178 OFFCURVE",
"149 1168 OFFCURVE",
"145 1064 CURVE SMOOTH",
"135 791 OFFCURVE",
"135 146 OFFCURVE",
"135 72 CURVE SMOOTH",
"135 30 OFFCURVE",
"141 -7 OFFCURVE",
"161 -7 CURVE SMOOTH"
);
}
);
width = 364;
},
{
anchors = (
{
name = bottom;
position = "{402, 0}";
},
{
name = ogonek;
position = "{684, 10}";
},
{
name = top;
position = "{402, 1167}";
},
{
name = topleft;
position = "{70, 1167}";
}
);
layerId = "6282282A-FA3F-4DEE-9DB6-5D5B2A6C152F";
paths = (
{
closed = 1;
nodes = (
"625 -24 OFFCURVE",
"684 204 OFFCURVE",
"684 566 CURVE SMOOTH",
"684 731 OFFCURVE",
"680 888 OFFCURVE",
"644 1020 CURVE SMOOTH",
"615 1127 OFFCURVE",
"495 1189 OFFCURVE",
"407 1189 CURVE SMOOTH",
"290 1189 OFFCURVE",
"149 1110 OFFCURVE",
"115 940 CURVE SMOOTH",
"77 748 OFFCURVE",
"70 594 OFFCURVE",
"70 366 CURVE SMOOTH",
"70 150 OFFCURVE",
"169 -24 OFFCURVE",
"372 -24 CURVE SMOOTH"
);
}
);
width = 774;
},
{
anchors = (
{
name = bottom;
position = "{278, 0}";
},
{
name = ogonek;
position = "{422, 10}";
},
{
name = top;
position = "{9, 1167}";
},
{
name = topleft;
position = "{-153, 1167}";
}
);
layerId = "A5079BDB-9783-4F5E-864F-267B8C6F09C1";
paths = (
{
closed = 1;
nodes = (
"287 -7 OFFCURVE",
"296 -1 OFFCURVE",
"296 26 CURVE SMOOTH",
"296 91 OFFCURVE",
"158 688 OFFCURVE",
"85 998 CURVE SMOOTH",
"67 1075 OFFCURVE",
"42 1178 OFFCURVE",
"14 1178 CURVE SMOOTH",
"4 1178 OFFCURVE",
"-2 1175 OFFCURVE",
"-2 1154 CURVE SMOOTH",
"-2 1073 OFFCURVE",
"180 287 OFFCURVE",
"230 72 CURVE SMOOTH",
"239 30 OFFCURVE",
"254 -7 OFFCURVE",
"274 -7 CURVE SMOOTH"
);
}
);
width = 364;
},
{
anchors = (
{
name = bottom;
position = "{448, 0}";
},
{
name = ogonek;
position = "{728, 10}";
},
{
name = top;
position = "{179, 1167}";
},
{
name = topleft;
position = "{-153, 1167}";
}
);
layerId = "AE80B40C-E5A8-4B5C-A94B-22B98FE5A19F";
paths = (
{
closed = 1;
nodes = (
"635 -24 OFFCURVE",
"696 71 OFFCURVE",
"696 236 CURVE SMOOTH",
"696 425 OFFCURVE",
"595 836 OFFCURVE",
"503 1020 CURVE SMOOTH",
"449 1127 OFFCURVE",
"315 1189 OFFCURVE",
"227 1189 CURVE SMOOTH",
"110 1189 OFFCURVE",
"-13 1110 OFFCURVE",
"-8 940 CURVE SMOOTH",
"-1 748 OFFCURVE",
"27 594 OFFCURVE",
"80 366 CURVE SMOOTH",
"130 150 OFFCURVE",
"269 -24 OFFCURVE",
"472 -24 CURVE SMOOTH"
);
}
);
width = 774;
},
{
anchors = (
{
name = bottom;
position = "{86, 0}";
},
{
name = ogonek;
position = "{234, 10}";
},
{
name = top;
position = "{355, 1167}";
},
{
name = topleft;
position = "{193, 1167}";
}
);
layerId = "AE979D1C-FDDA-49FD-8CD9-3E2A42843A18";
paths = (
{
closed = 1;
nodes = (
"89 -7 OFFCURVE",
"106 8 OFFCURVE",
"129 95 CURVE SMOOTH",
"179 281 OFFCURVE",
"369 1083 OFFCURVE",
"369 1148 CURVE SMOOTH",
"369 1166 OFFCURVE",
"365 1178 OFFCURVE",
"356 1178 CURVE SMOOTH",
"339 1178 OFFCURVE",
"327 1168 OFFCURVE",
"299 1064 CURVE SMOOTH",
"246 865 OFFCURVE",
"53 69 OFFCURVE",
"53 21 CURVE SMOOTH",
"53 4 OFFCURVE",
"57 -7 OFFCURVE",
"68 -7 CURVE SMOOTH"
);
}
);
width = 364;
},
{
anchors = (
{
name = bottom;
position = "{256, 0}";
},
{
name = ogonek;
position = "{540, 10}";
},
{
name = top;
position = "{525, 1167}";
},
{
name = topleft;
position = "{193, 1167}";
}
);
layerId = "307B7D8E-54CC-4996-A0B0-7E3456408354";
paths = (
{
closed = 1;
nodes = (
"525 -24 OFFCURVE",
"637 204 OFFCURVE",
"720 566 CURVE SMOOTH",
"755 718 OFFCURVE",
"786 863 OFFCURVE",
"786 988 CURVE SMOOTH",
"786 1110 OFFCURVE",
"705 1189 OFFCURVE",
"587 1189 CURVE SMOOTH",
"470 1189 OFFCURVE",
"311 1110 OFFCURVE",
"238 940 CURVE SMOOTH",
"154 746 OFFCURVE",
"43 381 OFFCURVE",
"43 230 CURVE SMOOTH",
"43 81 OFFCURVE",
"114 -24 OFFCURVE",
"272 -24 CURVE SMOOTH"
);
}
);
width = 774;
}
);
leftKerningGroup = H;
rightKerningGroup = H;
unicode = 0049;
},
{
glyphname = I.ss01;
lastChange = "2020-04-11 15:31:27 +0000";
layers = (
{
anchors = (
{
name = bottom;
position = "{498, 0}";
},
{
name = ogonek;
position = "{958, 17}";
},
{
name = top;
position = "{807, 1267}";
},
{
name = topleft;
position = "{227, 1167}";
}
);
layerId = "307B7D8E-54CC-4996-A0B0-7E3456408354";
paths = (
{
closed = 1;
nodes = (
"733 -50 OFFCURVE",
"1022 -40 OFFCURVE",
"1022 208 CURVE SMOOTH",
"1022 257 OFFCURVE",
"997 282 OFFCURVE",
"957 292 CURVE SMOOTH",
"882 310 OFFCURVE",
"855 336 OFFCURVE",
"855 405 CURVE SMOOTH",
"855 453 OFFCURVE",
"867 517 OFFCURVE",
"880 578 CURVE SMOOTH",
"902 675 OFFCURVE",
"932 760 OFFCURVE",
"978 803 CURVE SMOOTH",
"1020 843 OFFCURVE",
"1082 870 OFFCURVE",
"1113 893 CURVE SMOOTH",
"1173 939 OFFCURVE",
"1212 997 OFFCURVE",
"1212 1062 CURVE SMOOTH",
"1212 1188 OFFCURVE",
"988 1228 OFFCURVE",
"787 1228 CURVE SMOOTH",
"523 1228 OFFCURVE",
"257 1192 OFFCURVE",
"257 955 CURVE SMOOTH",
"258 917 OFFCURVE",
"275 890 OFFCURVE",
"307 872 CURVE SMOOTH",
"339 853 OFFCURVE",
"362 830 OFFCURVE",
"362 793 CURVE SMOOTH",
"362 752 OFFCURVE",
"345 657 OFFCURVE",
"333 605 CURVE SMOOTH",
"322 550 OFFCURVE",
"282 423 OFFCURVE",
"255 393 CURVE SMOOTH",
"222 355 OFFCURVE",
"183 340 OFFCURVE",
"127 318 CURVE SMOOTH",
"30 281 OFFCURVE",
"-30 200 OFFCURVE",
"-30 105 CURVE SMOOTH",
"-30 -40 OFFCURVE",
"163 -50 OFFCURVE",
"442 -50 CURVE SMOOTH"
);
}
);
width = 1145;
},
{
anchors = (
{
name = bottom;
position = "{350, 0}";
},
{
name = ogonek;
position = "{757, 0}";
},
{
name = top;
position = "{615, 1240}";
},
{
name = topleft;
position = "{95, 1167}";
}
);
layerId = "AE979D1C-FDDA-49FD-8CD9-3E2A42843A18";
paths = (
{
closed = 1;
nodes = (
"588 -30 OFFCURVE",
"670 -28 OFFCURVE",
"670 -3 CURVE SMOOTH",
"670 21 OFFCURVE",
"597 29 OFFCURVE",
"525 30 CURVE SMOOTH",
"430 32 OFFCURVE",
"375 33 OFFCURVE",
"375 57 CURVE SMOOTH",
"375 77 OFFCURVE",
"375 115 OFFCURVE",
"492 625 CURVE SMOOTH",
"597 1082 OFFCURVE",
"613 1150 OFFCURVE",
"632 1170 CURVE SMOOTH",
"644 1184 OFFCURVE",
"697 1187 OFFCURVE",
"758 1187 CURVE SMOOTH",
"842 1187 OFFCURVE",
"940 1188 OFFCURVE",
"940 1214 CURVE SMOOTH",
"940 1235 OFFCURVE",
"883 1245 OFFCURVE",
"613 1245 CURVE SMOOTH",
"368 1245 OFFCURVE",
"267 1236 OFFCURVE",
"267 1205 CURVE SMOOTH",
"267 1188 OFFCURVE",
"317 1188 OFFCURVE",
"375 1188 CURVE SMOOTH",
"454 1188 OFFCURVE",
"542 1188 OFFCURVE",
"542 1148 CURVE SMOOTH",
"542 1103 OFFCURVE",
"513 980 OFFCURVE",
"428 617 CURVE SMOOTH",
"318 145 OFFCURVE",
"301 78 OFFCURVE",
"282 53 CURVE SMOOTH",
"265 32 OFFCURVE",
"198 30 OFFCURVE",
"125 28 CURVE SMOOTH",
"43 27 OFFCURVE",
"-34 21 OFFCURVE",
"-34 -3 CURVE SMOOTH",
"-34 -28 OFFCURVE",
"50 -30 OFFCURVE",
"302 -30 CURVE SMOOTH"
);
}
);
width = 843;
},
{
anchors = (
{
name = bottom;
position = "{545, 0}";
},
{
name = ogonek;
position = "{952, 0}";
},
{
name = top;
position = "{193, 1240}";
},
{
name = topleft;
position = "{-292, 1167}";
}
);
layerId = "A5079BDB-9783-4F5E-864F-267B8C6F09C1";
paths = (
{
closed = 1;
nodes = (
"770 -30 OFFCURVE",
"835 -27 OFFCURVE",
"835 -2 CURVE SMOOTH",
"835 22 OFFCURVE",
"752 29 OFFCURVE",
"680 30 CURVE SMOOTH",
"598 32 OFFCURVE",
"545 33 OFFCURVE",
"523 55 CURVE SMOOTH",
"508 70 OFFCURVE",
"498 105 OFFCURVE",
"378 625 CURVE SMOOTH",
"273 1082 OFFCURVE",
"257 1155 OFFCURVE",
"256 1167 CURVE SMOOTH",
"257 1187 OFFCURVE",
"318 1187 OFFCURVE",
"380 1187 CURVE SMOOTH",
"463 1187 OFFCURVE",
"552 1187 OFFCURVE",
"552 1211 CURVE SMOOTH",
"552 1242 OFFCURVE",
"420 1245 OFFCURVE",
"208 1245 CURVE SMOOTH",
"-26 1245 OFFCURVE",
"-122 1237 OFFCURVE",
"-122 1209 CURVE SMOOTH",
"-122 1188 OFFCURVE",
"-66 1188 OFFCURVE",
"-3 1188 CURVE SMOOTH",
"72 1188 OFFCURVE",
"150 1188 OFFCURVE",
"170 1167 CURVE SMOOTH",
"193 1142 OFFCURVE",
"214 1048 OFFCURVE",
"315 617 CURVE SMOOTH",
"407 223 OFFCURVE",
"428 112 OFFCURVE",
"428 72 CURVE SMOOTH",
"428 35 OFFCURVE",
"365 30 OFFCURVE",
"280 28 CURVE SMOOTH",
"205 27 OFFCURVE",
"135 22 OFFCURVE",
"135 0 CURVE SMOOTH",
"135 -27 OFFCURVE",
"222 -30 OFFCURVE",
"483 -30 CURVE SMOOTH"
);
}
);
width = 843;
},
{
anchors = (
{
name = bottom;
position = "{680, 0}";
},
{
name = ogonek;
position = "{1132, 17}";
},
{
name = top;
position = "{357, 1267}";
},
{
name = topleft;
position = "{-173, 1167}";
}
);
layerId = "AE80B40C-E5A8-4B5C-A94B-22B98FE5A19F";
paths = (
{
closed = 1;
nodes = (
"940 -50 OFFCURVE",
"1118 -37 OFFCURVE",
"1118 110 CURVE SMOOTH",
"1118 191 OFFCURVE",
"1082 270 OFFCURVE",
"992 292 CURVE SMOOTH",
"962 298 OFFCURVE",
"918 312 OFFCURVE",
"887 337 CURVE SMOOTH",
"840 373 OFFCURVE",
"807 478 OFFCURVE",
"785 578 CURVE SMOOTH",
"772 637 OFFCURVE",
"762 692 OFFCURVE",
"762 735 CURVE SMOOTH",
"762 800 OFFCURVE",
"789 833 OFFCURVE",
"872 893 CURVE SMOOTH",
"899 913 OFFCURVE",
"908 942 OFFCURVE",
"908 978 CURVE SMOOTH",
"908 1183 OFFCURVE",
"613 1228 OFFCURVE",
"388 1228 CURVE SMOOTH",
"137 1228 OFFCURVE",
"-40 1194 OFFCURVE",
"-40 1057 CURVE SMOOTH",
"-40 964 OFFCURVE",
"0 916 OFFCURVE",
"75 872 CURVE SMOOTH",
"112 850 OFFCURVE",
"152 820 OFFCURVE",
"167 793 CURVE SMOOTH",
"190 752 OFFCURVE",
"213 657 OFFCURVE",
"225 605 CURVE SMOOTH",
"234 563 OFFCURVE",
"248 479 OFFCURVE",
"248 428 CURVE SMOOTH",
"248 373 OFFCURVE",
"219 350 OFFCURVE",
"152 318 CURVE SMOOTH",
"105 297 OFFCURVE",
"72 263 OFFCURVE",
"72 202 CURVE SMOOTH",
"72 -44 OFFCURVE",
"353 -50 OFFCURVE",
"637 -50 CURVE SMOOTH"
);
}
);
width = 1145;
},
{
anchors = (
{
name = bottom;
position = "{573, 0}";
},
{
name = ogonek;
position = "{1030, 17}";
},
{
name = top;
position = "{590, 1267}";
},
{
name = topleft;
position = "{33, 1167}";
}
);
layerId = "6282282A-FA3F-4DEE-9DB6-5D5B2A6C152F";
paths = (
{
closed = 1;
nodes = (
"877 -50 OFFCURVE",
"1065 -33 OFFCURVE",
"1065 163 CURVE SMOOTH",
"1065 243 OFFCURVE",
"1029 279 OFFCURVE",
"975 292 CURVE SMOOTH",
"947 298 OFFCURVE",
"906 311 OFFCURVE",
"880 337 CURVE SMOOTH",
"842 373 OFFCURVE",
"833 478 OFFCURVE",
"833 578 CURVE SMOOTH",
"833 675 OFFCURVE",
"842 759 OFFCURVE",
"878 804 CURVE SMOOTH",
"912 843 OFFCURVE",
"966 871 OFFCURVE",
"993 893 CURVE SMOOTH",
"1035 928 OFFCURVE",
"1055 963 OFFCURVE",
"1055 1033 CURVE SMOOTH",
"1055 1182 OFFCURVE",
"805 1228 OFFCURVE",
"588 1228 CURVE SMOOTH",
"312 1228 OFFCURVE",
"115 1187 OFFCURVE",
"115 1014 CURVE SMOOTH",
"115 927 OFFCURVE",
"144 905 OFFCURVE",
"192 872 CURVE SMOOTH",
"223 850 OFFCURVE",
"257 820 OFFCURVE",
"265 794 CURVE SMOOTH",
"278 752 OFFCURVE",
"280 657 OFFCURVE",
"280 605 CURVE SMOOTH",
"280 550 OFFCURVE",
"270 424 OFFCURVE",
"250 393 CURVE SMOOTH",
"225 355 OFFCURVE",
"192 340 OFFCURVE",
"140 319 CURVE SMOOTH",
"76 292 OFFCURVE",
"28 245 OFFCURVE",
"28 152 CURVE SMOOTH",
"28 -38 OFFCURVE",
"233 -50 OFFCURVE",
"540 -50 CURVE SMOOTH"
);
}
);
width = 1145;
},
{
anchors = (
{
name = bottom;
position = "{425, 0}";
},
{
name = ogonek;
position = "{832, 0}";
},
{
name = top;
position = "{405, 1240}";
},
{
name = topleft;
position = "{-98, 1167}";
}
);
layerId = "4C364951-5780-4BC6-AB35-57CC8C56127C";
paths = (
{
closed = 1;
nodes = (
"673 -30 OFFCURVE",
"747 -27 OFFCURVE",
"747 5 CURVE SMOOTH",
"747 22 OFFCURVE",
"668 28 OFFCURVE",
"597 30 CURVE SMOOTH",
"515 32 OFFCURVE",
"457 35 OFFCURVE",
"440 57 CURVE SMOOTH",
"428 72 OFFCURVE",
"427 115 OFFCURVE",
"427 625 CURVE SMOOTH",
"427 1082 OFFCURVE",
"427 1150 OFFCURVE",
"440 1170 CURVE SMOOTH",
"449 1184 OFFCURVE",
"502 1187 OFFCURVE",
"564 1187 CURVE SMOOTH",
"646 1187 OFFCURVE",
"740 1188 OFFCURVE",
"740 1205 CURVE SMOOTH",
"740 1235 OFFCURVE",
"617 1245 OFFCURVE",
"405 1245 CURVE SMOOTH",
"166 1245 OFFCURVE",
"67 1237 OFFCURVE",
"67 1207 CURVE SMOOTH",
"67 1188 OFFCURVE",
"120 1188 OFFCURVE",
"180 1188 CURVE SMOOTH",
"255 1188 OFFCURVE",
"333 1188 OFFCURVE",
"348 1167 CURVE SMOOTH",
"367 1142 OFFCURVE",
"368 1049 OFFCURVE",
"368 617 CURVE SMOOTH",
"368 145 OFFCURVE",
"363 78 OFFCURVE",
"348 53 CURVE SMOOTH",
"336 32 OFFCURVE",
"270 30 OFFCURVE",
"197 28 CURVE SMOOTH",
"120 25 OFFCURVE",
"45 22 OFFCURVE",
"45 0 CURVE SMOOTH",
"45 -28 OFFCURVE",
"125 -30 OFFCURVE",
"387 -30 CURVE SMOOTH"
);
}
);
width = 843;
}
);
leftKerningGroup = H;
rightKerningGroup = H;
},
{
glyphname = J;
lastChange = "2020-01-31 18:18:14 +0000";
layers = (
{
anchors = (
{
name = bottom;
position = "{627, 0}";
},
{
name = top;
position = "{1032, 1250}";
}
);
layerId = "307B7D8E-54CC-4996-A0B0-7E3456408354";
paths = (
{
closed = 1;
nodes = (
"718 -92 OFFCURVE",
"909 -27 OFFCURVE",
"1073 112 CURVE SMOOTH",
"1278 285 OFFCURVE",
"1435 643 OFFCURVE",
"1435 905 CURVE SMOOTH",
"1435 978 OFFCURVE",
"1422 1042 OFFCURVE",
"1395 1095 CURVE SMOOTH",
"1350 1185 OFFCURVE",
"1263 1238 OFFCURVE",
"1130 1238 CURVE SMOOTH",
"853 1238 OFFCURVE",
"783 1122 OFFCURVE",
"747 963 CURVE SMOOTH",
"720 850 OFFCURVE",
"672 582 OFFCURVE",
"660 528 CURVE SMOOTH",
"642 442 OFFCURVE",
"612 423 OFFCURVE",
"595 413 CURVE SMOOTH",
"583 407 OFFCURVE",
"573 405 OFFCURVE",
"553 405 CURVE SMOOTH",
"530 405 OFFCURVE",
"513 413 OFFCURVE",
"505 435 CURVE SMOOTH",
"497 458 OFFCURVE",
"490 488 OFFCURVE",
"480 517 CURVE SMOOTH",
"463 563 OFFCURVE",
"423 587 OFFCURVE",
"322 587 CURVE SMOOTH",
"126 587 OFFCURVE",
"-8 442 OFFCURVE",
"-8 250 CURVE SMOOTH",
"-8 162 OFFCURVE",
"22 94 OFFCURVE",
"73 42 CURVE SMOOTH",
"167 -53 OFFCURVE",
"335 -92 OFFCURVE",
"527 -92 CURVE SMOOTH"
);
}
);
width = 1403;
},
{
anchors = (
{
name = bottom;
position = "{510, 0}";
},
{
name = top;
position = "{713, 1167}";
}
);
layerId = "AE979D1C-FDDA-49FD-8CD9-3E2A42843A18";
paths = (
{
closed = 1;
nodes = (
"442 -57 OFFCURVE",
"565 -30 OFFCURVE",
"665 67 CURVE SMOOTH",
"759 159 OFFCURVE",
"857 278 OFFCURVE",
"950 685 CURVE SMOOTH",
"1007 932 OFFCURVE",
"1029 1091 OFFCURVE",
"1029 1172 CURVE SMOOTH",
"1029 1209 OFFCURVE",
"1026 1238 OFFCURVE",
"1005 1238 CURVE SMOOTH",
"997 1238 OFFCURVE",
"983 1237 OFFCURVE",
"978 1215 CURVE SMOOTH",
"969 1177 OFFCURVE",
"974 1067 OFFCURVE",
"893 719 CURVE SMOOTH",
"840 490 OFFCURVE",
"771 257 OFFCURVE",
"639 128 CURVE SMOOTH",
"559 50 OFFCURVE",
"480 13 OFFCURVE",
"348 13 CURVE SMOOTH",
"175 13 OFFCURVE",
"102 108 OFFCURVE",
"102 263 CURVE SMOOTH",
"102 381 OFFCURVE",
"125 427 OFFCURVE",
"125 490 CURVE SMOOTH",
"125 514 OFFCURVE",
"118 522 OFFCURVE",
"105 522 CURVE SMOOTH",
"55 522 OFFCURVE",
"36 346 OFFCURVE",
"36 261 CURVE SMOOTH",
"36 182 OFFCURVE",
"52 108 OFFCURVE",
"91 50 CURVE SMOOTH",
"134 -14 OFFCURVE",
"227 -57 OFFCURVE",
"339 -57 CURVE SMOOTH"
);
}
);
width = 963;
},
{
anchors = (
{
name = bottom;
position = "{692, 0}";
},
{
name = top;
position = "{313, 1167}";
}
);
layerId = "A5079BDB-9783-4F5E-864F-267B8C6F09C1";
paths = (
{
closed = 1;
nodes = (
"624 -57 OFFCURVE",
"704 -27 OFFCURVE",
"759 30 CURVE SMOOTH",
"820 93 OFFCURVE",
"849 189 OFFCURVE",
"849 313 CURVE SMOOTH",
"849 517 OFFCURVE",
"709 1026 OFFCURVE",
"632 1208 CURVE SMOOTH",
"623 1229 OFFCURVE",
"612 1238 OFFCURVE",
"598 1238 CURVE SMOOTH",
"591 1238 OFFCURVE",
"580 1232 OFFCURVE",
"580 1218 CURVE SMOOTH",
"580 1194 OFFCURVE",
"784 605 OFFCURVE",
"784 320 CURVE SMOOTH",
"784 210 OFFCURVE",
"761 131 OFFCURVE",
"710 80 CURVE SMOOTH",
"665 35 OFFCURVE",
"598 13 OFFCURVE",
"505 13 CURVE SMOOTH",
"418 13 OFFCURVE",
"332 45 OFFCURVE",
"279 90 CURVE SMOOTH",
"186 169 OFFCURVE",
"122 297 OFFCURVE",
"97 388 CURVE SMOOTH",
"68 495 OFFCURVE",
"53 522 OFFCURVE",
"28 522 CURVE SMOOTH",
"14 522 OFFCURVE",
"8 511 OFFCURVE",
"8 490 CURVE SMOOTH",
"8 363 OFFCURVE",
"113 144 OFFCURVE",
"219 50 CURVE SMOOTH",
"292 -14 OFFCURVE",
"403 -57 OFFCURVE",
"515 -57 CURVE SMOOTH"
);
}
);
width = 963;
},
{
anchors = (
{
name = bottom;
position = "{808, 0}";
},
{
name = top;
position = "{590, 1250}";
}
);
layerId = "AE80B40C-E5A8-4B5C-A94B-22B98FE5A19F";
paths = (
{
closed = 1;
nodes = (
"918 -92 OFFCURVE",
"1066 -37 OFFCURVE",
"1164 70 CURVE SMOOTH",
"1247 161 OFFCURVE",
"1293 289 OFFCURVE",
"1293 452 CURVE SMOOTH",
"1293 673 OFFCURVE",
"1219 943 OFFCURVE",
"1072 1095 CURVE SMOOTH",
"985 1185 OFFCURVE",
"873 1238 OFFCURVE",
"740 1238 CURVE SMOOTH",
"529 1238 OFFCURVE",
"469 1170 OFFCURVE",
"468 1067 CURVE SMOOTH",
"468 941 OFFCURVE",
"605 562 OFFCURVE",
"605 465 CURVE SMOOTH",
"605 444 OFFCURVE",
"601 430 OFFCURVE",
"593 421 CURVE SMOOTH",
"583 409 OFFCURVE",
"568 405 OFFCURVE",
"547 405 CURVE SMOOTH",
"523 405 OFFCURVE",
"503 413 OFFCURVE",
"485 435 CURVE SMOOTH",
"465 458 OFFCURVE",
"447 488 OFFCURVE",
"423 517 CURVE SMOOTH",
"385 563 OFFCURVE",
"327 587 OFFCURVE",
"262 587 CURVE SMOOTH",
"127 587 OFFCURVE",
"28 511 OFFCURVE",
"28 382 CURVE SMOOTH",
"28 342 OFFCURVE",
"41 286 OFFCURVE",
"58 250 CURVE SMOOTH",
"175 0 OFFCURVE",
"438 -92 OFFCURVE",
"733 -92 CURVE SMOOTH"
);
}
);
width = 1403;
},
{
anchors = (
{
name = bottom;
position = "{702, 0}";
},
{
name = top;
position = "{818, 1250}";
}
);
layerId = "6282282A-FA3F-4DEE-9DB6-5D5B2A6C152F";
paths = (
{
closed = 1;
nodes = (
"805 -92 OFFCURVE",
"992 -28 OFFCURVE",
"1125 112 CURVE SMOOTH",
"1246 239 OFFCURVE",
"1327 438 OFFCURVE",
"1327 725 CURVE SMOOTH",
"1327 873 OFFCURVE",
"1293 1002 OFFCURVE",
"1225 1095 CURVE SMOOTH",
"1160 1185 OFFCURVE",
"1060 1238 OFFCURVE",
"927 1238 CURVE SMOOTH",
"650 1238 OFFCURVE",
"607 1122 OFFCURVE",
"607 963 CURVE SMOOTH",
"607 849 OFFCURVE",
"621 582 OFFCURVE",
"621 528 CURVE SMOOTH",
"621 442 OFFCURVE",
"597 424 OFFCURVE",
"582 413 CURVE SMOOTH",
"572 407 OFFCURVE",
"562 405 OFFCURVE",
"541 405 CURVE SMOOTH",
"518 405 OFFCURVE",
"499 413 OFFCURVE",
"486 435 CURVE SMOOTH",
"473 459 OFFCURVE",
"460 488 OFFCURVE",
"443 517 CURVE SMOOTH",
"416 564 OFFCURVE",
"363 586 OFFCURVE",
"298 587 CURVE SMOOTH",
"143 587 OFFCURVE",
"10 487 OFFCURVE",
"10 322 CURVE SMOOTH",
"10 227 OFFCURVE",
"42 128 OFFCURVE",
"114 58 CURVE SMOOTH",
"223 -52 OFFCURVE",
"409 -92 OFFCURVE",
"613 -92 CURVE SMOOTH"
);
}
);
width = 1403;
},
{
anchors = (
{
name = bottom;
position = "{585, 0}";
},
{
name = top;
position = "{520, 1167}";
}
);
layerId = "4C364951-5780-4BC6-AB35-57CC8C56127C";
paths = (
{
closed = 1;
nodes = (
"523 -57 OFFCURVE",
"640 -30 OFFCURVE",
"718 67 CURVE SMOOTH",
"793 157 OFFCURVE",
"867 278 OFFCURVE",
"867 685 CURVE SMOOTH",
"867 977 OFFCURVE",
"848 1145 OFFCURVE",
"823 1208 CURVE SMOOTH",
"815 1228 OFFCURVE",
"809 1238 OFFCURVE",
"795 1238 CURVE SMOOTH",
"787 1238 OFFCURVE",
"773 1237 OFFCURVE",
"773 1215 CURVE SMOOTH",
"773 1177 OFFCURVE",
"802 1067 OFFCURVE",
"802 719 CURVE SMOOTH",
"802 490 OFFCURVE",
"787 257 OFFCURVE",
"685 128 CURVE SMOOTH",
"623 50 OFFCURVE",
"552 13 OFFCURVE",
"420 13 CURVE SMOOTH",
"286 13 OFFCURVE",
"200 71 OFFCURVE",
"143 189 CURVE SMOOTH",
"112 256 OFFCURVE",
"100 332 OFFCURVE",
"95 429 CURVE SMOOTH",
"91 502 OFFCURVE",
"81 522 OFFCURVE",
"60 522 CURVE SMOOTH",
"37 522 OFFCURVE",
"27 492 OFFCURVE",
"27 428 CURVE SMOOTH",
"27 293 OFFCURVE",
"60 148 OFFCURVE",
"148 50 CURVE SMOOTH",
"205 -15 OFFCURVE",
"308 -57 OFFCURVE",
"420 -57 CURVE SMOOTH"
);
}
);
width = 963;
}
);
leftKerningGroup = J;
rightKerningGroup = J;
unicode = 004A;
},
{
glyphname = K;
lastChange = "2020-04-11 15:03:49 +0000";
layers = (
{
anchors = (
{
name = bottom;
position = "{702, 0}";
},
{
name = top;
position = "{970, 1167}";
}
);
layerId = "307B7D8E-54CC-4996-A0B0-7E3456408354";
paths = (
{
closed = 1;
nodes = (
"457 -22 OFFCURVE",
"567 58 OFFCURVE",
"627 217 CURVE SMOOTH",
"641 254 OFFCURVE",
"650 290 OFFCURVE",
"657 318 CURVE SMOOTH",
"666 353 OFFCURVE",
"680 379 OFFCURVE",
"704 379 CURVE SMOOTH",
"738 379 OFFCURVE",
"751 353 OFFCURVE",
"797 248 CURVE SMOOTH",
"821 193 OFFCURVE",
"868 94 OFFCURVE",
"928 47 CURVE SMOOTH",
"984 3 OFFCURVE",
"1066 -27 OFFCURVE",
"1152 -27 CURVE SMOOTH",
"1327 -27 OFFCURVE",
"1474 70 OFFCURVE",
"1474 234 CURVE SMOOTH",
"1474 274 OFFCURVE",
"1459 307 OFFCURVE",
"1433 340 CURVE SMOOTH",
"1405 376 OFFCURVE",
"1311 461 OFFCURVE",
"1258 507 CURVE SMOOTH",
"1230 531 OFFCURVE",
"1223 546 OFFCURVE",
"1223 560 CURVE SMOOTH",
"1223 596 OFFCURVE",
"1284 621 OFFCURVE",
"1356 649 CURVE SMOOTH",
"1450 685 OFFCURVE",
"1524 724 OFFCURVE",
"1585 768 CURVE SMOOTH",
"1675 833 OFFCURVE",
"1738 922 OFFCURVE",
"1738 1024 CURVE SMOOTH",
"1738 1109 OFFCURVE",
"1689 1182 OFFCURVE",
"1560 1182 CURVE SMOOTH",
"1442 1182 OFFCURVE",
"1366 1155 OFFCURVE",
"1261 1080 CURVE SMOOTH",
"1184 1025 OFFCURVE",
"1073 921 OFFCURVE",
"999 848 CURVE SMOOTH",
"959 809 OFFCURVE",
"929 794 OFFCURVE",
"899 794 CURVE SMOOTH",
"866 794 OFFCURVE",
"849 798 OFFCURVE",
"849 831 CURVE SMOOTH",
"849 889 OFFCURVE",
"891 1008 OFFCURVE",
"891 1076 CURVE SMOOTH",
"891 1176 OFFCURVE",
"825 1237 OFFCURVE",
"708 1237 CURVE SMOOTH",
"552 1237 OFFCURVE",
"427 1192 OFFCURVE",
"331 1092 CURVE SMOOTH",
"189 945 OFFCURVE",
"103 699 OFFCURVE",
"53 484 CURVE SMOOTH",
"33 398 OFFCURVE",
"10 282 OFFCURVE",
"10 207 CURVE SMOOTH",
"10 42 OFFCURVE",
"115 -22 OFFCURVE",
"296 -22 CURVE SMOOTH"
);
}
);
width = 1617;
},
{
anchors = (
{
name = bottom;
position = "{367, 0}";
},
{
name = top;
position = "{637, 1167}";
}
);
layerId = "AE979D1C-FDDA-49FD-8CD9-3E2A42843A18";
paths = (
{
closed = 1;
nodes = (
"26 -17 OFFCURVE",
"35 20 OFFCURVE",
"71 173 CURVE SMOOTH",
"82 220 OFFCURVE",
"163 544 OFFCURVE",
"167 558 CURVE SMOOTH",
"174 581 OFFCURVE",
"178 585 OFFCURVE",
"187 585 CURVE SMOOTH",
"193 585 OFFCURVE",
"207 582 OFFCURVE",
"221 564 CURVE SMOOTH",
"285 485 OFFCURVE",
"297 469 OFFCURVE",
"536 175 CURVE SMOOTH",
"648 37 OFFCURVE",
"692 -6 OFFCURVE",
"725 -6 CURVE SMOOTH",
"739 -6 OFFCURVE",
"747 0 OFFCURVE",
"747 15 CURVE SMOOTH",
"747 34 OFFCURVE",
"704 89 OFFCURVE",
"584 226 CURVE SMOOTH",
"550 265 OFFCURVE",
"334 524 OFFCURVE",
"291 572 CURVE SMOOTH",
"278 587 OFFCURVE",
"273 599 OFFCURVE",
"273 609 CURVE SMOOTH",
"273 620 OFFCURVE",
"282 631 OFFCURVE",
"315 649 CURVE SMOOTH",
"414 704 OFFCURVE",
"653 844 OFFCURVE",
"814 944 CURVE SMOOTH",
"900 998 OFFCURVE",
"1052 1098 OFFCURVE",
"1052 1133 CURVE SMOOTH",
"1052 1141 OFFCURVE",
"1047 1142 OFFCURVE",
"1038 1142 CURVE SMOOTH",
"1013 1142 OFFCURVE",
"904 1075 OFFCURVE",
"764 985 CURVE SMOOTH",
"558 852 OFFCURVE",
"398 753 OFFCURVE",
"299 701 CURVE SMOOTH",
"263 682 OFFCURVE",
"240 674 OFFCURVE",
"219 674 CURVE SMOOTH",
"209 674 OFFCURVE",
"205 679 OFFCURVE",
"205 688 CURVE SMOOTH",
"205 744 OFFCURVE",
"402 1204 OFFCURVE",
"402 1240 CURVE SMOOTH",
"402 1250 OFFCURVE",
"399 1258 OFFCURVE",
"389 1258 CURVE SMOOTH",
"366 1258 OFFCURVE",
"349 1237 OFFCURVE",
"325 1188 CURVE SMOOTH",
"236 1006 OFFCURVE",
"172 817 OFFCURVE",
"117 624 CURVE SMOOTH",
"71 464 OFFCURVE",
"-27 87 OFFCURVE",
"-27 15 CURVE SMOOTH",
"-27 -8 OFFCURVE",
"-21 -17 OFFCURVE",
"-10 -17 CURVE SMOOTH"
);
}
);
width = 925;
},
{
anchors = (
{
name = bottom;
position = "{587, 0}";
},
{
name = top;
position = "{273, 1167}";
}
);
layerId = "A5079BDB-9783-4F5E-864F-267B8C6F09C1";
paths = (
{
closed = 1;
nodes = (
"203 -17 OFFCURVE",
"210 -10 OFFCURVE",
"210 13 CURVE SMOOTH",
"210 70 OFFCURVE",
"94 517 OFFCURVE",
"94 574 CURVE SMOOTH",
"94 583 OFFCURVE",
"99 585 OFFCURVE",
"105 585 CURVE SMOOTH",
"111 585 OFFCURVE",
"127 580 OFFCURVE",
"149 562 CURVE SMOOTH",
"248 481 OFFCURVE",
"336 414 OFFCURVE",
"638 170 CURVE SMOOTH",
"811 30 OFFCURVE",
"884 -6 OFFCURVE",
"917 -6 CURVE SMOOTH",
"928 -6 OFFCURVE",
"932 -4 OFFCURVE",
"932 2 CURVE SMOOTH",
"932 28 OFFCURVE",
"798 134 OFFCURVE",
"676 226 CURVE SMOOTH",
"624 265 OFFCURVE",
"283 533 OFFCURVE",
"217 582 CURVE SMOOTH",
"190 601 OFFCURVE",
"179 617 OFFCURVE",
"179 627 CURVE SMOOTH",
"179 636 OFFCURVE",
"185 646 OFFCURVE",
"203 660 CURVE SMOOTH",
"276 715 OFFCURVE",
"446 844 OFFCURVE",
"566 944 CURVE SMOOTH",
"670 1031 OFFCURVE",
"719 1102 OFFCURVE",
"719 1128 CURVE SMOOTH",
"719 1140 OFFCURVE",
"717 1142 OFFCURVE",
"706 1142 CURVE SMOOTH",
"687 1142 OFFCURVE",
"614 1080 OFFCURVE",
"512 985 CURVE SMOOTH",
"377 859 OFFCURVE",
"241 756 OFFCURVE",
"165 700 CURVE SMOOTH",
"137 680 OFFCURVE",
"118 674 OFFCURVE",
"97 674 CURVE SMOOTH",
"78 674 OFFCURVE",
"73 689 OFFCURVE",
"65 724 CURVE SMOOTH",
"48 802 OFFCURVE",
"29 1196 OFFCURVE",
"23 1229 CURVE SMOOTH",
"20 1244 OFFCURVE",
"10 1258 OFFCURVE",
"-3 1258 CURVE SMOOTH",
"-35 1258 OFFCURVE",
"-36 1201 OFFCURVE",
"-36 1121 CURVE SMOOTH",
"-36 979 OFFCURVE",
"-12 794 OFFCURVE",
"17 624 CURVE SMOOTH",
"43 474 OFFCURVE",
"76 320 OFFCURVE",
"114 159 CURVE SMOOTH",
"145 28 OFFCURVE",
"161 -17 OFFCURVE",
"186 -17 CURVE SMOOTH"
);
}
);
width = 925;
},
{
anchors = (
{
name = bottom;
position = "{883, 0}";
},
{
name = top;
position = "{695, 1167}";
}
);
layerId = "AE80B40C-E5A8-4B5C-A94B-22B98FE5A19F";
paths = (
{
closed = 1;
nodes = (
"630 -22 OFFCURVE",
"703 46 OFFCURVE",
"703 182 CURVE SMOOTH",
"703 252 OFFCURVE",
"680 315 OFFCURVE",
"680 348 CURVE SMOOTH",
"680 367 OFFCURVE",
"687 379 OFFCURVE",
"703 379 CURVE SMOOTH",
"735 379 OFFCURVE",
"761 352 OFFCURVE",
"856 248 CURVE SMOOTH",
"906 193 OFFCURVE",
"999 95 OFFCURVE",
"1081 47 CURVE SMOOTH",
"1157 3 OFFCURVE",
"1253 -27 OFFCURVE",
"1339 -27 CURVE SMOOTH",
"1470 -27 OFFCURVE",
"1562 18 OFFCURVE",
"1562 131 CURVE SMOOTH",
"1562 220 OFFCURVE",
"1520 284 OFFCURVE",
"1450 340 CURVE SMOOTH",
"1405 376 OFFCURVE",
"1268 461 OFFCURVE",
"1199 507 CURVE SMOOTH",
"1151 539 OFFCURVE",
"1139 551 OFFCURVE",
"1135 571 CURVE SMOOTH",
"1131 591 OFFCURVE",
"1162 613 OFFCURVE",
"1231 649 CURVE SMOOTH",
"1306 688 OFFCURVE",
"1365 724 OFFCURVE",
"1404 768 CURVE SMOOTH",
"1444 813 OFFCURVE",
"1465 860 OFFCURVE",
"1465 913 CURVE SMOOTH",
"1465 1058 OFFCURVE",
"1345 1182 OFFCURVE",
"1189 1182 CURVE SMOOTH",
"1071 1182 OFFCURVE",
"1008 1154 OFFCURVE",
"936 1080 CURVE SMOOTH",
"884 1026 OFFCURVE",
"823 920 OFFCURVE",
"782 848 CURVE SMOOTH",
"760 809 OFFCURVE",
"735 794 OFFCURVE",
"715 794 CURVE SMOOTH",
"677 794 OFFCURVE",
"662 799 OFFCURVE",
"648 818 CURVE SMOOTH",
"638 831 OFFCURVE",
"623 868 OFFCURVE",
"589 1015 CURVE SMOOTH",
"558 1150 OFFCURVE",
"451 1237 OFFCURVE",
"311 1237 CURVE SMOOTH",
"155 1237 OFFCURVE",
"50 1192 OFFCURVE",
"2 1092 CURVE SMOOTH",
"-30 1025 OFFCURVE",
"-43 939 OFFCURVE",
"-43 845 CURVE SMOOTH",
"-43 663 OFFCURVE",
"25 326 OFFCURVE",
"100 184 CURVE SMOOTH",
"166 59 OFFCURVE",
"275 -22 OFFCURVE",
"481 -22 CURVE SMOOTH"
);
}
);
width = 1617;
},
{
anchors = (
{
name = bottom;
position = "{777, 0}";
},
{
name = top;
position = "{777, 1167}";
}
);
layerId = "6282282A-FA3F-4DEE-9DB6-5D5B2A6C152F";
paths = (
{
closed = 1;
nodes = (
"538 -22 OFFCURVE",
"630 58 OFFCURVE",
"653 217 CURVE SMOOTH",
"658 254 OFFCURVE",
"659 290 OFFCURVE",
"659 318 CURVE SMOOTH",
"659 353 OFFCURVE",
"668 379 OFFCURVE",
"692 379 CURVE SMOOTH",
"726 379 OFFCURVE",
"745 353 OFFCURVE",
"815 248 CURVE SMOOTH",
"852 193 OFFCURVE",
"922 95 OFFCURVE",
"993 47 CURVE SMOOTH",
"1059 3 OFFCURVE",
"1148 -27 OFFCURVE",
"1234 -27 CURVE SMOOTH",
"1386 -27 OFFCURVE",
"1500 34 OFFCURVE",
"1500 192 CURVE SMOOTH",
"1500 252 OFFCURVE",
"1475 296 OFFCURVE",
"1430 340 CURVE SMOOTH",
"1393 375 OFFCURVE",
"1276 460 OFFCURVE",
"1217 507 CURVE SMOOTH",
"1177 539 OFFCURVE",
"1168 551 OFFCURVE",
"1168 571 CURVE SMOOTH",
"1168 591 OFFCURVE",
"1205 613 OFFCURVE",
"1282 649 CURVE SMOOTH",
"1366 688 OFFCURVE",
"1433 724 OFFCURVE",
"1483 768 CURVE SMOOTH",
"1549 827 OFFCURVE",
"1583 892 OFFCURVE",
"1583 967 CURVE SMOOTH",
"1583 1073 OFFCURVE",
"1520 1182 OFFCURVE",
"1363 1182 CURVE SMOOTH",
"1245 1182 OFFCURVE",
"1175 1155 OFFCURVE",
"1087 1080 CURVE SMOOTH",
"1023 1025 OFFCURVE",
"937 920 OFFCURVE",
"879 848 CURVE SMOOTH",
"848 809 OFFCURVE",
"820 794 OFFCURVE",
"800 794 CURVE SMOOTH",
"762 794 OFFCURVE",
"749 800 OFFCURVE",
"738 818 CURVE SMOOTH",
"730 830 OFFCURVE",
"725 868 OFFCURVE",
"725 1015 CURVE SMOOTH",
"725 1150 OFFCURVE",
"638 1237 OFFCURVE",
"498 1237 CURVE SMOOTH",
"342 1237 OFFCURVE",
"227 1192 OFFCURVE",
"155 1092 CURVE SMOOTH",
"48 944 OFFCURVE",
"17 699 OFFCURVE",
"17 484 CURVE SMOOTH",
"17 389 OFFCURVE",
"22 256 OFFCURVE",
"44 184 CURVE SMOOTH",
"82 59 OFFCURVE",
"171 -22 OFFCURVE",
"377 -22 CURVE SMOOTH"
);
}
);
width = 1617;
},
{
anchors = (
{
name = bottom;
position = "{480, 0}";
},
{
name = top;
position = "{480, 1167}";
}
);
layerId = "4C364951-5780-4BC6-AB35-57CC8C56127C";
paths = (
{
closed = 1;
nodes = (
"117 -17 OFFCURVE",
"117 20 OFFCURVE",
"117 173 CURVE SMOOTH",
"117 220 OFFCURVE",
"124 544 OFFCURVE",
"124 558 CURVE SMOOTH",
"124 581 OFFCURVE",
"129 585 OFFCURVE",
"138 585 CURVE SMOOTH",
"144 585 OFFCURVE",
"159 582 OFFCURVE",
"177 564 CURVE SMOOTH",
"256 481 OFFCURVE",
"273 464 OFFCURVE",
"575 170 CURVE SMOOTH",
"720 34 OFFCURVE",
"780 -6 OFFCURVE",
"813 -6 CURVE SMOOTH",
"827 -6 OFFCURVE",
"831 -2 OFFCURVE",
"831 8 CURVE SMOOTH",
"831 23 OFFCURVE",
"777 88 OFFCURVE",
"626 226 CURVE SMOOTH",
"583 265 OFFCURVE",
"299 523 OFFCURVE",
"245 572 CURVE SMOOTH",
"226 589 OFFCURVE",
"218 602.993 OFFCURVE",
"218 613 CURVE SMOOTH",
"218 623 OFFCURVE",
"226 634 OFFCURVE",
"251 650 CURVE SMOOTH",
"336 706 OFFCURVE",
"544 844 OFFCURVE",
"682 944 CURVE SMOOTH",
"805 1033 OFFCURVE",
"877 1102 OFFCURVE",
"877 1128 CURVE SMOOTH",
"877 1140 OFFCURVE",
"872 1142 OFFCURVE",
"861 1142 CURVE SMOOTH",
"837 1142 OFFCURVE",
"754 1077 OFFCURVE",
"637 985 CURVE SMOOTH",
"478 860 OFFCURVE",
"311 759 OFFCURVE",
"224 707 CURVE SMOOTH",
"192 688 OFFCURVE",
"171 674 OFFCURVE",
"150 674 CURVE SMOOTH",
"131 674 OFFCURVE",
"130 689 OFFCURVE",
"130 724 CURVE SMOOTH",
"130 802 OFFCURVE",
"204 1194 OFFCURVE",
"204 1229 CURVE SMOOTH",
"204 1244 OFFCURVE",
"198 1258 OFFCURVE",
"185 1258 CURVE SMOOTH",
"162 1258 OFFCURVE",
"150 1237 OFFCURVE",
"137 1188 CURVE SMOOTH",
"93 1004 OFFCURVE",
"70 817 OFFCURVE",
"59 624 CURVE SMOOTH",
"50 474 OFFCURVE",
"48 320 OFFCURVE",
"48 159 CURVE SMOOTH",
"48 28 OFFCURVE",
"55 -17 OFFCURVE",
"80 -17 CURVE SMOOTH"
);
}
);
width = 925;
}
);
leftKerningGroup = H;
rightKerningGroup = K;
unicode = 004B;
},
{
glyphname = L;
lastChange = "2020-04-19 03:06:43 +0000";
layers = (
{
anchors = (
{
name = bottom;
position = "{583, 0}";
},
{
name = center;
position = "{717, 583}";
},
{
name = top;
position = "{1035, 1167}";
},
{
name = topright;
position = "{1477, 1167}";
}
);
layerId = "307B7D8E-54CC-4996-A0B0-7E3456408354";
paths = (
{
closed = 1;
nodes = (
"330 -83 OFFCURVE",
"424 -84 OFFCURVE",
"522 -84 CURVE SMOOTH",
"651 -84 OFFCURVE",
"792 -66 OFFCURVE",
"885 -38 CURVE SMOOTH",
"1080 21 OFFCURVE",
"1261 150 OFFCURVE",
"1261 343 CURVE SMOOTH",
"1261 376 OFFCURVE",
"1252 399 OFFCURVE",
"1235 417 CURVE SMOOTH",
"1210 444 OFFCURVE",
"1164 461 OFFCURVE",
"1135 469 CURVE SMOOTH",
"1074 486 OFFCURVE",
"964 506 OFFCURVE",
"845 520 CURVE SMOOTH",
"782 527 OFFCURVE",
"752 571 OFFCURVE",
"752 636 CURVE SMOOTH",
"752 692 OFFCURVE",
"823 967 OFFCURVE",
"823 1065 CURVE SMOOTH",
"823 1158 OFFCURVE",
"779 1215 OFFCURVE",
"641 1215 CURVE SMOOTH",
"447 1215 OFFCURVE",
"297 1060 OFFCURVE",
"189 833 CURVE SMOOTH",
"107 660 OFFCURVE",
"0 377 OFFCURVE",
"0 209 CURVE SMOOTH",
"0 55 OFFCURVE",
"76 -38 OFFCURVE",
"268 -72 CURVE SMOOTH"
);
}
);
width = 1317;
},
{
anchors = (
{
name = bottom;
position = "{310, 0}";
},
{
name = center;
position = "{250, 583}";
},
{
name = top;
position = "{672, 1167}";
},
{
name = topright;
position = "{1203, 1167}";
}
);
layerId = "AE979D1C-FDDA-49FD-8CD9-3E2A42843A18";
paths = (
{
closed = 1;
nodes = (
"157 -22 OFFCURVE",
"265 -30 OFFCURVE",
"314 -30 CURVE SMOOTH",
"413 -30 OFFCURVE",
"523 -20 OFFCURVE",
"612 -5 CURVE SMOOTH",
"735 16 OFFCURVE",
"770 29 OFFCURVE",
"770 56 CURVE SMOOTH",
"770 69 OFFCURVE",
"762 71 OFFCURVE",
"750 71 CURVE SMOOTH",
"727 71 OFFCURVE",
"678 61 OFFCURVE",
"567 47 CURVE SMOOTH",
"518 41 OFFCURVE",
"439 34 OFFCURVE",
"361 34 CURVE SMOOTH",
"157 34 OFFCURVE",
"89 65 OFFCURVE",
"89 183 CURVE SMOOTH",
"89 365 OFFCURVE",
"337 1030 OFFCURVE",
"337 1196 CURVE SMOOTH",
"337 1209 OFFCURVE",
"333 1215 OFFCURVE",
"324 1215 CURVE SMOOTH",
"297 1215 OFFCURVE",
"282 1187 OFFCURVE",
"237 1039 CURVE SMOOTH",
"161 790 OFFCURVE",
"18 321 OFFCURVE",
"18 156 CURVE SMOOTH",
"18 68 OFFCURVE",
"55 19 OFFCURVE",
"120 -7 CURVE SMOOTH"
);
}
);
width = 895;
},
{
anchors = (
{
name = bottom;
position = "{502, 0}";
},
{
name = center;
position = "{152, 583}";
},
{
name = top;
position = "{313, 1167}";
},
{
name = topright;
position = "{813, 1167}";
}
);
layerId = "A5079BDB-9783-4F5E-864F-267B8C6F09C1";
paths = (
{
closed = 1;
nodes = (
"348 -25 OFFCURVE",
"446 -30 OFFCURVE",
"495 -30 CURVE SMOOTH",
"594 -30 OFFCURVE",
"698 -20 OFFCURVE",
"781 -5 CURVE SMOOTH",
"885 14 OFFCURVE",
"922 25 OFFCURVE",
"922 51 CURVE SMOOTH",
"922 65 OFFCURVE",
"912 71 OFFCURVE",
"896 71 CURVE SMOOTH",
"873 71 OFFCURVE",
"827 60 OFFCURVE",
"722 47 CURVE SMOOTH",
"675 41 OFFCURVE",
"600 34 OFFCURVE",
"522 34 CURVE SMOOTH",
"218 34 OFFCURVE",
"184 103 OFFCURVE",
"110 423 CURVE SMOOTH",
"58 649 OFFCURVE",
"9 1007 OFFCURVE",
"-24 1149 CURVE SMOOTH",
"-34 1192 OFFCURVE",
"-44 1215 OFFCURVE",
"-61 1215 CURVE SMOOTH",
"-75 1215 OFFCURVE",
"-82 1207 OFFCURVE",
"-82 1178 CURVE SMOOTH",
"-82 1093 OFFCURVE",
"18 527 OFFCURVE",
"54 371 CURVE SMOOTH",
"103 157 OFFCURVE",
"165 25 OFFCURVE",
"293 -10 CURVE SMOOTH"
);
}
);
width = 895;
},
{
anchors = (
{
name = bottom;
position = "{765, 0}";
},
{
name = center;
position = "{608, 583}";
},
{
name = top;
position = "{702, 1167}";
},
{
name = topright;
position = "{1077, 1167}";
}
);
layerId = "AE80B40C-E5A8-4B5C-A94B-22B98FE5A19F";
paths = (
{
closed = 1;
nodes = (
"537 -83 OFFCURVE",
"631 -84 OFFCURVE",
"729 -84 CURVE SMOOTH",
"858 -84 OFFCURVE",
"991 -66 OFFCURVE",
"1070 -38 CURVE SMOOTH",
"1189 4 OFFCURVE",
"1298 80 OFFCURVE",
"1298 215 CURVE SMOOTH",
"1298 287 OFFCURVE",
"1271 373 OFFCURVE",
"1210 417 CURVE SMOOTH",
"1173 444 OFFCURVE",
"1119 461 OFFCURVE",
"1086 469 CURVE SMOOTH",
"1017 486 OFFCURVE",
"899 506 OFFCURVE",
"774 520 CURVE SMOOTH",
"701 528 OFFCURVE",
"647 579 OFFCURVE",
"618 655 CURVE SMOOTH",
"589 732 OFFCURVE",
"567 823 OFFCURVE",
"544 919 CURVE SMOOTH",
"502 1095 OFFCURVE",
"449 1215 OFFCURVE",
"248 1215 CURVE SMOOTH",
"48 1215 OFFCURVE",
"-28 1050 OFFCURVE",
"-28 812 CURVE SMOOTH",
"-28 686 OFFCURVE",
"-11 498 OFFCURVE",
"17 373 CURVE SMOOTH",
"75 120 OFFCURVE",
"197 -28 OFFCURVE",
"469 -72 CURVE SMOOTH"
);
}
);
width = 1317;
},
{
anchors = (
{
name = bottom;
position = "{658, 0}";
},
{
name = center;
position = "{658, 583}";
},
{
name = top;
position = "{817, 1167}";
},
{
name = topright;
position = "{1283, 1167}";
}
);
layerId = "6282282A-FA3F-4DEE-9DB6-5D5B2A6C152F";
paths = (
{
closed = 1;
nodes = (
"426 -83 OFFCURVE",
"520 -84 OFFCURVE",
"618 -84 CURVE SMOOTH",
"747 -84 OFFCURVE",
"884 -66 OFFCURVE",
"970 -38 CURVE SMOOTH",
"1118 8 OFFCURVE",
"1264 104 OFFCURVE",
"1264 282 CURVE SMOOTH",
"1264 350 OFFCURVE",
"1247 389 OFFCURVE",
"1215 417 CURVE SMOOTH",
"1184 444 OFFCURVE",
"1134 461 OFFCURVE",
"1103 469 CURVE SMOOTH",
"1038 486 OFFCURVE",
"924 506 OFFCURVE",
"802 520 CURVE SMOOTH",
"731 528 OFFCURVE",
"690 579 OFFCURVE",
"678 655 CURVE SMOOTH",
"666 731 OFFCURVE",
"665 823 OFFCURVE",
"665 919 CURVE SMOOTH",
"665 1095 OFFCURVE",
"638 1215 OFFCURVE",
"437 1215 CURVE SMOOTH",
"243 1215 OFFCURVE",
"128 1060 OFFCURVE",
"73 833 CURVE SMOOTH",
"42 707 OFFCURVE",
"12 505 OFFCURVE",
"12 373 CURVE SMOOTH",
"12 120 OFFCURVE",
"99 -28 OFFCURVE",
"361 -72 CURVE SMOOTH"
);
}
);
width = 1317;
},
{
anchors = (
{
name = bottom;
position = "{395, 0}";
},
{
name = center;
position = "{202, 583}";
},
{
name = top;
position = "{502, 1167}";
},
{
name = topright;
position = "{1020, 1167}";
}
);
layerId = "4C364951-5780-4BC6-AB35-57CC8C56127C";
paths = (
{
closed = 1;
nodes = (
"252 -25 OFFCURVE",
"349 -30 OFFCURVE",
"398 -30 CURVE SMOOTH",
"497 -30 OFFCURVE",
"604 -20 OFFCURVE",
"690 -5 CURVE SMOOTH",
"798 13 OFFCURVE",
"844 25 OFFCURVE",
"844 51 CURVE SMOOTH",
"844 65 OFFCURVE",
"839 71 OFFCURVE",
"823 71 CURVE SMOOTH",
"800 71 OFFCURVE",
"751 60 OFFCURVE",
"643 47 CURVE SMOOTH",
"595 41 OFFCURVE",
"518 34 OFFCURVE",
"440 34 CURVE SMOOTH",
"136 34 OFFCURVE",
"118 103 OFFCURVE",
"118 423 CURVE SMOOTH",
"118 649 OFFCURVE",
"151 1007 OFFCURVE",
"151 1149 CURVE SMOOTH",
"151 1192 OFFCURVE",
"147 1215 OFFCURVE",
"130 1215 CURVE SMOOTH",
"103 1215 OFFCURVE",
"95 1187 OFFCURVE",
"84 1039 CURVE SMOOTH",
"76 931 OFFCURVE",
"50 554 OFFCURVE",
"50 371 CURVE SMOOTH",
"50 157 OFFCURVE",
"81 25 OFFCURVE",
"201 -10 CURVE SMOOTH"
);
}
);
width = 895;
}
);
leftKerningGroup = H;
rightKerningGroup = L;
unicode = 004C;
},
{
glyphname = Lslash;
lastChange = "2020-01-31 16:00:40 +0000";
layers = (
{
components = (
{
name = L;
}
);
layerId = "307B7D8E-54CC-4996-A0B0-7E3456408354";
paths = (
{
closed = 1;
nodes = (
"152 257 OFFCURVE",
"487 455 OFFCURVE",
"745 652 CURVE SMOOTH",
"822 710 OFFCURVE",
"890 767 OFFCURVE",
"942 822 CURVE SMOOTH",
"1003 888 OFFCURVE",
"1043 950 OFFCURVE",
"1033 1010 CURVE SMOOTH",
"1022 1080 OFFCURVE",
"975 1095 OFFCURVE",
"908 1082 CURVE SMOOTH",
"865 1073 OFFCURVE",
"813 1053 OFFCURVE",
"755 1027 CURVE SMOOTH",
"553 935 OFFCURVE",
"222 738 OFFCURVE",
"5 575 CURVE SMOOTH",
"-157 453 OFFCURVE",
"-268 363 OFFCURVE",
"-250 260 CURVE SMOOTH",
"-235 178 OFFCURVE",
"-155 172 OFFCURVE",
"-53 200 CURVE SMOOTH"
);
}
);
width = 1317;
},
{
components = (
{
name = L;
}
);
layerId = "AE979D1C-FDDA-49FD-8CD9-3E2A42843A18";
paths = (
{
closed = 1;
nodes = (
"-125 240 OFFCURVE",
"-43 280 OFFCURVE",
"32 338 CURVE SMOOTH",
"207 475 OFFCURVE",
"273 530 OFFCURVE",
"385 620 CURVE SMOOTH",
"448 672 OFFCURVE",
"525 733 OFFCURVE",
"572 772 CURVE SMOOTH",
"608 802 OFFCURVE",
"617 838 OFFCURVE",
"603 843 CURVE SMOOTH",
"595 847 OFFCURVE",
"582 838 OFFCURVE",
"543 812 CURVE SMOOTH",
"492 775 OFFCURVE",
"412 710 OFFCURVE",
"350 663 CURVE SMOOTH",
"248 587 OFFCURVE",
"177 527 OFFCURVE",
"47 422 CURVE SMOOTH",
"-65 332 OFFCURVE",
"-158 265 OFFCURVE",
"-145 255 CURVE SMOOTH"
);
}
);
width = 915;
},
{
components = (
{
name = L;
}
);
layerId = "A5079BDB-9783-4F5E-864F-267B8C6F09C1";
paths = (
{
closed = 1;
nodes = (
"-40 240 OFFCURVE",
"7 297 OFFCURVE",
"52 355 CURVE SMOOTH",
"155 490 OFFCURVE",
"192 545 OFFCURVE",
"255 637 CURVE SMOOTH",
"290 687 OFFCURVE",
"335 750 OFFCURVE",
"358 788 CURVE SMOOTH",
"378 820 OFFCURVE",
"377 838 OFFCURVE",
"363 843 CURVE SMOOTH",
"352 848 OFFCURVE",
"342 838 OFFCURVE",
"320 812 CURVE SMOOTH",
"290 773 OFFCURVE",
"242 710 OFFCURVE",
"203 663 CURVE SMOOTH",
"142 588 OFFCURVE",
"107 525 OFFCURVE",
"30 422 CURVE SMOOTH",
"-35 335 OFFCURVE",
"-90 265 OFFCURVE",
"-70 255 CURVE SMOOTH"
);
}
);
width = 915;
},
{
components = (
{
name = L;
}
);
layerId = "AE80B40C-E5A8-4B5C-A94B-22B98FE5A19F";
paths = (
{
closed = 1;
nodes = (
"290 258 OFFCURVE",
"518 455 OFFCURVE",
"670 652 CURVE SMOOTH",
"715 710 OFFCURVE",
"753 767 OFFCURVE",
"777 822 CURVE SMOOTH",
"803 887 OFFCURVE",
"808 950 OFFCURVE",
"767 1010 CURVE SMOOTH",
"718 1080 OFFCURVE",
"663 1095 OFFCURVE",
"602 1082 CURVE SMOOTH",
"563 1073 OFFCURVE",
"523 1053 OFFCURVE",
"478 1027 CURVE SMOOTH",
"323 935 OFFCURVE",
"98 737 OFFCURVE",
"-30 575 CURVE SMOOTH",
"-127 453 OFFCURVE",
"-190 363 OFFCURVE",
"-115 260 CURVE SMOOTH",
"-57 180 OFFCURVE",
"27 172 OFFCURVE",
"113 200 CURVE SMOOTH"
);
}
);
width = 1317;
},
{
components = (
{
name = L;
}
);
layerId = "6282282A-FA3F-4DEE-9DB6-5D5B2A6C152F";
paths = (
{
closed = 1;
nodes = (
"273 252 OFFCURVE",
"552 454 OFFCURVE",
"757 651 CURVE SMOOTH",
"818 711 OFFCURVE",
"872 766 OFFCURVE",
"909 821 CURVE SMOOTH",
"955 887 OFFCURVE",
"975 950 OFFCURVE",
"950 1010 CURVE SMOOTH",
"920 1080 OFFCURVE",
"869 1095 OFFCURVE",
"805 1081 CURVE SMOOTH",
"764 1072 OFFCURVE",
"718 1053 OFFCURVE",
"666 1027 CURVE SMOOTH",
"487 936 OFFCURVE",
"211 737 OFFCURVE",
"38 575 CURVE SMOOTH",
"-93 455 OFFCURVE",
"-180 364 OFFCURVE",
"-132 260 CURVE SMOOTH",
"-97 179 OFFCURVE",
"-14 172 OFFCURVE",
"80 199 CURVE SMOOTH"
);
}
);
width = 1317;
},
{
components = (
{
name = L;
}
);
layerId = "4C364951-5780-4BC6-AB35-57CC8C56127C";
paths = (
{
closed = 1;
nodes = (
"-108 238 OFFCURVE",
"-43 297 OFFCURVE",
"17 355 CURVE SMOOTH",
"155 492 OFFCURVE",
"208 545 OFFCURVE",
"295 637 CURVE SMOOTH",
"343 688 OFFCURVE",
"405 750 OFFCURVE",
"440 788 CURVE SMOOTH",
"468 820 OFFCURVE",
"472 838 OFFCURVE",
"458 843 CURVE SMOOTH",
"448 847 OFFCURVE",
"437 838 OFFCURVE",
"407 812 CURVE SMOOTH",
"365 775 OFFCURVE",
"302 710 OFFCURVE",
"252 663 CURVE SMOOTH",
"172 587 OFFCURVE",
"117 525 OFFCURVE",
"13 422 CURVE SMOOTH",
"-75 333 OFFCURVE",
"-149 265 OFFCURVE",
"-132 254 CURVE SMOOTH"
);
}
);
width = 915;
}
);
leftKerningGroup = H;
rightKerningGroup = L;
unicode = 0141;
},
{
glyphname = M;
lastChange = "2020-04-11 20:34:19 +0000";
layers = (
{
anchors = (
{
name = bottom;
position = "{942, 0}";
},
{
name = top;
position = "{1232, 1167}";
}
);
layerId = "307B7D8E-54CC-4996-A0B0-7E3456408354";
paths = (
{
closed = 1;
nodes = (
"349 -48 OFFCURVE",
"431 -18 OFFCURVE",
"484 38 CURVE SMOOTH",
"525 82 OFFCURVE",
"542 114 OFFCURVE",
"559 188 CURVE SMOOTH",
"575 257 OFFCURVE",
"585 294 OFFCURVE",
"598 329 CURVE SMOOTH",
"623 395 OFFCURVE",
"646 436 OFFCURVE",
"676 436 CURVE SMOOTH",
"705 436 OFFCURVE",
"711 415 OFFCURVE",
"714 365 CURVE SMOOTH",
"717 305 OFFCURVE",
"729 206 OFFCURVE",
"749 160 CURVE SMOOTH",
"775 100 OFFCURVE",
"818 47 OFFCURVE",
"924 47 CURVE SMOOTH",
"1033 47 OFFCURVE",
"1098 87 OFFCURVE",
"1147 155 CURVE SMOOTH",
"1182 204 OFFCURVE",
"1215 264 OFFCURVE",
"1230 292 CURVE SMOOTH",
"1260 348 OFFCURVE",
"1291 392 OFFCURVE",
"1334 392 CURVE SMOOTH",
"1369 392 OFFCURVE",
"1381 362 OFFCURVE",
"1382 318 CURVE SMOOTH",
"1383 287 OFFCURVE",
"1384 230 OFFCURVE",
"1386 190 CURVE SMOOTH",
"1388 151 OFFCURVE",
"1394 97 OFFCURVE",
"1402 70 CURVE SMOOTH",
"1415 25 OFFCURVE",
"1452 -15 OFFCURVE",
"1545 -15 CURVE SMOOTH",
"1698 -15 OFFCURVE",
"1799 38 OFFCURVE",
"1878 163 CURVE SMOOTH",
"1964 298 OFFCURVE",
"2043 569 OFFCURVE",
"2043 738 CURVE SMOOTH",
"2043 827 OFFCURVE",
"2027 912 OFFCURVE",
"1993 983 CURVE SMOOTH",
"1937 1102 OFFCURVE",
"1773 1180 OFFCURVE",
"1626 1180 CURVE SMOOTH",
"1491 1180 OFFCURVE",
"1415 1164 OFFCURVE",
"1345 1119 CURVE SMOOTH",
"1285 1080 OFFCURVE",
"1226 1006 OFFCURVE",
"1191 936 CURVE SMOOTH",
"1163 879 OFFCURVE",
"1140 847 OFFCURVE",
"1109 847 CURVE SMOOTH",
"1078 847 OFFCURVE",
"1071 885 OFFCURVE",
"1066 927 CURVE SMOOTH",
"1054 1029 OFFCURVE",
"1009 1087 OFFCURVE",
"943 1123 CURVE SMOOTH",
"888 1153 OFFCURVE",
"806 1173 OFFCURVE",
"713 1173 CURVE SMOOTH",
"553 1173 OFFCURVE",
"397 1135 OFFCURVE",
"254 957 CURVE SMOOTH",
"121 792 OFFCURVE",
"28 493 OFFCURVE",
"28 264 CURVE SMOOTH",
"28 148 OFFCURVE",
"46 60 OFFCURVE",
"97 8 CURVE SMOOTH",
"133 -29 OFFCURVE",
"185 -48 OFFCURVE",
"259 -48 CURVE SMOOTH"
);
}
);
width = 2062;
},
{
anchors = (
{
name = bottom;
position = "{593, 0}";
},
{
name = top;
position = "{862, 1167}";
}
);
layerId = "AE979D1C-FDDA-49FD-8CD9-3E2A42843A18";
paths = (
{
closed = 1;
nodes = (
"60 -48 OFFCURVE",
"70 -15 OFFCURVE",
"81 32 CURVE SMOOTH",
"96 98 OFFCURVE",
"135 291 OFFCURVE",
"184 490 CURVE SMOOTH",
"234 691 OFFCURVE",
"288 896 OFFCURVE",
"322 980 CURVE SMOOTH",
"368 1094 OFFCURVE",
"401 1137 OFFCURVE",
"478 1137 CURVE SMOOTH",
"527 1137 OFFCURVE",
"561 1097 OFFCURVE",
"561 1013 CURVE SMOOTH",
"561 885 OFFCURVE",
"531 477 OFFCURVE",
"531 405 CURVE SMOOTH",
"531 315 OFFCURVE",
"548 258 OFFCURVE",
"615 258 CURVE SMOOTH",
"683 258 OFFCURVE",
"739 320 OFFCURVE",
"780 445 CURVE SMOOTH",
"836 616 OFFCURVE",
"939 897 OFFCURVE",
"990 1008 CURVE SMOOTH",
"1029 1093 OFFCURVE",
"1082 1130 OFFCURVE",
"1131 1130 CURVE SMOOTH",
"1199 1130 OFFCURVE",
"1218 1085 OFFCURVE",
"1218 992 CURVE SMOOTH",
"1218 912 OFFCURVE",
"1182 699 OFFCURVE",
"1134 472 CURVE SMOOTH",
"1094 279 OFFCURVE",
"1035 44 OFFCURVE",
"1035 13 CURVE SMOOTH",
"1035 -7 OFFCURVE",
"1043 -15 OFFCURVE",
"1057 -15 CURVE SMOOTH",
"1086 -15 OFFCURVE",
"1098 7 OFFCURVE",
"1109 56 CURVE SMOOTH",
"1138 191 OFFCURVE",
"1173 337 OFFCURVE",
"1202 476 CURVE SMOOTH",
"1250 705 OFFCURVE",
"1286 912 OFFCURVE",
"1286 1008 CURVE SMOOTH",
"1286 1108 OFFCURVE",
"1242 1193 OFFCURVE",
"1143 1193 CURVE SMOOTH",
"1057 1193 OFFCURVE",
"980 1135 OFFCURVE",
"935 1040 CURVE SMOOTH",
"866 894 OFFCURVE",
"775 630 OFFCURVE",
"719 461 CURVE SMOOTH",
"699 401 OFFCURVE",
"669 335 OFFCURVE",
"633 335 CURVE SMOOTH",
"605 335 OFFCURVE",
"597 369 OFFCURVE",
"597 418 CURVE SMOOTH",
"597 485 OFFCURVE",
"634 860 OFFCURVE",
"634 1024 CURVE SMOOTH",
"634 1137 OFFCURVE",
"592 1197 OFFCURVE",
"494 1197 CURVE SMOOTH",
"394 1197 OFFCURVE",
"305 1135 OFFCURVE",
"257 1005 CURVE SMOOTH",
"231 935 OFFCURVE",
"165 713 OFFCURVE",
"109 487 CURVE SMOOTH",
"53 260 OFFCURVE",
"-5 24 OFFCURVE",
"-5 -13 CURVE SMOOTH",
"-5 -35 OFFCURVE",
"3 -48 OFFCURVE",
"25 -48 CURVE SMOOTH"
);
}
);
width = 1304;
},
{
anchors = (
{
name = bottom;
position = "{782, 0}";
},
{
name = top;
position = "{469, 1167}";
}
);
layerId = "A5079BDB-9783-4F5E-864F-267B8C6F09C1";
paths = (
{
closed = 1;
nodes = (
"241 -48 OFFCURVE",
"248 -37 OFFCURVE",
"248 -19 CURVE SMOOTH",
"248 -1 OFFCURVE",
"184 272 OFFCURVE",
"132 490 CURVE SMOOTH",
"91 660 OFFCURVE",
"40 938 OFFCURVE",
"40 1028 CURVE SMOOTH",
"40 1107 OFFCURVE",
"61 1137 OFFCURVE",
"126 1137 CURVE SMOOTH",
"174 1137 OFFCURVE",
"226 1099 OFFCURVE",
"263 1020 CURVE SMOOTH",
"300 941 OFFCURVE",
"419 633 OFFCURVE",
"474 497 CURVE SMOOTH",
"531 355 OFFCURVE",
"576 258 OFFCURVE",
"664 258 CURVE SMOOTH",
"719 258 OFFCURVE",
"748 299 OFFCURVE",
"748 380 CURVE SMOOTH",
"748 433 OFFCURVE",
"693 870 OFFCURVE",
"693 1011 CURVE SMOOTH",
"693 1094 OFFCURVE",
"730 1130 OFFCURVE",
"778 1130 CURVE SMOOTH",
"846 1130 OFFCURVE",
"878 1085 OFFCURVE",
"930 992 CURVE SMOOTH",
"974 913 OFFCURVE",
"1029 699 OFFCURVE",
"1086 472 CURVE SMOOTH",
"1123 324 OFFCURVE",
"1163 161 OFFCURVE",
"1191 45 CURVE SMOOTH",
"1202 1 OFFCURVE",
"1217 -15 OFFCURVE",
"1237 -15 CURVE SMOOTH",
"1256 -15 OFFCURVE",
"1263 -6 OFFCURVE",
"1263 14 CURVE SMOOTH",
"1263 51 OFFCURVE",
"1200 302 OFFCURVE",
"1156 476 CURVE SMOOTH",
"1093 725 OFFCURVE",
"1028 948 OFFCURVE",
"983 1030 CURVE SMOOTH",
"923 1139 OFFCURVE",
"845 1193 OFFCURVE",
"765 1193 CURVE SMOOTH",
"679 1193 OFFCURVE",
"630 1135 OFFCURVE",
"629 1040 CURVE SMOOTH",
"626 845 OFFCURVE",
"683 482 OFFCURVE",
"683 404 CURVE SMOOTH",
"683 366 OFFCURVE",
"675 335 OFFCURVE",
"651 335 CURVE SMOOTH",
"607 335 OFFCURVE",
"574 419 OFFCURVE",
"537 518 CURVE SMOOTH",
"487 651 OFFCURVE",
"388 912 OFFCURVE",
"330 1033 CURVE SMOOTH",
"279 1140 OFFCURVE",
"210 1197 OFFCURVE",
"114 1197 CURVE SMOOTH",
"22 1197 OFFCURVE",
"-34 1145 OFFCURVE",
"-34 1035 CURVE SMOOTH",
"-34 949 OFFCURVE",
"22 649 OFFCURVE",
"57 487 CURVE SMOOTH",
"90 334 OFFCURVE",
"125 179 OFFCURVE",
"151 68 CURVE SMOOTH",
"167 -1 OFFCURVE",
"179 -48 OFFCURVE",
"221 -48 CURVE SMOOTH"
);
}
);
width = 1305;
},
{
anchors = (
{
name = bottom;
position = "{1099, 0}";
},
{
name = top;
position = "{786, 1167}";
}
);
layerId = "AE80B40C-E5A8-4B5C-A94B-22B98FE5A19F";
paths = (
{
closed = 1;
nodes = (
"538 -48 OFFCURVE",
"606 -18 OFFCURVE",
"633 38 CURVE SMOOTH",
"644 62 OFFCURVE",
"650 82 OFFCURVE",
"650 107 CURVE SMOOTH",
"650 167 OFFCURVE",
"611 279 OFFCURVE",
"611 374 CURVE SMOOTH",
"611 413 OFFCURVE",
"619 436 OFFCURVE",
"641 436 CURVE SMOOTH",
"670 436 OFFCURVE",
"684 415 OFFCURVE",
"711 365 CURVE SMOOTH",
"755 284 OFFCURVE",
"809 190 OFFCURVE",
"836 160 CURVE SMOOTH",
"906 82 OFFCURVE",
"956 47 OFFCURVE",
"1072 47 CURVE SMOOTH",
"1181 47 OFFCURVE",
"1225 87 OFFCURVE",
"1242 155 CURVE SMOOTH",
"1254 204 OFFCURVE",
"1260 264 OFFCURVE",
"1261 292 CURVE SMOOTH",
"1263 349 OFFCURVE",
"1276 392 OFFCURVE",
"1319 392 CURVE SMOOTH",
"1354 392 OFFCURVE",
"1380 362 OFFCURVE",
"1401 318 CURVE SMOOTH",
"1416 287 OFFCURVE",
"1447 230 OFFCURVE",
"1465 190 CURVE SMOOTH",
"1483 151 OFFCURVE",
"1513 97 OFFCURVE",
"1533 70 CURVE SMOOTH",
"1566 26 OFFCURVE",
"1635 -15 OFFCURVE",
"1728 -15 CURVE SMOOTH",
"1843 -15 OFFCURVE",
"1908 18 OFFCURVE",
"1942 87 CURVE SMOOTH",
"1966 134 OFFCURVE",
"1975 198 OFFCURVE",
"1975 279 CURVE SMOOTH",
"1975 499 OFFCURVE",
"1881 795 OFFCURVE",
"1706 983 CURVE SMOOTH",
"1595 1102 OFFCURVE",
"1434 1180 OFFCURVE",
"1277 1180 CURVE SMOOTH",
"1142 1180 OFFCURVE",
"1087 1162 OFFCURVE",
"1034 1119 CURVE SMOOTH",
"988 1081 OFFCURVE",
"963 1006 OFFCURVE",
"956 936 CURVE SMOOTH",
"950 881 OFFCURVE",
"935 847 OFFCURVE",
"904 847 CURVE SMOOTH",
"873 847 OFFCURVE",
"848 885 OFFCURVE",
"825 927 CURVE SMOOTH",
"769 1030 OFFCURVE",
"694 1087 OFFCURVE",
"610 1123 CURVE SMOOTH",
"541 1153 OFFCURVE",
"451 1173 OFFCURVE",
"358 1173 CURVE SMOOTH",
"198 1173 OFFCURVE",
"40 1135 OFFCURVE",
"-21 957 CURVE SMOOTH",
"-37 910 OFFCURVE",
"-44 845 OFFCURVE",
"-44 776 CURVE SMOOTH",
"-44 635 OFFCURVE",
"31 288 OFFCURVE",
"158 115 CURVE SMOOTH",
"241 2 OFFCURVE",
"313 -48 OFFCURVE",
"448 -48 CURVE SMOOTH"
);
}
);
width = 2055;
},
{
anchors = (
{
name = bottom;
position = "{1035, 0}";
},
{
name = top;
position = "{1035, 1167}";
}
);
layerId = "6282282A-FA3F-4DEE-9DB6-5D5B2A6C152F";
paths = (
{
closed = 1;
nodes = (
"459 -48 OFFCURVE",
"534 -18 OFFCURVE",
"574 38 CURVE SMOOTH",
"605 82 OFFCURVE",
"614 114 OFFCURVE",
"614 188 CURVE SMOOTH",
"614 257 OFFCURVE",
"616 294 OFFCURVE",
"621 329 CURVE SMOOTH",
"630 395 OFFCURVE",
"644 436 OFFCURVE",
"674 436 CURVE SMOOTH",
"703 436 OFFCURVE",
"712 415 OFFCURVE",
"728 365 CURVE SMOOTH",
"754 285 OFFCURVE",
"785 190 OFFCURVE",
"805 160 CURVE SMOOTH",
"857 82 OFFCURVE",
"899 47 OFFCURVE",
"1015 47 CURVE SMOOTH",
"1124 47 OFFCURVE",
"1177 87 OFFCURVE",
"1210 155 CURVE SMOOTH",
"1234 204 OFFCURVE",
"1253 264 OFFCURVE",
"1261 292 CURVE SMOOTH",
"1277 349 OFFCURVE",
"1299 392 OFFCURVE",
"1342 392 CURVE SMOOTH",
"1377 392 OFFCURVE",
"1396 362 OFFCURVE",
"1407 318 CURVE SMOOTH",
"1415 287 OFFCURVE",
"1432 230 OFFCURVE",
"1441 190 CURVE SMOOTH",
"1450 151 OFFCURVE",
"1468 97 OFFCURVE",
"1481 70 CURVE SMOOTH",
"1503 25 OFFCURVE",
"1554 -15 OFFCURVE",
"1647 -15 CURVE SMOOTH",
"1800 -15 OFFCURVE",
"1889 38 OFFCURVE",
"1939 163 CURVE SMOOTH",
"1985 277 OFFCURVE",
"1992 422 OFFCURVE",
"1992 563 CURVE SMOOTH",
"1992 714 OFFCURVE",
"1947 866 OFFCURVE",
"1865 983 CURVE SMOOTH",
"1782 1102 OFFCURVE",
"1659 1180 OFFCURVE",
"1482 1180 CURVE SMOOTH",
"1347 1180 OFFCURVE",
"1285 1161 OFFCURVE",
"1225 1116 CURVE SMOOTH",
"1174 1077 OFFCURVE",
"1133 1028 OFFCURVE",
"1104 946 CURVE SMOOTH",
"1085 891 OFFCURVE",
"1066 847 OFFCURVE",
"1025 847 CURVE SMOOTH",
"994 847 OFFCURVE",
"975 885 OFFCURVE",
"961 927 CURVE SMOOTH",
"927 1029 OFFCURVE",
"877 1087 OFFCURVE",
"812 1123 CURVE SMOOTH",
"752 1156 OFFCURVE",
"664 1173 OFFCURVE",
"571 1173 CURVE SMOOTH",
"411 1173 OFFCURVE",
"234 1135 OFFCURVE",
"132 957 CURVE SMOOTH",
"71 851 OFFCURVE",
"37 659 OFFCURVE",
"37 526 CURVE SMOOTH",
"37 375 OFFCURVE",
"62 224 OFFCURVE",
"117 115 CURVE SMOOTH",
"174 2 OFFCURVE",
"234 -48 OFFCURVE",
"369 -48 CURVE SMOOTH"
);
}
);
width = 2062;
},
{
anchors = (
{
name = bottom;
position = "{673, 0}";
},
{
name = top;
position = "{673, 1167}";
}
);
layerId = "4C364951-5780-4BC6-AB35-57CC8C56127C";
paths = (
{
closed = 1;
nodes = (
"151 -48 OFFCURVE",
"153 -15 OFFCURVE",
"153 32 CURVE SMOOTH",
"153 98 OFFCURVE",
"147 291 OFFCURVE",
"151 490 CURVE SMOOTH",
"154 691 OFFCURVE",
"161 896 OFFCURVE",
"175 980 CURVE SMOOTH",
"194 1095 OFFCURVE",
"218 1137 OFFCURVE",
"295 1137 CURVE SMOOTH",
"343 1137 OFFCURVE",
"386 1099 OFFCURVE",
"405 1020 CURVE SMOOTH",
"424 941 OFFCURVE",
"477 633 OFFCURVE",
"500 497 CURVE SMOOTH",
"524 355 OFFCURVE",
"547 258 OFFCURVE",
"635 258 CURVE SMOOTH",
"703 258 OFFCURVE",
"740 320 OFFCURVE",
"752 445 CURVE SMOOTH",
"769 616 OFFCURVE",
"807 897 OFFCURVE",
"832 1008 CURVE SMOOTH",
"851 1093 OFFCURVE",
"896 1130 OFFCURVE",
"945 1130 CURVE SMOOTH",
"1013 1130 OFFCURVE",
"1039 1085 OFFCURVE",
"1069 992 CURVE SMOOTH",
"1094 912 OFFCURVE",
"1100 699 OFFCURVE",
"1105 472 CURVE SMOOTH",
"1108 324 OFFCURVE",
"1108 171 OFFCURVE",
"1108 45 CURVE SMOOTH",
"1108 1 OFFCURVE",
"1120 -15 OFFCURVE",
"1140 -15 CURVE SMOOTH",
"1169 -15 OFFCURVE",
"1176 7 OFFCURVE",
"1176 56 CURVE SMOOTH",
"1176 191 OFFCURVE",
"1175 337 OFFCURVE",
"1172 476 CURVE SMOOTH",
"1166 725 OFFCURVE",
"1153 948 OFFCURVE",
"1127 1030 CURVE SMOOTH",
"1092 1139 OFFCURVE",
"1027 1193 OFFCURVE",
"947 1193 CURVE SMOOTH",
"861 1193 OFFCURVE",
"798 1135 OFFCURVE",
"775 1040 CURVE SMOOTH",
"740 893 OFFCURVE",
"710 630 OFFCURVE",
"692 461 CURVE SMOOTH",
"686 401 OFFCURVE",
"671 335 OFFCURVE",
"635 335 CURVE SMOOTH",
"591 335 OFFCURVE",
"577 419 OFFCURVE",
"563 518 CURVE SMOOTH",
"544 651 OFFCURVE",
"504 912 OFFCURVE",
"475 1033 CURVE SMOOTH",
"449 1140 OFFCURVE",
"392 1197 OFFCURVE",
"297 1197 CURVE SMOOTH",
"197 1197 OFFCURVE",
"124 1135 OFFCURVE",
"105 1005 CURVE SMOOTH",
"95 935 OFFCURVE",
"80 713 OFFCURVE",
"76 487 CURVE SMOOTH",
"73 334 OFFCURVE",
"73 179 OFFCURVE",
"73 68 CURVE SMOOTH",
"73 -1 OFFCURVE",
"74 -48 OFFCURVE",
"116 -48 CURVE SMOOTH"
);
}
);
width = 1303;
}
);
leftKerningGroup = H;
leftMetricsKey = H;
rightKerningGroup = H;
rightMetricsKey = H;
unicode = 004D;
},
{
glyphname = N;
lastChange = "2020-04-11 20:58:25 +0000";
layers = (
{
anchors = (
{
name = bottom;
position = "{801, 0}";
},
{
name = top;
position = "{1056, 1183}";
}
);
layerId = "307B7D8E-54CC-4996-A0B0-7E3456408354";
paths = (
{
closed = 1;
nodes = (
"369 -48 OFFCURVE",
"454 -19 OFFCURVE",
"507 30 CURVE SMOOTH",
"541 62 OFFCURVE",
"564 117 OFFCURVE",
"580 186 CURVE SMOOTH",
"598 265 OFFCURVE",
"618 347 OFFCURVE",
"663 347 CURVE SMOOTH",
"711 347 OFFCURVE",
"742 328 OFFCURVE",
"827 207 CURVE SMOOTH",
"921 73 OFFCURVE",
"1035 -27 OFFCURVE",
"1177 -27 CURVE SMOOTH",
"1354 -27 OFFCURVE",
"1463 53 OFFCURVE",
"1558 206 CURVE SMOOTH",
"1686 412 OFFCURVE",
"1802 745 OFFCURVE",
"1802 930 CURVE SMOOTH",
"1802 1070 OFFCURVE",
"1735 1151 OFFCURVE",
"1559 1151 CURVE SMOOTH",
"1422 1151 OFFCURVE",
"1329 1105 OFFCURVE",
"1293 1014 CURVE SMOOTH",
"1271 959 OFFCURVE",
"1239 882 OFFCURVE",
"1205 844 CURVE SMOOTH",
"1183 819 OFFCURVE",
"1158 803 OFFCURVE",
"1126 803 CURVE SMOOTH",
"1072 803 OFFCURVE",
"1001 888 OFFCURVE",
"929 975 CURVE SMOOTH",
"818 1110 OFFCURVE",
"763 1167 OFFCURVE",
"593 1167 CURVE SMOOTH",
"289 1167 OFFCURVE",
"22 559 OFFCURVE",
"22 285 CURVE SMOOTH",
"22 181 OFFCURVE",
"37 94 OFFCURVE",
"60 53 CURVE SMOOTH",
"96 -10 OFFCURVE",
"155 -48 OFFCURVE",
"265 -48 CURVE SMOOTH"
);
}
);
width = 1773;
},
{
anchors = (
{
name = bottom;
position = "{561, 0}";
},
{
name = top;
position = "{776, 1167}";
}
);
layerId = "AE979D1C-FDDA-49FD-8CD9-3E2A42843A18";
paths = (
{
closed = 1;
nodes = (
"98 -48 OFFCURVE",
"110 -34 OFFCURVE",
"128 46 CURVE SMOOTH",
"173 244 OFFCURVE",
"214 661 OFFCURVE",
"274 915 CURVE SMOOTH",
"296 1008 OFFCURVE",
"318 1081 OFFCURVE",
"341 1081 CURVE SMOOTH",
"368 1081 OFFCURVE",
"475 834 OFFCURVE",
"587 556 CURVE SMOOTH",
"721 223 OFFCURVE",
"825 -18 OFFCURVE",
"925 -18 CURVE SMOOTH",
"1021 -18 OFFCURVE",
"1082 165 OFFCURVE",
"1117 314 CURVE SMOOTH",
"1142 421 OFFCURVE",
"1261 1055 OFFCURVE",
"1261 1130 CURVE SMOOTH",
"1261 1160 OFFCURVE",
"1253 1167 OFFCURVE",
"1240 1167 CURVE SMOOTH",
"1218 1167 OFFCURVE",
"1206 1152 OFFCURVE",
"1191 1085 CURVE SMOOTH",
"1179 1032 OFFCURVE",
"1107 580 OFFCURVE",
"1049 327 CURVE SMOOTH",
"1007 144 OFFCURVE",
"966 56 OFFCURVE",
"928 56 CURVE SMOOTH",
"882 56 OFFCURVE",
"793 217 OFFCURVE",
"641 605 CURVE SMOOTH",
"483 1009 OFFCURVE",
"412 1171 OFFCURVE",
"337 1171 CURVE SMOOTH",
"254 1171 OFFCURVE",
"222 1012 OFFCURVE",
"178 775 CURVE SMOOTH",
"130 522 OFFCURVE",
"49 66 OFFCURVE",
"49 1 CURVE SMOOTH",
"49 -31 OFFCURVE",
"56 -48 OFFCURVE",
"72 -48 CURVE SMOOTH"
);
}
);
width = 1253;
},
{
anchors = (
{
name = bottom;
position = "{728, 0}";
},
{
name = top;
position = "{361, 1167}";
}
);
layerId = "A5079BDB-9783-4F5E-864F-267B8C6F09C1";
paths = (
{
closed = 1;
nodes = (
"280 -48 OFFCURVE",
"288 -43 OFFCURVE",
"288 -23 CURVE SMOOTH",
"288 68 OFFCURVE",
"1 935 OFFCURVE",
"1 1037 CURVE SMOOTH",
"1 1059 OFFCURVE",
"1 1078 OFFCURVE",
"16 1078 CURVE SMOOTH",
"43 1078 OFFCURVE",
"255 836 OFFCURVE",
"493 556 CURVE SMOOTH",
"777 222 OFFCURVE",
"991 -18 OFFCURVE",
"1086 -18 CURVE SMOOTH",
"1137 -18 OFFCURVE",
"1172 33 OFFCURVE",
"1172 104 CURVE SMOOTH",
"1172 244 OFFCURVE",
"1046 699 OFFCURVE",
"966 961 CURVE SMOOTH",
"932 1068 OFFCURVE",
"909 1167 OFFCURVE",
"871 1167 CURVE SMOOTH",
"858 1167 OFFCURVE",
"851 1162 OFFCURVE",
"851 1143 CURVE SMOOTH",
"851 1059 OFFCURVE",
"1099 257 OFFCURVE",
"1099 128 CURVE SMOOTH",
"1099 84 OFFCURVE",
"1092 53 OFFCURVE",
"1073 53 CURVE SMOOTH",
"1027 53 OFFCURVE",
"873 217 OFFCURVE",
"541 605 CURVE SMOOTH",
"196 1009 OFFCURVE",
"56 1171 OFFCURVE",
"-21 1171 CURVE SMOOTH",
"-58 1171 OFFCURVE",
"-79 1144 OFFCURVE",
"-79 1100 CURVE SMOOTH",
"-79 983 OFFCURVE",
"142 222 OFFCURVE",
"201 46 CURVE SMOOTH",
"221 -14 OFFCURVE",
"242 -48 OFFCURVE",
"265 -48 CURVE SMOOTH"
);
}
);
width = 1247;
},
{
anchors = (
{
name = bottom;
position = "{963, 0}";
},
{
name = top;
position = "{630, 1183}";
}
);
layerId = "AE80B40C-E5A8-4B5C-A94B-22B98FE5A19F";
paths = (
{
closed = 1;
nodes = (
"565 -48 OFFCURVE",
"664 -13 OFFCURVE",
"664 93 CURVE SMOOTH",
"664 161 OFFCURVE",
"632 236 OFFCURVE",
"632 302 CURVE SMOOTH",
"632 329 OFFCURVE",
"639 347 OFFCURVE",
"660 347 CURVE SMOOTH",
"708 347 OFFCURVE",
"751 332 OFFCURVE",
"888 207 CURVE SMOOTH",
"1035 73 OFFCURVE",
"1196 -27 OFFCURVE",
"1336 -27 CURVE SMOOTH",
"1507 -27 OFFCURVE",
"1592 65 OFFCURVE",
"1611 227 CURVE SMOOTH",
"1622 319 OFFCURVE",
"1623 377 OFFCURVE",
"1623 591 CURVE SMOOTH",
"1623 833 OFFCURVE",
"1540 1151 OFFCURVE",
"1244 1151 CURVE SMOOTH",
"1067 1151 OFFCURVE",
"985 1098 OFFCURVE",
"985 943 CURVE SMOOTH",
"985 905 OFFCURVE",
"982 868 OFFCURVE",
"972 844 CURVE SMOOTH",
"962 819 OFFCURVE",
"945 803 OFFCURVE",
"913 803 CURVE SMOOTH",
"869 803 OFFCURVE",
"758 888 OFFCURVE",
"646 975 CURVE SMOOTH",
"473 1110 OFFCURVE",
"392 1167 OFFCURVE",
"222 1167 CURVE SMOOTH",
"35 1167 OFFCURVE",
"-44 1041 OFFCURVE",
"-44 843 CURVE SMOOTH",
"-44 596 OFFCURVE",
"51 193 OFFCURVE",
"193 53 CURVE SMOOTH",
"257 -10 OFFCURVE",
"334 -48 OFFCURVE",
"444 -48 CURVE SMOOTH"
);
}
);
width = 1777;
},
{
anchors = (
{
name = bottom;
position = "{875, 0}";
},
{
name = top;
position = "{859, 1183}";
}
);
layerId = "6282282A-FA3F-4DEE-9DB6-5D5B2A6C152F";
paths = (
{
closed = 1;
nodes = (
"458 -48 OFFCURVE",
"537 -19 OFFCURVE",
"578 30 CURVE SMOOTH",
"605 62 OFFCURVE",
"615 117 OFFCURVE",
"615 186 CURVE SMOOTH",
"615 265 OFFCURVE",
"616 347 OFFCURVE",
"661 347 CURVE SMOOTH",
"709 347 OFFCURVE",
"744 328 OFFCURVE",
"857 207 CURVE SMOOTH",
"980 75 OFFCURVE",
"1115 -25 OFFCURVE",
"1254 -27 CURVE SMOOTH",
"1430 -30 OFFCURVE",
"1527 46 OFFCURVE",
"1591 209 CURVE SMOOTH",
"1653 368 OFFCURVE",
"1682 586 OFFCURVE",
"1682 755 CURVE SMOOTH",
"1682 1002 OFFCURVE",
"1611 1151 OFFCURVE",
"1371 1151 CURVE SMOOTH",
"1234 1151 OFFCURVE",
"1152 1105 OFFCURVE",
"1137 1014 CURVE SMOOTH",
"1128 959 OFFCURVE",
"1112 883 OFFCURVE",
"1088 844 CURVE SMOOTH",
"1072 819 OFFCURVE",
"1051 803 OFFCURVE",
"1019 803 CURVE SMOOTH",
"965 803 OFFCURVE",
"874 888 OFFCURVE",
"782 975 CURVE SMOOTH",
"639 1109 OFFCURVE",
"572 1167 OFFCURVE",
"402 1167 CURVE SMOOTH",
"112 1167 OFFCURVE",
"37 865 OFFCURVE",
"37 458 CURVE SMOOTH",
"37 301 OFFCURVE",
"50 149 OFFCURVE",
"126 53 CURVE SMOOTH",
"176 -10 OFFCURVE",
"244 -48 OFFCURVE",
"354 -48 CURVE SMOOTH"
);
}
);
width = 1752;
},
{
anchors = (
{
name = bottom;
position = "{639, 0}";
},
{
name = top;
position = "{586, 1167}";
}
);
layerId = "4C364951-5780-4BC6-AB35-57CC8C56127C";
paths = (
{
closed = 1;
nodes = (
"188 -48 OFFCURVE",
"196 -34 OFFCURVE",
"196 46 CURVE SMOOTH",
"196 244 OFFCURVE",
"141 661 OFFCURVE",
"141 915 CURVE SMOOTH",
"141 1008 OFFCURVE",
"145 1081 OFFCURVE",
"168 1081 CURVE SMOOTH",
"198 1081 OFFCURVE",
"357 834 OFFCURVE",
"533 556 CURVE SMOOTH",
"744 223 OFFCURVE",
"898 -18 OFFCURVE",
"998 -18 CURVE SMOOTH",
"1094 -18 OFFCURVE",
"1123 165 OFFCURVE",
"1123 314 CURVE SMOOTH",
"1123 445 OFFCURVE",
"1095 986 OFFCURVE",
"1086 1080 CURVE SMOOTH",
"1078 1153 OFFCURVE",
"1068 1167 OFFCURVE",
"1049 1167 CURVE SMOOTH",
"1027 1167 OFFCURVE",
"1019 1152 OFFCURVE",
"1019 1085 CURVE SMOOTH",
"1019 1032 OFFCURVE",
"1052 580 OFFCURVE",
"1052 327 CURVE SMOOTH",
"1052 144 OFFCURVE",
"1034 60 OFFCURVE",
"996 60 CURVE SMOOTH",
"950 60 OFFCURVE",
"826 217 OFFCURVE",
"584 605 CURVE SMOOTH",
"332 1009 OFFCURVE",
"230 1171 OFFCURVE",
"160 1171 CURVE SMOOTH",
"86 1171 OFFCURVE",
"73 1059 OFFCURVE",
"73 931 CURVE SMOOTH",
"73 809 OFFCURVE",
"109 147 OFFCURVE",
"120 46 CURVE SMOOTH",
"127 -14 OFFCURVE",
"139 -48 OFFCURVE",
"162 -48 CURVE SMOOTH"
);
}
);
width = 1250;
}
);
leftKerningGroup = H;
leftMetricsKey = H;
rightKerningGroup = H;
rightMetricsKey = H;
unicode = 004E;
},
{
glyphname = Eng;
lastChange = "2020-04-11 20:58:25 +0000";
layers = (
{
components = (
{
name = N;
}
);
layerId = "307B7D8E-54CC-4996-A0B0-7E3456408354";
paths = (
{
closed = 1;
nodes = (
"1108 -493 OFFCURVE",
"1429 -3 OFFCURVE",
"1558 206 CURVE",
"942 99 LINE",
"942 49 OFFCURVE",
"909 -30 OFFCURVE",
"867 -70 CURVE SMOOTH",
"840 -96 OFFCURVE",
"808 -109 OFFCURVE",
"744 -119 CURVE SMOOTH",
"688 -129 OFFCURVE",
"617 -140 OFFCURVE",
"563 -150 CURVE SMOOTH",
"497 -162 OFFCURVE",
"399 -212 OFFCURVE",
"399 -320 CURVE SMOOTH",
"399 -470 OFFCURVE",
"525 -490 OFFCURVE",
"688 -491 CURVE SMOOTH"
);
}
);
width = 1773;
},
{
components = (
{
name = N;
}
);
layerId = "AE979D1C-FDDA-49FD-8CD9-3E2A42843A18";
paths = (
{
closed = 1;
nodes = (
"884 -365 OFFCURVE",
"1010 -113 OFFCURVE",
"1117 314 CURVE",
"941 26 LINE",
"917 -68 OFFCURVE",
"859 -154 OFFCURVE",
"812 -207 CURVE SMOOTH",
"745 -282 OFFCURVE",
"694 -307 OFFCURVE",
"621 -307 CURVE SMOOTH",
"597 -307 OFFCURVE",
"552 -292 OFFCURVE",
"517 -292 CURVE SMOOTH",
"495 -292 OFFCURVE",
"471 -295 OFFCURVE",
"471 -322 CURVE SMOOTH",
"471 -351 OFFCURVE",
"547 -365 OFFCURVE",
"597 -365 CURVE SMOOTH"
);
}
);
width = 1253;
},
{
components = (
{
name = N;
}
);
layerId = "A5079BDB-9783-4F5E-864F-267B8C6F09C1";
paths = (
{
closed = 1;
nodes = (
"1127 -365 OFFCURVE",
"1172 -173 OFFCURVE",
"1172 104 CURVE",
"1096 26 LINE",
"1096 -68 OFFCURVE",
"1089 -154 OFFCURVE",
"1068 -207 CURVE SMOOTH",
"1039 -282 OFFCURVE",
"1011 -307 OFFCURVE",
"948 -307 CURVE SMOOTH",
"924 -307 OFFCURVE",
"872 -292 OFFCURVE",
"837 -292 CURVE SMOOTH",
"815 -292 OFFCURVE",
"805 -300 OFFCURVE",
"805 -322 CURVE SMOOTH",
"805 -351 OFFCURVE",
"903 -365 OFFCURVE",
"953 -365 CURVE SMOOTH"
);
}
);
width = 1247;
},
{
components = (
{
name = N;
}
);
layerId = "AE80B40C-E5A8-4B5C-A94B-22B98FE5A19F";
paths = (
{
closed = 1;
nodes = (
"1450 -493 OFFCURVE",
"1586 18 OFFCURVE",
"1611 227 CURVE",
"1122 63 LINE",
"1122 42 OFFCURVE",
"1115 -30 OFFCURVE",
"1093 -70 CURVE SMOOTH",
"1080 -96 OFFCURVE",
"1069 -109 OFFCURVE",
"1011 -119 CURVE SMOOTH",
"959 -129 OFFCURVE",
"902 -136 OFFCURVE",
"852 -146 CURVE SMOOTH",
"792 -158 OFFCURVE",
"731 -194 OFFCURVE",
"731 -321 CURVE SMOOTH",
"731 -476 OFFCURVE",
"865 -490 OFFCURVE",
"1028 -491 CURVE SMOOTH"
);
}
);
width = 1777;
},
{
components = (
{
name = N;
}
);
layerId = "6282282A-FA3F-4DEE-9DB6-5D5B2A6C152F";
paths = (
{
closed = 1;
nodes = (
"1275 -493 OFFCURVE",
"1514 0 OFFCURVE",
"1591 209 CURVE",
"1023 63 LINE",
"1023 42 OFFCURVE",
"1023 -30 OFFCURVE",
"991 -70 CURVE SMOOTH",
"971 -96 OFFCURVE",
"957 -109 OFFCURVE",
"896 -119 CURVE SMOOTH",
"842 -129 OFFCURVE",
"774 -140 OFFCURVE",
"722 -150 CURVE SMOOTH",
"659 -162 OFFCURVE",
"610 -202 OFFCURVE",
"610 -277 CURVE SMOOTH",
"610 -403 OFFCURVE",
"691 -490 OFFCURVE",
"854 -491 CURVE SMOOTH"
);
}
);
width = 1752;
},
{
components = (
{
name = N;
}
);
layerId = "4C364951-5780-4BC6-AB35-57CC8C56127C";
paths = (
{
closed = 1;
nodes = (
"1047 -365 OFFCURVE",
"1123 -113 OFFCURVE",
"1123 314 CURVE",
"1018 41 LINE",
"1018 -53 OFFCURVE",
"979 -154 OFFCURVE",
"945 -207 CURVE SMOOTH",
"897 -282 OFFCURVE",
"852 -307 OFFCURVE",
"779 -307 CURVE SMOOTH",
"755 -307 OFFCURVE",
"706 -292 OFFCURVE",
"671 -292 CURVE SMOOTH",
"649 -292 OFFCURVE",
"633 -305 OFFCURVE",
"633 -322 CURVE SMOOTH",
"633 -351 OFFCURVE",
"710 -365 OFFCURVE",
"760 -365 CURVE SMOOTH"
);
}
);
width = 1250;
}
);
leftKerningGroup = H;
leftMetricsKey = H;
rightKerningGroup = H;
rightMetricsKey = H;
unicode = 014A;
},
{
glyphname = O;
lastChange = "2020-02-28 20:11:25 +0000";
layers = (
{
anchors = (
{
name = bottom;
position = "{797, 0}";
},
{
name = center;
position = "{930, 583}";
},
{
name = ogonek;
position = "{1439, 66}";
},
{
name = top;
position = "{1058, 1228}";
},
{
name = topleft;
position = "{258, 1167}";
},
{
name = topright;
position = "{1510, 970}";
}
);
layerId = "307B7D8E-54CC-4996-A0B0-7E3456408354";
paths = (
{
closed = 1;
nodes = (
"1179 -108 OFFCURVE",
"1679 208 OFFCURVE",
"1679 685 CURVE SMOOTH",
"1679 993 OFFCURVE",
"1399 1193 OFFCURVE",
"1030 1193 CURVE SMOOTH",
"515 1193 OFFCURVE",
"53 868 OFFCURVE",
"53 379 CURVE SMOOTH",
"53 71 OFFCURVE",
"320 -108 OFFCURVE",
"673 -108 CURVE SMOOTH"
);
},
{
closed = 1;
nodes = (
"780 476 OFFCURVE",
"745 529 OFFCURVE",
"745 592 CURVE SMOOTH",
"745 701 OFFCURVE",
"834 768 OFFCURVE",
"945 768 CURVE SMOOTH",
"1024 768 OFFCURVE",
"1074 713 OFFCURVE",
"1074 646 CURVE SMOOTH",
"1074 550 OFFCURVE",
"990 476 OFFCURVE",
"875 476 CURVE SMOOTH"
);
}
);
width = 1710;
},
{
anchors = (
{
name = bottom;
position = "{693, 0}";
},
{
name = center;
position = "{827, 583}";
},
{
name = ogonek;
position = "{1291, 0}";
},
{
name = top;
position = "{943, 1162}";
},
{
name = topleft;
position = "{155, 1167}";
},
{
name = topright;
position = "{1421, 963}";
}
);
layerId = "AE979D1C-FDDA-49FD-8CD9-3E2A42843A18";
paths = (
{
closed = 1;
nodes = (
"1134 -102 OFFCURVE",
"1493 195 OFFCURVE",
"1493 691 CURVE SMOOTH",
"1493 987 OFFCURVE",
"1289 1193 OFFCURVE",
"939 1193 CURVE SMOOTH",
"478 1193 OFFCURVE",
"94 883 OFFCURVE",
"94 414 CURVE SMOOTH",
"94 106 OFFCURVE",
"292 -102 OFFCURVE",
"621 -102 CURVE SMOOTH"
);
},
{
closed = 1;
nodes = (
"359 -33 OFFCURVE",
"174 134 OFFCURVE",
"174 420 CURVE SMOOTH",
"174 838 OFFCURVE",
"519 1132 OFFCURVE",
"938 1132 CURVE SMOOTH",
"1222 1132 OFFCURVE",
"1421 976 OFFCURVE",
"1421 694 CURVE SMOOTH",
"1421 238 OFFCURVE",
"1111 -33 OFFCURVE",
"631 -33 CURVE SMOOTH"
);
}
);
width = 1530;
},
{
anchors = (
{
name = bottom;
position = "{875, 0}";
},
{
name = center;
position = "{718, 583}";
},
{
name = ogonek;
position = "{1430, 0}";
},
{
name = top;
position = "{547, 1162}";
},
{
name = topleft;
position = "{-245, 1167}";
},
{
name = topright;
position = "{1150, 963}";
}
);
layerId = "A5079BDB-9783-4F5E-864F-267B8C6F09C1";
paths = (
{
closed = 1;
nodes = (
"1193 -102 OFFCURVE",
"1409 84 OFFCURVE",
"1409 391 CURVE SMOOTH",
"1409 863 OFFCURVE",
"1051 1193 OFFCURVE",
"565 1193 CURVE SMOOTH",
"313 1193 OFFCURVE",
"-2 1060 OFFCURVE",
"-2 700 CURVE SMOOTH",
"-2 261 OFFCURVE",
"353 -102 OFFCURVE",
"801 -102 CURVE SMOOTH"
);
},
{
closed = 1;
nodes = (
"394 -33 OFFCURVE",
"76 299 OFFCURVE",
"76 696 CURVE SMOOTH",
"76 968 OFFCURVE",
"286 1132 OFFCURVE",
"582 1132 CURVE SMOOTH",
"1010 1132 OFFCURVE",
"1336 819 OFFCURVE",
"1336 397 CURVE SMOOTH",
"1336 165 OFFCURVE",
"1197 -33 OFFCURVE",
"793 -33 CURVE SMOOTH"
);
}
);
width = 1530;
},
{
anchors = (
{
name = bottom;
position = "{978, 0}";
},
{
name = center;
position = "{822, 583}";
},
{
name = ogonek;
position = "{1509, 53}";
},
{
name = top;
position = "{627, 1228}";
},
{
name = topleft;
position = "{-142, 1167}";
},
{
name = topright;
position = "{1308, 970}";
}
);
layerId = "AE80B40C-E5A8-4B5C-A94B-22B98FE5A19F";
paths = (
{
closed = 1;
nodes = (
"1244 -108 OFFCURVE",
"1592 107 OFFCURVE",
"1592 456 CURVE SMOOTH",
"1592 891 OFFCURVE",
"1160 1193 OFFCURVE",
"696 1193 CURVE SMOOTH",
"294 1193 OFFCURVE",
"1 991 OFFCURVE",
"1 636 CURVE SMOOTH",
"1 189 OFFCURVE",
"371 -108 OFFCURVE",
"839 -108 CURVE SMOOTH"
);
},
{
closed = 1;
nodes = (
"731 476 OFFCURVE",
"632 537 OFFCURVE",
"632 634 CURVE SMOOTH",
"632 716 OFFCURVE",
"694 768 OFFCURVE",
"776 768 CURVE SMOOTH",
"882 768 OFFCURVE",
"966 694 OFFCURVE",
"966 593 CURVE SMOOTH",
"966 535 OFFCURVE",
"927 476 OFFCURVE",
"816 476 CURVE SMOOTH"
);
}
);
width = 1710;
},
{
anchors = (
{
name = bottom;
position = "{872, 0}";
},
{
name = center;
position = "{872, 583}";
},
{
name = ogonek;
position = "{1433, 63}";
},
{
name = top;
position = "{850, 1228}";
},
{
name = topleft;
position = "{65, 1167}";
},
{
name = topright;
position = "{1410, 970}";
}
);
layerId = "6282282A-FA3F-4DEE-9DB6-5D5B2A6C152F";
paths = (
{
closed = 1;
nodes = (
"1172 -108 OFFCURVE",
"1615 162 OFFCURVE",
"1615 587 CURVE SMOOTH",
"1615 970 OFFCURVE",
"1262 1193 OFFCURVE",
"855 1193 CURVE SMOOTH",
"392 1193 OFFCURVE",
"33 925 OFFCURVE",
"33 465 CURVE SMOOTH",
"33 95 OFFCURVE",
"333 -108 OFFCURVE",
"718 -108 CURVE SMOOTH"
);
},
{
closed = 1;
nodes = (
"745 476 OFFCURVE",
"683 563 OFFCURVE",
"683 634 CURVE SMOOTH",
"683 715 OFFCURVE",
"766 768 OFFCURVE",
"848 768 CURVE SMOOTH",
"939 768 OFFCURVE",
"1009 695 OFFCURVE",
"1009 616 CURVE SMOOTH",
"1009 553 OFFCURVE",
"958 476 OFFCURVE",
"830 476 CURVE SMOOTH"
);
}
);
width = 1710;
},
{
anchors = (
{
name = bottom;
position = "{768, 0}";
},
{
name = center;
position = "{768, 583}";
},
{
name = ogonek;
position = "{1294, -22}";
},
{
name = top;
position = "{752, 1162}";
},
{
name = topleft;
position = "{-38, 1167}";
},
{
name = topright;
position = "{1262, 963}";
}
);
layerId = "4C364951-5780-4BC6-AB35-57CC8C56127C";
paths = (
{
closed = 1;
nodes = (
"1142 -102 OFFCURVE",
"1430 117 OFFCURVE",
"1430 542 CURVE SMOOTH",
"1430 925 OFFCURVE",
"1158 1193 OFFCURVE",
"752 1193 CURVE SMOOTH",
"473 1193 OFFCURVE",
"55 1038 OFFCURVE",
"55 578 CURVE SMOOTH",
"55 175 OFFCURVE",
"305 -102 OFFCURVE",
"690 -102 CURVE SMOOTH"
);
},
{
closed = 1;
nodes = (
"373 -33 OFFCURVE",
"135 195 OFFCURVE",
"135 598 CURVE SMOOTH",
"135 927 OFFCURVE",
"425 1132 OFFCURVE",
"755 1132 CURVE SMOOTH",
"1088 1132 OFFCURVE",
"1357 927 OFFCURVE",
"1357 537 CURVE SMOOTH",
"1357 220 OFFCURVE",
"1180 -33 OFFCURVE",
"697 -33 CURVE SMOOTH"
);
}
);
width = 1530;
}
);
leftKerningGroup = O;
rightKerningGroup = O;
unicode = 004F;
},
{
glyphname = Oslash;
lastChange = "2020-01-31 16:00:40 +0000";
layers = (
{
anchors = (
{
name = bottom;
position = "{765, 0}";
},
{
name = top;
position = "{1023, 1193}";
}
);
components = (
{
name = O;
}
);
layerId = "307B7D8E-54CC-4996-A0B0-7E3456408354";
paths = (
{
closed = 1;
nodes = (
"-33 -225 OFFCURVE",
"95 -197 OFFCURVE",
"217 -138 CURVE SMOOTH",
"348 -75 OFFCURVE",
"493 30 OFFCURVE",
"607 135 CURVE SMOOTH",
"768 282 OFFCURVE",
"883 408 OFFCURVE",
"782 503 CURVE SMOOTH",
"697 578 OFFCURVE",
"612 550 OFFCURVE",
"457 465 CURVE SMOOTH",
"275 365 OFFCURVE",
"37 192 OFFCURVE",
"-72 35 CURVE SMOOTH",
"-122 -38 OFFCURVE",
"-138 -107 OFFCURVE",
"-95 -155 CURVE SMOOTH"
);
},
{
closed = 1;
nodes = (
"1435 778 OFFCURVE",
"1545 847 OFFCURVE",
"1633 922 CURVE SMOOTH",
"1767 1033 OFFCURVE",
"1850 1158 OFFCURVE",
"1778 1258 CURVE SMOOTH",
"1702 1357 OFFCURVE",
"1587 1310 OFFCURVE",
"1425 1205 CURVE SMOOTH",
"1323 1140 OFFCURVE",
"1217 1058 OFFCURVE",
"1132 980 CURVE SMOOTH",
"1007 863 OFFCURVE",
"983 797 OFFCURVE",
"1030 745 CURVE SMOOTH",
"1083 687 OFFCURVE",
"1218 698 OFFCURVE",
"1330 740 CURVE SMOOTH"
);
}
);
width = 1678;
},
{
anchors = (
{
name = bottom;
position = "{690, 0}";
},
{
name = top;
position = "{958, 1167}";
}
);
components = (
{
name = O;
}
);
layerId = "AE979D1C-FDDA-49FD-8CD9-3E2A42843A18";
paths = (
{
closed = 1;
nodes = (
"1377 963 OFFCURVE",
"1388 943 OFFCURVE",
"1448 990 CURVE SMOOTH",
"1518 1045 OFFCURVE",
"1577 1103 OFFCURVE",
"1633 1148 CURVE SMOOTH",
"1713 1217 OFFCURVE",
"1765 1262 OFFCURVE",
"1742 1287 CURVE SMOOTH",
"1715 1315 OFFCURVE",
"1683 1278 OFFCURVE",
"1593 1198 CURVE SMOOTH",
"1527 1140 OFFCURVE",
"1458 1075 OFFCURVE",
"1422 1048 CURVE SMOOTH",
"1370 1012 OFFCURVE",
"1358 998 OFFCURVE",
"1367 983 CURVE SMOOTH"
);
},
{
closed = 1;
nodes = (
"-117 -208 OFFCURVE",
"-67 -172 OFFCURVE",
"-18 -137 CURVE SMOOTH",
"43 -92 OFFCURVE",
"88 -60 OFFCURVE",
"142 -18 CURVE SMOOTH",
"208 35 OFFCURVE",
"275 75 OFFCURVE",
"252 97 CURVE SMOOTH",
"228 118 OFFCURVE",
"202 93 OFFCURVE",
"140 48 CURVE SMOOTH",
"57 -12 OFFCURVE",
"-27 -67 OFFCURVE",
"-82 -110 CURVE SMOOTH",
"-113 -137 OFFCURVE",
"-155 -173 OFFCURVE",
"-133 -193 CURVE SMOOTH"
);
}
);
width = 1530;
},
{
anchors = (
{
name = bottom;
position = "{872, 0}";
},
{
name = top;
position = "{558, 1167}";
}
);
components = (
{
name = O;
}
);
layerId = "A5079BDB-9783-4F5E-864F-267B8C6F09C1";
paths = (
{
closed = 1;
nodes = (
"1078 963 OFFCURVE",
"1100 943 OFFCURVE",
"1137 990 CURVE SMOOTH",
"1180 1045 OFFCURVE",
"1210 1103 OFFCURVE",
"1242 1148 CURVE SMOOTH",
"1288 1217 OFFCURVE",
"1318 1262 OFFCURVE",
"1282 1287 CURVE SMOOTH",
"1242 1315 OFFCURVE",
"1227 1278 OFFCURVE",
"1177 1198 CURVE SMOOTH",
"1142 1140 OFFCURVE",
"1105 1075 OFFCURVE",
"1080 1048 CURVE SMOOTH",
"1047 1012 OFFCURVE",
"1042 998 OFFCURVE",
"1058 983 CURVE SMOOTH"
);
},
{
closed = 1;
nodes = (
"168 -208 OFFCURVE",
"202 -172 OFFCURVE",
"232 -137 CURVE SMOOTH",
"272 -92 OFFCURVE",
"302 -60 OFFCURVE",
"333 -18 CURVE SMOOTH",
"373 35 OFFCURVE",
"420 75 OFFCURVE",
"385 97 CURVE SMOOTH",
"352 118 OFFCURVE",
"338 93 OFFCURVE",
"298 48 CURVE SMOOTH",
"245 -12 OFFCURVE",
"190 -67 OFFCURVE",
"157 -110 CURVE SMOOTH",
"137 -137 OFFCURVE",
"113 -173 OFFCURVE",
"145 -193 CURVE SMOOTH"
);
}
);
width = 1530;
},
{
anchors = (
{
name = bottom;
position = "{947, 0}";
},
{
name = top;
position = "{610, 1193}";
}
);
components = (
{
name = O;
}
);
layerId = "AE80B40C-E5A8-4B5C-A94B-22B98FE5A19F";
paths = (
{
closed = 1;
nodes = (
"262 -225 OFFCURVE",
"377 -197 OFFCURVE",
"468 -138 CURVE SMOOTH",
"568 -75 OFFCURVE",
"660 30 OFFCURVE",
"722 135 CURVE SMOOTH",
"810 282 OFFCURVE",
"862 408 OFFCURVE",
"713 503 CURVE SMOOTH",
"590 578 OFFCURVE",
"520 550 OFFCURVE",
"407 465 CURVE SMOOTH",
"275 365 OFFCURVE",
"123 192 OFFCURVE",
"93 35 CURVE SMOOTH",
"80 -38 OFFCURVE",
"97 -107 OFFCURVE",
"165 -155 CURVE SMOOTH"
);
},
{
closed = 1;
nodes = (
"1230 778 OFFCURVE",
"1305 847 OFFCURVE",
"1357 922 CURVE SMOOTH",
"1433 1033 OFFCURVE",
"1455 1158 OFFCURVE",
"1333 1258 CURVE SMOOTH",
"1208 1357 OFFCURVE",
"1115 1310 OFFCURVE",
"1007 1205 CURVE SMOOTH",
"938 1140 OFFCURVE",
"872 1058 OFFCURVE",
"825 980 CURVE SMOOTH",
"758 863 OFFCURVE",
"768 797 OFFCURVE",
"840 745 CURVE SMOOTH",
"923 687 OFFCURVE",
"1053 698 OFFCURVE",
"1143 740 CURVE SMOOTH"
);
}
);
width = 1678;
},
{
anchors = (
{
name = bottom;
position = "{840, 0}";
},
{
name = top;
position = "{823, 1193}";
}
);
components = (
{
name = O;
}
);
layerId = "6282282A-FA3F-4DEE-9DB6-5D5B2A6C152F";
paths = (
{
closed = 1;
nodes = (
"95 -225 OFFCURVE",
"217 -197 OFFCURVE",
"325 -138 CURVE SMOOTH",
"442 -75 OFFCURVE",
"562 30 OFFCURVE",
"652 135 CURVE SMOOTH",
"778 282 OFFCURVE",
"865 408 OFFCURVE",
"742 503 CURVE SMOOTH",
"638 578 OFFCURVE",
"560 550 OFFCURVE",
"425 465 CURVE SMOOTH",
"267 365 OFFCURVE",
"68 192 OFFCURVE",
"-3 35 CURVE SMOOTH",
"-37 -38 OFFCURVE",
"-38 -107 OFFCURVE",
"17 -155 CURVE SMOOTH"
);
},
{
closed = 1;
nodes = (
"1332 778 OFFCURVE",
"1425 847 OFFCURVE",
"1497 922 CURVE SMOOTH",
"1603 1033 OFFCURVE",
"1658 1158 OFFCURVE",
"1563 1258 CURVE SMOOTH",
"1465 1357 OFFCURVE",
"1360 1310 OFFCURVE",
"1223 1205 CURVE SMOOTH",
"1137 1140 OFFCURVE",
"1048 1058 OFFCURVE",
"982 980 CURVE SMOOTH",
"883 863 OFFCURVE",
"875 797 OFFCURVE",
"933 745 CURVE SMOOTH",
"1000 687 OFFCURVE",
"1133 698 OFFCURVE",
"1235 740 CURVE SMOOTH"
);
}
);
width = 1678;
},
{
anchors = (
{
name = bottom;
position = "{765, 0}";
},
{
name = top;
position = "{765, 1167}";
}
);
components = (
{
name = O;
}
);
layerId = "4C364951-5780-4BC6-AB35-57CC8C56127C";
paths = (
{
closed = 1;
nodes = (
"1230 963 OFFCURVE",
"1247 943 OFFCURVE",
"1295 990 CURVE SMOOTH",
"1353 1045 OFFCURVE",
"1398 1103 OFFCURVE",
"1443 1148 CURVE SMOOTH",
"1508 1217 OFFCURVE",
"1550 1262 OFFCURVE",
"1520 1287 CURVE SMOOTH",
"1487 1315 OFFCURVE",
"1463 1278 OFFCURVE",
"1392 1198 CURVE SMOOTH",
"1340 1140 OFFCURVE",
"1287 1075 OFFCURVE",
"1255 1048 CURVE SMOOTH",
"1212 1012 OFFCURVE",
"1203 998 OFFCURVE",
"1215 983 CURVE SMOOTH"
);
},
{
closed = 1;
nodes = (
"7 -208 OFFCURVE",
"48 -172 OFFCURVE",
"88 -137 CURVE SMOOTH",
"140 -92 OFFCURVE",
"178 -60 OFFCURVE",
"222 -18 CURVE SMOOTH",
"277 35 OFFCURVE",
"333 75 OFFCURVE",
"305 97 CURVE SMOOTH",
"277 118 OFFCURVE",
"257 93 OFFCURVE",
"205 48 CURVE SMOOTH",
"135 -12 OFFCURVE",
"65 -67 OFFCURVE",
"20 -110 CURVE SMOOTH",
"-7 -137 OFFCURVE",
"-40 -173 OFFCURVE",
"-13 -193 CURVE SMOOTH"
);
}
);
width = 1530;
}
);
leftKerningGroup = O;
rightKerningGroup = O;
unicode = 00D8;
},
{
glyphname = P;
lastChange = "2020-01-31 19:41:51 +0000";
layers = (
{
anchors = (
{
name = bottom;
position = "{612, 0}";
},
{
name = top;
position = "{880, 1167}";
}
);
layerId = "307B7D8E-54CC-4996-A0B0-7E3456408354";
paths = (
{
closed = 1;
nodes = (
"500 -24 OFFCURVE",
"586 58 OFFCURVE",
"623 212 CURVE SMOOTH",
"630 241 OFFCURVE",
"635 270 OFFCURVE",
"641 296 CURVE SMOOTH",
"654 352 OFFCURVE",
"667 388 OFFCURVE",
"716 388 CURVE SMOOTH",
"758 388 OFFCURVE",
"812 364 OFFCURVE",
"895 364 CURVE SMOOTH",
"1196 364 OFFCURVE",
"1427 560 OFFCURVE",
"1427 850 CURVE SMOOTH",
"1427 1107 OFFCURVE",
"1159.997 1198 OFFCURVE",
"841 1198 CURVE SMOOTH",
"310 1198 OFFCURVE",
"37 891 OFFCURVE",
"37 355 CURVE SMOOTH",
"37 298 OFFCURVE",
"43 246 OFFCURVE",
"57 205 CURVE SMOOTH",
"102 71 OFFCURVE",
"202 -24 OFFCURVE",
"342 -24 CURVE SMOOTH"
);
},
{
closed = 1;
nodes = (
"729 673 OFFCURVE",
"708 706 OFFCURVE",
"708 748 CURVE SMOOTH",
"708 829 OFFCURVE",
"765 850 OFFCURVE",
"838 850 CURVE SMOOTH",
"876 850 OFFCURVE",
"906 835 OFFCURVE",
"906 800 CURVE SMOOTH",
"906 730 OFFCURVE",
"849 673 OFFCURVE",
"782 673 CURVE SMOOTH"
);
}
);
width = 1358;
},
{
anchors = (
{
name = bottom;
position = "{355, 0}";
},
{
name = top;
position = "{623, 1167}";
}
);
layerId = "AE979D1C-FDDA-49FD-8CD9-3E2A42843A18";
paths = (
{
closed = 1;
nodes = (
"45 -20 OFFCURVE",
"52 -15 OFFCURVE",
"63 31 CURVE SMOOTH",
"82 110 OFFCURVE",
"117 330 OFFCURVE",
"137 420 CURVE SMOOTH",
"147 464 OFFCURVE",
"159 488 OFFCURVE",
"187 488 CURVE SMOOTH",
"292 488 OFFCURVE",
"394 492 OFFCURVE",
"492 502 CURVE SMOOTH",
"785 532 OFFCURVE",
"1083 625 OFFCURVE",
"1083 890 CURVE SMOOTH",
"1083 1099 OFFCURVE",
"840 1199 OFFCURVE",
"545 1199 CURVE SMOOTH",
"350 1199 OFFCURVE",
"235 1136 OFFCURVE",
"167 960 CURVE SMOOTH",
"116 828 OFFCURVE",
"7 174 OFFCURVE",
"7 28 CURVE SMOOTH",
"7 -11 OFFCURVE",
"15 -20 OFFCURVE",
"30 -20 CURVE SMOOTH"
);
},
{
closed = 1;
nodes = (
"184 545 OFFCURVE",
"168 566 OFFCURVE",
"168 621 CURVE SMOOTH",
"168 820 OFFCURVE",
"258 1148 OFFCURVE",
"483 1148 CURVE SMOOTH",
"721 1148 OFFCURVE",
"1017 1099 OFFCURVE",
"1017 883 CURVE SMOOTH",
"1017 592 OFFCURVE",
"549 550 OFFCURVE",
"219 545 CURVE SMOOTH"
);
}
);
width = 1020;
},
{
anchors = (
{
name = bottom;
position = "{537, 0}";
},
{
name = top;
position = "{223, 1167}";
}
);
layerId = "A5079BDB-9783-4F5E-864F-267B8C6F09C1";
paths = (
{
closed = 1;
nodes = (
"214 -20 OFFCURVE",
"220 -18 OFFCURVE",
"220 -5 CURVE SMOOTH",
"220 44 OFFCURVE",
"102 397 OFFCURVE",
"102 461 CURVE SMOOTH",
"102 479 OFFCURVE",
"108 488 OFFCURVE",
"126 488 CURVE SMOOTH",
"231 488 OFFCURVE",
"333 492 OFFCURVE",
"425 502 CURVE SMOOTH",
"681 530 OFFCURVE",
"868 624 OFFCURVE",
"868 785 CURVE SMOOTH",
"868 1064 OFFCURVE",
"487 1199 OFFCURVE",
"156 1199 CURVE SMOOTH",
"-49 1199 OFFCURVE",
"-117 1142 OFFCURVE",
"-117 1001 CURVE SMOOTH",
"-117 905 OFFCURVE",
"-1 521 OFFCURVE",
"105 185 CURVE SMOOTH",
"161 10 OFFCURVE",
"179 -20 OFFCURVE",
"205 -20 CURVE SMOOTH"
);
},
{
closed = 1;
nodes = (
"29 544 OFFCURVE",
"-44 910 OFFCURVE",
"-44 1020 CURVE SMOOTH",
"-44 1111 OFFCURVE",
"6 1148 OFFCURVE",
"183 1148 CURVE SMOOTH",
"398 1148 OFFCURVE",
"798 1045 OFFCURVE",
"798 785 CURVE SMOOTH",
"798 588 OFFCURVE",
"442 550 OFFCURVE",
"122 545 CURVE SMOOTH"
);
}
);
width = 1020;
},
{
anchors = (
{
name = bottom;
position = "{793, 0}";
},
{
name = top;
position = "{480, 1167}";
}
);
layerId = "AE80B40C-E5A8-4B5C-A94B-22B98FE5A19F";
paths = (
{
closed = 1;
nodes = (
"653 -24 OFFCURVE",
"711 28 OFFCURVE",
"711 127 CURVE SMOOTH",
"711 211 OFFCURVE",
"670 293 OFFCURVE",
"670 349 CURVE SMOOTH",
"670 374 OFFCURVE",
"680 388 OFFCURVE",
"711 388 CURVE SMOOTH",
"753 388 OFFCURVE",
"817 364 OFFCURVE",
"900 364 CURVE SMOOTH",
"1119 364 OFFCURVE",
"1257 461 OFFCURVE",
"1257 645 CURVE SMOOTH",
"1257 1029 OFFCURVE",
"876 1198 OFFCURVE",
"462 1198 CURVE SMOOTH",
"106 1198 OFFCURVE",
"-62 1093 OFFCURVE",
"-62 819 CURVE SMOOTH",
"-62 625 OFFCURVE",
"16 357 OFFCURVE",
"136 205 CURVE SMOOTH",
"241 71 OFFCURVE",
"387 -24 OFFCURVE",
"527 -24 CURVE SMOOTH"
);
},
{
closed = 1;
nodes = (
"580 673 OFFCURVE",
"523 726 OFFCURVE",
"523 787 CURVE SMOOTH",
"523 830 OFFCURVE",
"565 850 OFFCURVE",
"619 850 CURVE SMOOTH",
"679 850 OFFCURVE",
"724 804 OFFCURVE",
"724 746 CURVE SMOOTH",
"724 701 OFFCURVE",
"688 673 OFFCURVE",
"645 673 CURVE SMOOTH"
);
}
);
width = 1358;
},
{
anchors = (
{
name = bottom;
position = "{687, 0}";
},
{
name = top;
position = "{687, 1167}";
}
);
layerId = "6282282A-FA3F-4DEE-9DB6-5D5B2A6C152F";
paths = (
{
closed = 1;
nodes = (
"584 -24 OFFCURVE",
"653 57 OFFCURVE",
"653 212 CURVE SMOOTH",
"653 241 OFFCURVE",
"651 270 OFFCURVE",
"651 296 CURVE SMOOTH",
"651 352 OFFCURVE",
"656 388 OFFCURVE",
"705 388 CURVE SMOOTH",
"747 388 OFFCURVE",
"806 364 OFFCURVE",
"889 364 CURVE SMOOTH",
"1146 364 OFFCURVE",
"1321 497 OFFCURVE",
"1321 748 CURVE SMOOTH",
"1321 1083 OFFCURVE",
"1001 1198 OFFCURVE",
"643 1198 CURVE SMOOTH",
"200 1198 OFFCURVE",
"8 1035 OFFCURVE",
"8 585 CURVE SMOOTH",
"8 440 OFFCURVE",
"36 298 OFFCURVE",
"88 205 CURVE SMOOTH",
"163 71 OFFCURVE",
"286 -24 OFFCURVE",
"426 -24 CURVE SMOOTH"
);
},
{
closed = 1;
nodes = (
"638 673 OFFCURVE",
"610 725 OFFCURVE",
"610 782 CURVE SMOOTH",
"610 838 OFFCURVE",
"670 850 OFFCURVE",
"730 850 CURVE SMOOTH",
"778 850 OFFCURVE",
"803 827 OFFCURVE",
"803 768 CURVE SMOOTH",
"803 710 OFFCURVE",
"755 673 OFFCURVE",
"705 673 CURVE SMOOTH"
);
}
);
width = 1358;
},
{
anchors = (
{
name = bottom;
position = "{430, 0}";
},
{
name = top;
position = "{430, 1167}";
}
);
layerId = "4C364951-5780-4BC6-AB35-57CC8C56127C";
paths = (
{
closed = 1;
nodes = (
"129 -20 OFFCURVE",
"135 -15 OFFCURVE",
"135 31 CURVE SMOOTH",
"135 110 OFFCURVE",
"119 330 OFFCURVE",
"119 420 CURVE SMOOTH",
"119 464 OFFCURVE",
"125 488 OFFCURVE",
"153 488 CURVE SMOOTH",
"258 488 OFFCURVE",
"360 492 OFFCURVE",
"455 502 CURVE SMOOTH",
"745 533 OFFCURVE",
"965 620 OFFCURVE",
"965 820 CURVE SMOOTH",
"965 1077 OFFCURVE",
"673 1199 OFFCURVE",
"347 1199 CURVE SMOOTH",
"94 1199 OFFCURVE",
"22 1136 OFFCURVE",
"22 888 CURVE SMOOTH",
"22 741 OFFCURVE",
"40 452 OFFCURVE",
"61 174 CURVE SMOOTH",
"76 8 OFFCURVE",
"88 -20 OFFCURVE",
"114 -20 CURVE SMOOTH"
);
},
{
closed = 1;
nodes = (
"100 545 OFFCURVE",
"87 640 OFFCURVE",
"87 927 CURVE SMOOTH",
"87 1073 OFFCURVE",
"137 1148 OFFCURVE",
"362 1148 CURVE SMOOTH",
"502 1148 OFFCURVE",
"898 1091 OFFCURVE",
"898 829 CURVE SMOOTH",
"898 594 OFFCURVE",
"515 548 OFFCURVE",
"172 545 CURVE SMOOTH"
);
}
);
width = 1020;
}
);
leftKerningGroup = H;
rightKerningGroup = P;
unicode = 0050;
},
{
glyphname = Thorn;
lastChange = "2020-01-31 16:00:40 +0000";
layers = (
{
layerId = "307B7D8E-54CC-4996-A0B0-7E3456408354";
paths = (
{
closed = 1;
nodes = (
"420 -48 OFFCURVE",
"508 0 OFFCURVE",
"553 198 CURVE SMOOTH",
"563 240 OFFCURVE",
"620 225 OFFCURVE",
"722 223 CURVE SMOOTH",
"927 220 OFFCURVE",
"1088 263 OFFCURVE",
"1200 415 CURVE SMOOTH",
"1252 485 OFFCURVE",
"1283 660 OFFCURVE",
"1265 725 CURVE SMOOTH",
"1233 842 OFFCURVE",
"1152 923 OFFCURVE",
"868 900 CURVE SMOOTH",
"787 893 OFFCURVE",
"710 862 OFFCURVE",
"722 917 CURVE SMOOTH",
"768 1137 OFFCURVE",
"658 1182 OFFCURVE",
"502 1182 CURVE SMOOTH",
"398 1182 OFFCURVE",
"257 1122 OFFCURVE",
"198 1007 CURVE SMOOTH",
"155 922 OFFCURVE",
"87 678 OFFCURVE",
"47 510 CURVE SMOOTH",
"18 383 OFFCURVE",
"-10 233 OFFCURVE",
"2 122 CURVE SMOOTH",
"13 22 OFFCURVE",
"135 -48 OFFCURVE",
"227 -48 CURVE SMOOTH"
);
},
{
closed = 1;
nodes = (
"660 487 OFFCURVE",
"635 495 OFFCURVE",
"625 513 CURVE SMOOTH",
"607 543 OFFCURVE",
"630 593 OFFCURVE",
"668 617 CURVE SMOOTH",
"695 635 OFFCURVE",
"730 643 OFFCURVE",
"768 643 CURVE SMOOTH",
"817 643 OFFCURVE",
"878 622 OFFCURVE",
"865 563 CURVE SMOOTH",
"850 502 OFFCURVE",
"757 487 OFFCURVE",
"685 487 CURVE SMOOTH"
);
}
);
width = 1272;
},
{
layerId = "AE979D1C-FDDA-49FD-8CD9-3E2A42843A18";
paths = (
{
closed = 1;
nodes = (
"37 -48 OFFCURVE",
"35 -23 OFFCURVE",
"82 175 CURVE SMOOTH",
"98 250 OFFCURVE",
"207 217 OFFCURVE",
"338 223 CURVE SMOOTH",
"545 233 OFFCURVE",
"758 272 OFFCURVE",
"873 410 CURVE SMOOTH",
"950 502 OFFCURVE",
"988 637 OFFCURVE",
"948 725 CURVE SMOOTH",
"898 833 OFFCURVE",
"753 917 OFFCURVE",
"435 900 CURVE SMOOTH",
"355 895 OFFCURVE",
"243 862 OFFCURVE",
"255 917 CURVE SMOOTH",
"298 1137 OFFCURVE",
"308 1182 OFFCURVE",
"285 1182 CURVE SMOOTH",
"248 1182 OFFCURVE",
"235 1125 OFFCURVE",
"198 1007 CURVE SMOOTH",
"172 922 OFFCURVE",
"122 712 OFFCURVE",
"83 543 CURVE SMOOTH",
"53 417 OFFCURVE",
"22 233 OFFCURVE",
"7 122 CURVE SMOOTH",
"-7 18 OFFCURVE",
"-17 -48 OFFCURVE",
"10 -48 CURVE SMOOTH"
);
},
{
closed = 1;
nodes = (
"262 273 OFFCURVE",
"110 267 OFFCURVE",
"117 328 CURVE SMOOTH",
"127 408 OFFCURVE",
"195 678 OFFCURVE",
"222 782 CURVE SMOOTH",
"238 848 OFFCURVE",
"345 843 OFFCURVE",
"418 847 CURVE SMOOTH",
"792 863 OFFCURVE",
"935 762 OFFCURVE",
"888 562 CURVE SMOOTH",
"842 353 OFFCURVE",
"652 283 OFFCURVE",
"323 275 CURVE SMOOTH"
);
}
);
width = 937;
},
{
layerId = "A5079BDB-9783-4F5E-864F-267B8C6F09C1";
paths = (
{
closed = 1;
nodes = (
"243 -48 OFFCURVE",
"230 -23 OFFCURVE",
"177 175 CURVE SMOOTH",
"157 250 OFFCURVE",
"280 217 OFFCURVE",
"408 223 CURVE SMOOTH",
"610 233 OFFCURVE",
"805 272 OFFCURVE",
"852 410 CURVE SMOOTH",
"882 502 OFFCURVE",
"853 637 OFFCURVE",
"768 725 CURVE SMOOTH",
"665 833 OFFCURVE",
"478 917 OFFCURVE",
"168 900 CURVE SMOOTH",
"90 895 OFFCURVE",
"-5 862 OFFCURVE",
"-20 917 CURVE SMOOTH",
"-87 1137 OFFCURVE",
"-98 1182 OFFCURVE",
"-122 1182 CURVE SMOOTH",
"-158 1182 OFFCURVE",
"-143 1125 OFFCURVE",
"-122 1007 CURVE SMOOTH",
"-105 922 OFFCURVE",
"-50 712 OFFCURVE",
"-5 543 CURVE SMOOTH",
"28 417 OFFCURVE",
"87 233 OFFCURVE",
"128 122 CURVE SMOOTH",
"167 18 OFFCURVE",
"190 -48 OFFCURVE",
"217 -48 CURVE SMOOTH"
);
},
{
closed = 1;
nodes = (
"308 273 OFFCURVE",
"158 267 OFFCURVE",
"135 328 CURVE SMOOTH",
"105 408 OFFCURVE",
"38 678 OFFCURVE",
"13 782 CURVE SMOOTH",
"-2 848 OFFCURVE",
"107 843 OFFCURVE",
"178 847 CURVE SMOOTH",
"543 863 OFFCURVE",
"738 762 OFFCURVE",
"792 562 CURVE SMOOTH",
"847 353 OFFCURVE",
"692 283 OFFCURVE",
"368 275 CURVE SMOOTH"
);
}
);
width = 937;
},
{
layerId = "AE80B40C-E5A8-4B5C-A94B-22B98FE5A19F";
paths = (
{
closed = 1;
nodes = (
"627 -48 OFFCURVE",
"690 0 OFFCURVE",
"637 198 CURVE SMOOTH",
"625 240 OFFCURVE",
"690 225 OFFCURVE",
"792 223 CURVE SMOOTH",
"1000 220 OFFCURVE",
"1140 263 OFFCURVE",
"1175 415 CURVE SMOOTH",
"1192 485 OFFCURVE",
"1137 660 OFFCURVE",
"1085 725 CURVE SMOOTH",
"997 842 OFFCURVE",
"875 923 OFFCURVE",
"602 900 CURVE SMOOTH",
"523 893 OFFCURVE",
"462 862 OFFCURVE",
"447 917 CURVE SMOOTH",
"383 1137 OFFCURVE",
"252 1182 OFFCURVE",
"95 1182 CURVE SMOOTH",
"-8 1182 OFFCURVE",
"-120 1122 OFFCURVE",
"-122 1007 CURVE SMOOTH",
"-122 922 OFFCURVE",
"-70 678 OFFCURVE",
"-25 510 CURVE SMOOTH",
"8 383 OFFCURVE",
"55 233 OFFCURVE",
"123 122 CURVE SMOOTH",
"183 22 OFFCURVE",
"342 -48 OFFCURVE",
"433 -48 CURVE SMOOTH"
);
},
{
closed = 1;
nodes = (
"600 487 OFFCURVE",
"570 495 OFFCURVE",
"550 513 CURVE SMOOTH",
"518 543 OFFCURVE",
"517 593 OFFCURVE",
"543 617 CURVE SMOOTH",
"560 635 OFFCURVE",
"592 643 OFFCURVE",
"630 643 CURVE SMOOTH",
"678 643 OFFCURVE",
"750 622 OFFCURVE",
"765 563 CURVE SMOOTH",
"782 502 OFFCURVE",
"697 487 OFFCURVE",
"625 487 CURVE SMOOTH"
);
}
);
width = 1272;
},
{
layerId = "6282282A-FA3F-4DEE-9DB6-5D5B2A6C152F";
paths = (
{
closed = 1;
nodes = (
"507 -48 OFFCURVE",
"583 0 OFFCURVE",
"583 198 CURVE SMOOTH",
"583 240 OFFCURVE",
"643 225 OFFCURVE",
"745 223 CURVE SMOOTH",
"952 220 OFFCURVE",
"1103 263 OFFCURVE",
"1180 415 CURVE SMOOTH",
"1215 485 OFFCURVE",
"1207 660 OFFCURVE",
"1173 725 CURVE SMOOTH",
"1115 842 OFFCURVE",
"1015 923 OFFCURVE",
"737 900 CURVE SMOOTH",
"657 893 OFFCURVE",
"587 862 OFFCURVE",
"585 917 CURVE SMOOTH",
"582 1137 OFFCURVE",
"462 1182 OFFCURVE",
"305 1182 CURVE SMOOTH",
"202 1182 OFFCURVE",
"73 1122 OFFCURVE",
"42 1007 CURVE SMOOTH",
"18 922 OFFCURVE",
"5 678 OFFCURVE",
"5 510 CURVE SMOOTH",
"5 383 OFFCURVE",
"12 233 OFFCURVE",
"50 122 CURVE SMOOTH",
"83 22 OFFCURVE",
"222 -48 OFFCURVE",
"313 -48 CURVE SMOOTH"
);
},
{
closed = 1;
nodes = (
"623 487 OFFCURVE",
"597 495 OFFCURVE",
"582 513 CURVE SMOOTH",
"557 543 OFFCURVE",
"568 593 OFFCURVE",
"602 617 CURVE SMOOTH",
"623 635 OFFCURVE",
"657 643 OFFCURVE",
"695 643 CURVE SMOOTH",
"743 643 OFFCURVE",
"810 622 OFFCURVE",
"810 563 CURVE SMOOTH",
"810 502 OFFCURVE",
"720 487 OFFCURVE",
"648 487 CURVE SMOOTH"
);
}
);
width = 1272;
},
{
layerId = "4C364951-5780-4BC6-AB35-57CC8C56127C";
paths = (
{
closed = 1;
nodes = (
"123 -48 OFFCURVE",
"117 -23 OFFCURVE",
"117 175 CURVE SMOOTH",
"117 250 OFFCURVE",
"232 217 OFFCURVE",
"362 223 CURVE SMOOTH",
"567 233 OFFCURVE",
"772 272 OFFCURVE",
"855 410 CURVE SMOOTH",
"910 502 OFFCURVE",
"917 637 OFFCURVE",
"857 725 CURVE SMOOTH",
"782 833 OFFCURVE",
"617 917 OFFCURVE",
"303 900 CURVE SMOOTH",
"223 895 OFFCURVE",
"120 862 OFFCURVE",
"118 917 CURVE SMOOTH",
"112 1137 OFFCURVE",
"112 1182 OFFCURVE",
"88 1182 CURVE SMOOTH",
"52 1182 OFFCURVE",
"52 1125 OFFCURVE",
"42 1007 CURVE SMOOTH",
"35 922 OFFCURVE",
"33 712 OFFCURVE",
"33 543 CURVE SMOOTH",
"33 417 OFFCURVE",
"43 233 OFFCURVE",
"55 122 CURVE SMOOTH",
"65 18 OFFCURVE",
"70 -48 OFFCURVE",
"97 -48 CURVE SMOOTH"
);
},
{
closed = 1;
nodes = (
"275 273 OFFCURVE",
"123 267 OFFCURVE",
"117 328 CURVE SMOOTH",
"108 408 OFFCURVE",
"113 678 OFFCURVE",
"117 782 CURVE SMOOTH",
"118 848 OFFCURVE",
"227 843 OFFCURVE",
"298 847 CURVE SMOOTH",
"668 863 OFFCURVE",
"835 762 OFFCURVE",
"835 562 CURVE SMOOTH",
"835 353 OFFCURVE",
"662 283 OFFCURVE",
"335 275 CURVE SMOOTH"
);
}
);
width = 937;
}
);
leftKerningGroup = H;
rightKerningGroup = Thorn;
unicode = 00DE;
},
{
glyphname = Q;
lastChange = "2020-01-31 19:50:16 +0000";
layers = (
{
anchors = (
{
name = bottom;
position = "{725, 0}";
},
{
name = top;
position = "{993, 1167}";
}
);
layerId = "307B7D8E-54CC-4996-A0B0-7E3456408354";
paths = (
{
closed = 1;
nodes = (
"1331 -190 OFFCURVE",
"1531 -62 OFFCURVE",
"1531 117 CURVE SMOOTH",
"1531 194 OFFCURVE",
"1482 225 OFFCURVE",
"1435 245 CURVE SMOOTH",
"1357 278 OFFCURVE",
"1319 297 OFFCURVE",
"1319 317 CURVE SMOOTH",
"1319 336 OFFCURVE",
"1330 343 OFFCURVE",
"1354 361 CURVE SMOOTH",
"1454 435 OFFCURVE",
"1528 618 OFFCURVE",
"1528 748 CURVE SMOOTH",
"1528 1015 OFFCURVE",
"1251 1207 OFFCURVE",
"933 1207 CURVE SMOOTH",
"467 1207 OFFCURVE",
"67 897 OFFCURVE",
"67 435 CURVE SMOOTH",
"67 155 OFFCURVE",
"243 -28 OFFCURVE",
"576 -28 CURVE SMOOTH",
"709 -28 OFFCURVE",
"791 12 OFFCURVE",
"845 12 CURVE SMOOTH",
"875 12 OFFCURVE",
"897 0 OFFCURVE",
"913 -40 CURVE SMOOTH",
"932 -87 OFFCURVE",
"964 -122 OFFCURVE",
"1002 -147 CURVE SMOOTH",
"1044 -175 OFFCURVE",
"1096 -190 OFFCURVE",
"1152 -190 CURVE SMOOTH"
);
},
{
closed = 1;
nodes = (
"729 528 OFFCURVE",
"671 555 OFFCURVE",
"671 610 CURVE SMOOTH",
"671 689 OFFCURVE",
"748 752 OFFCURVE",
"839 752 CURVE SMOOTH",
"923 752 OFFCURVE",
"956 717 OFFCURVE",
"956 670 CURVE SMOOTH",
"956 590 OFFCURVE",
"872 528 OFFCURVE",
"792 528 CURVE SMOOTH"
);
}
);
width = 1612;
},
{
anchors = (
{
name = bottom;
position = "{635, 0}";
},
{
name = top;
position = "{903, 1167}";
}
);
layerId = "AE979D1C-FDDA-49FD-8CD9-3E2A42843A18";
paths = (
{
closed = 1;
nodes = (
"1201 -225 OFFCURVE",
"1216 -216 OFFCURVE",
"1216 -181 CURVE SMOOTH",
"1216 -132 OFFCURVE",
"1175 -33 OFFCURVE",
"1130 63 CURVE SMOOTH",
"1120 85 OFFCURVE",
"1114 102 OFFCURVE",
"1114 116 CURVE SMOOTH",
"1114 137 OFFCURVE",
"1127 153 OFFCURVE",
"1156 177 CURVE SMOOTH",
"1328 321 OFFCURVE",
"1417 527 OFFCURVE",
"1417 749 CURVE SMOOTH",
"1417 1034 OFFCURVE",
"1228 1208 OFFCURVE",
"888 1208 CURVE SMOOTH",
"453 1208 OFFCURVE",
"56 886 OFFCURVE",
"56 452 CURVE SMOOTH",
"56 163 OFFCURVE",
"253 -27 OFFCURVE",
"561 -27 CURVE SMOOTH",
"829 -27 OFFCURVE",
"968 62 OFFCURVE",
"1028 62 CURVE SMOOTH",
"1041 62 OFFCURVE",
"1051 58 OFFCURVE",
"1056 48 CURVE SMOOTH",
"1102 -44 OFFCURVE",
"1131 -152 OFFCURVE",
"1152 -200 CURVE SMOOTH",
"1159 -216 OFFCURVE",
"1172 -225 OFFCURVE",
"1187 -225 CURVE SMOOTH"
);
},
{
closed = 1;
nodes = (
"276 36 OFFCURVE",
"129 211 OFFCURVE",
"129 458 CURVE SMOOTH",
"129 852 OFFCURVE",
"489 1146 OFFCURVE",
"887 1146 CURVE SMOOTH",
"1197 1146 OFFCURVE",
"1342 1004 OFFCURVE",
"1342 757 CURVE SMOOTH",
"1342 315 OFFCURVE",
"1029 36 OFFCURVE",
"571 36 CURVE SMOOTH"
);
}
);
width = 1437;
},
{
anchors = (
{
name = bottom;
position = "{817, 0}";
},
{
name = top;
position = "{503, 1167}";
}
);
layerId = "A5079BDB-9783-4F5E-864F-267B8C6F09C1";
paths = (
{
closed = 1;
nodes = (
"1472 -225 OFFCURVE",
"1481 -216 OFFCURVE",
"1481 -201 CURVE SMOOTH",
"1481 -157 OFFCURVE",
"1342 -10 OFFCURVE",
"1277 63 CURVE SMOOTH",
"1247 97 OFFCURVE",
"1231 116 OFFCURVE",
"1231 136 CURVE SMOOTH",
"1231 148 OFFCURVE",
"1238 161 OFFCURVE",
"1251 177 CURVE SMOOTH",
"1297 235 OFFCURVE",
"1327 317 OFFCURVE",
"1327 421 CURVE SMOOTH",
"1327 875 OFFCURVE",
"998 1208 OFFCURVE",
"536 1208 CURVE SMOOTH",
"203 1208 OFFCURVE",
"-34 986 OFFCURVE",
"-34 689 CURVE SMOOTH",
"-34 286 OFFCURVE",
"305 -27 OFFCURVE",
"722 -27 CURVE SMOOTH",
"990 -27 OFFCURVE",
"1105 62 OFFCURVE",
"1165 62 CURVE SMOOTH",
"1178 62 OFFCURVE",
"1190 58 OFFCURVE",
"1199 48 CURVE SMOOTH",
"1284 -47 OFFCURVE",
"1378 -151 OFFCURVE",
"1421 -200 CURVE SMOOTH",
"1435 -216 OFFCURVE",
"1451 -225 OFFCURVE",
"1462 -225 CURVE SMOOTH"
);
},
{
closed = 1;
nodes = (
"356 36 OFFCURVE",
"38 317 OFFCURVE",
"38 679 CURVE SMOOTH",
"38 940 OFFCURVE",
"234 1146 OFFCURVE",
"534 1146 CURVE SMOOTH",
"958 1146 OFFCURVE",
"1248 842 OFFCURVE",
"1248 422 CURVE SMOOTH",
"1248 161 OFFCURVE",
"1050 36 OFFCURVE",
"730 36 CURVE SMOOTH"
);
}
);
width = 1437;
},
{
anchors = (
{
name = bottom;
position = "{907, 0}";
},
{
name = top;
position = "{593, 1167}";
}
);
layerId = "AE80B40C-E5A8-4B5C-A94B-22B98FE5A19F";
paths = (
{
closed = 1;
nodes = (
"1547 -190 OFFCURVE",
"1668 -110 OFFCURVE",
"1668 14 CURVE SMOOTH",
"1668 123 OFFCURVE",
"1599 205 OFFCURVE",
"1489 245 CURVE SMOOTH",
"1416 271 OFFCURVE",
"1337 300 OFFCURVE",
"1337 330 CURVE SMOOTH",
"1337 341 OFFCURVE",
"1342 348 OFFCURVE",
"1354 361 CURVE SMOOTH",
"1386 397 OFFCURVE",
"1398 456 OFFCURVE",
"1398 519 CURVE SMOOTH",
"1398 929 OFFCURVE",
"1005 1207 OFFCURVE",
"583 1207 CURVE SMOOTH",
"225 1207 OFFCURVE",
"-28 1000 OFFCURVE",
"-28 684 CURVE SMOOTH",
"-28 271 OFFCURVE",
"324 -28 OFFCURVE",
"756 -28 CURVE SMOOTH",
"889 -28 OFFCURVE",
"953 12 OFFCURVE",
"1007 12 CURVE SMOOTH",
"1037 12 OFFCURVE",
"1063 0 OFFCURVE",
"1099 -40 CURVE SMOOTH",
"1140 -86 OFFCURVE",
"1188 -122 OFFCURVE",
"1236 -147 CURVE SMOOTH",
"1292 -176 OFFCURVE",
"1350 -190 OFFCURVE",
"1406 -190 CURVE SMOOTH"
);
},
{
closed = 1;
nodes = (
"630 528 OFFCURVE",
"545 574 OFFCURVE",
"545 661 CURVE SMOOTH",
"545 720 OFFCURVE",
"590 752 OFFCURVE",
"659 752 CURVE SMOOTH",
"751 752 OFFCURVE",
"826 700 OFFCURVE",
"826 620 CURVE SMOOTH",
"826 565 OFFCURVE",
"777 528 OFFCURVE",
"714 528 CURVE SMOOTH"
);
}
);
width = 1612;
},
{
anchors = (
{
name = bottom;
position = "{800, 0}";
},
{
name = top;
position = "{800, 1167}";
}
);
layerId = "6282282A-FA3F-4DEE-9DB6-5D5B2A6C152F";
paths = (
{
closed = 1;
nodes = (
"1431 -190 OFFCURVE",
"1587 -89 OFFCURVE",
"1587 61 CURVE SMOOTH",
"1587 180 OFFCURVE",
"1518 221 OFFCURVE",
"1456 245 CURVE SMOOTH",
"1370 278 OFFCURVE",
"1323 298 OFFCURVE",
"1323 317 CURVE SMOOTH",
"1323 336 OFFCURVE",
"1328 343 OFFCURVE",
"1348 361 CURVE SMOOTH",
"1422 427 OFFCURVE",
"1443 558 OFFCURVE",
"1443 663 CURVE SMOOTH",
"1443 983 OFFCURVE",
"1103 1207 OFFCURVE",
"752 1207 CURVE SMOOTH",
"351 1207 OFFCURVE",
"25 967 OFFCURVE",
"25 567 CURVE SMOOTH",
"25 214 OFFCURVE",
"277 -28 OFFCURVE",
"660 -28 CURVE SMOOTH",
"793 -28 OFFCURVE",
"866 12 OFFCURVE",
"920 12 CURVE SMOOTH",
"950 12 OFFCURVE",
"974 0 OFFCURVE",
"1000 -40 CURVE SMOOTH",
"1031 -86 OFFCURVE",
"1070 -122 OFFCURVE",
"1113 -147 CURVE SMOOTH",
"1162 -175 OFFCURVE",
"1217 -190 OFFCURVE",
"1273 -190 CURVE SMOOTH"
);
},
{
closed = 1;
nodes = (
"677 528 OFFCURVE",
"605 562 OFFCURVE",
"605 630 CURVE SMOOTH",
"605 708 OFFCURVE",
"663 752 OFFCURVE",
"743 752 CURVE SMOOTH",
"843 752 OFFCURVE",
"882 702 OFFCURVE",
"882 643 CURVE SMOOTH",
"882 576 OFFCURVE",
"818 528 OFFCURVE",
"747 528 CURVE SMOOTH"
);
}
);
width = 1612;
},
{
anchors = (
{
name = bottom;
position = "{710, 0}";
},
{
name = top;
position = "{710, 1167}";
}
);
layerId = "4C364951-5780-4BC6-AB35-57CC8C56127C";
paths = (
{
closed = 1;
nodes = (
"1329 -225 OFFCURVE",
"1342 -212 OFFCURVE",
"1342 -193 CURVE SMOOTH",
"1342 -151 OFFCURVE",
"1271 -42 OFFCURVE",
"1198 63 CURVE SMOOTH",
"1178 91 OFFCURVE",
"1168 110 OFFCURVE",
"1168 127 CURVE SMOOTH",
"1168 143 OFFCURVE",
"1178 157 OFFCURVE",
"1198 177 CURVE SMOOTH",
"1282 265 OFFCURVE",
"1346 380 OFFCURVE",
"1346 582 CURVE SMOOTH",
"1346 984 OFFCURVE",
"1104 1208 OFFCURVE",
"702 1208 CURVE SMOOTH",
"330 1208 OFFCURVE",
"17 942 OFFCURVE",
"17 583 CURVE SMOOTH",
"17 194 OFFCURVE",
"279 -27 OFFCURVE",
"632 -27 CURVE SMOOTH",
"900 -27 OFFCURVE",
"1026 62 OFFCURVE",
"1086 62 CURVE SMOOTH",
"1099 62 OFFCURVE",
"1110 58 OFFCURVE",
"1117 48 CURVE SMOOTH",
"1181 -46 OFFCURVE",
"1248 -152 OFFCURVE",
"1281 -200 CURVE SMOOTH",
"1292 -216 OFFCURVE",
"1306 -225 OFFCURVE",
"1317 -225 CURVE SMOOTH"
);
},
{
closed = 1;
nodes = (
"303 36 OFFCURVE",
"88 244 OFFCURVE",
"88 582 CURVE SMOOTH",
"88 897 OFFCURVE",
"369 1146 OFFCURVE",
"705 1146 CURVE SMOOTH",
"1083 1146 OFFCURVE",
"1270 954 OFFCURVE",
"1270 579 CURVE SMOOTH",
"1270 222 OFFCURVE",
"1021 36 OFFCURVE",
"645 36 CURVE SMOOTH"
);
}
);
width = 1437;
}
);
leftKerningGroup = O;
rightKerningGroup = O;
unicode = 0051;
},
{
glyphname = R;
lastChange = "2020-02-01 15:29:20 +0000";
layers = (
{
anchors = (
{
name = bottom;
position = "{648, 0}";
},
{
name = top;
position = "{932, 1267}";
}
);
layerId = "307B7D8E-54CC-4996-A0B0-7E3456408354";
paths = (
{
closed = 1;
nodes = (
"406 -42 OFFCURVE",
"530 -10 OFFCURVE",
"584 105 CURVE SMOOTH",
"608 156 OFFCURVE",
"628 241 OFFCURVE",
"638 289 CURVE SMOOTH",
"645 323 OFFCURVE",
"653 347 OFFCURVE",
"666 347 CURVE SMOOTH",
"688 347 OFFCURVE",
"725 265 OFFCURVE",
"752 172 CURVE SMOOTH",
"791 39 OFFCURVE",
"875 -27 OFFCURVE",
"1025 -27 CURVE SMOOTH",
"1183 -27 OFFCURVE",
"1356 57 OFFCURVE",
"1356 204 CURVE SMOOTH",
"1356 234 OFFCURVE",
"1348 265 OFFCURVE",
"1332 295 CURVE SMOOTH",
"1289 376 OFFCURVE",
"1136 497 OFFCURVE",
"1143 528 CURVE SMOOTH",
"1148 550 OFFCURVE",
"1178 565 OFFCURVE",
"1208 573 CURVE SMOOTH",
"1371 617 OFFCURVE",
"1463 700 OFFCURVE",
"1463 879 CURVE SMOOTH",
"1463 1112 OFFCURVE",
"1160 1233 OFFCURVE",
"892 1233 CURVE SMOOTH",
"237 1233 OFFCURVE",
"20 756 OFFCURVE",
"20 389 CURVE SMOOTH",
"20 179 OFFCURVE",
"42 129 OFFCURVE",
"74 72 CURVE SMOOTH",
"110 8 OFFCURVE",
"187 -42 OFFCURVE",
"291 -42 CURVE SMOOTH"
);
},
{
closed = 1;
nodes = (
"756 717 OFFCURVE",
"717 737 OFFCURVE",
"717 774 CURVE SMOOTH",
"717 821 OFFCURVE",
"740 860 OFFCURVE",
"759 878 CURVE SMOOTH",
"784 901 OFFCURVE",
"810 923 OFFCURVE",
"856 923 CURVE SMOOTH",
"904 923 OFFCURVE",
"943 898 OFFCURVE",
"943 853 CURVE SMOOTH",
"943 786 OFFCURVE",
"882 717 OFFCURVE",
"809 717 CURVE SMOOTH"
);
}
);
width = 1445;
},
{
anchors = (
{
name = bottom;
position = "{393, 0}";
},
{
name = top;
position = "{665, 1217}";
}
);
layerId = "AE979D1C-FDDA-49FD-8CD9-3E2A42843A18";
paths = (
{
closed = 1;
nodes = (
"64 -42 OFFCURVE",
"76 -21 OFFCURVE",
"85 19 CURVE SMOOTH",
"89 37 OFFCURVE",
"116 177 OFFCURVE",
"129 242 CURVE SMOOTH",
"153 361 OFFCURVE",
"196 560 OFFCURVE",
"238 560 CURVE SMOOTH",
"275 560 OFFCURVE",
"321 536 OFFCURVE",
"455 352 CURVE SMOOTH",
"560 208 OFFCURVE",
"736 -18 OFFCURVE",
"777 -18 CURVE SMOOTH",
"785 -18 OFFCURVE",
"793 -17 OFFCURVE",
"793 -7 CURVE SMOOTH",
"793 20 OFFCURVE",
"564 321 OFFCURVE",
"457 450 CURVE SMOOTH",
"397 522 OFFCURVE",
"385 544 OFFCURVE",
"385 560 CURVE SMOOTH",
"385 577 OFFCURVE",
"428 586 OFFCURVE",
"501 595 CURVE SMOOTH",
"713 621 OFFCURVE",
"1045 725 OFFCURVE",
"1045 1000 CURVE SMOOTH",
"1045 1174 OFFCURVE",
"875 1255 OFFCURVE",
"634 1255 CURVE SMOOTH",
"285 1255 OFFCURVE",
"203 935 OFFCURVE",
"108 518 CURVE SMOOTH",
"75 375 OFFCURVE",
"16 111 OFFCURVE",
"16 10 CURVE SMOOTH",
"16 -30 OFFCURVE",
"25 -42 OFFCURVE",
"42 -42 CURVE SMOOTH"
);
},
{
closed = 1;
nodes = (
"260 640 OFFCURVE",
"240 651 OFFCURVE",
"240 720 CURVE SMOOTH",
"240 779 OFFCURVE",
"286 918 OFFCURVE",
"322 992 CURVE SMOOTH",
"370 1092 OFFCURVE",
"467 1198 OFFCURVE",
"619 1198 CURVE SMOOTH",
"798 1198 OFFCURVE",
"982 1154 OFFCURVE",
"982 999 CURVE SMOOTH",
"982 754 OFFCURVE",
"572 640 OFFCURVE",
"373 640 CURVE SMOOTH"
);
}
);
width = 965;
},
{
anchors = (
{
name = bottom;
position = "{575, 0}";
},
{
name = top;
position = "{258, 1205}";
}
);
layerId = "A5079BDB-9783-4F5E-864F-267B8C6F09C1";
paths = (
{
closed = 1;
nodes = (
"220 -42 OFFCURVE",
"226 -33 OFFCURVE",
"226 -16 CURVE SMOOTH",
"226 34 OFFCURVE",
"108 411 OFFCURVE",
"108 496 CURVE SMOOTH",
"108 558 OFFCURVE",
"114 560 OFFCURVE",
"127 560 CURVE SMOOTH",
"137 560 OFFCURVE",
"185 522 OFFCURVE",
"408 342 CURVE SMOOTH",
"587 198 OFFCURVE",
"869 -18 OFFCURVE",
"917 -18 CURVE SMOOTH",
"929 -18 OFFCURVE",
"935 -14 OFFCURVE",
"935 -4 CURVE SMOOTH",
"935 27 OFFCURVE",
"560 321 OFFCURVE",
"393 450 CURVE SMOOTH",
"282 536 OFFCURVE",
"258 557 OFFCURVE",
"258 571 CURVE SMOOTH",
"258 586 OFFCURVE",
"296 591 OFFCURVE",
"344 595 CURVE SMOOTH",
"445 603 OFFCURVE",
"759 661 OFFCURVE",
"759 870 CURVE SMOOTH",
"759 1123 OFFCURVE",
"484 1255 OFFCURVE",
"198 1255 CURVE SMOOTH",
"-1 1255 OFFCURVE",
"-65 1151 OFFCURVE",
"-65 984 CURVE SMOOTH",
"-65 811 OFFCURVE",
"51 313 OFFCURVE",
"129 77 CURVE SMOOTH",
"160 -17 OFFCURVE",
"182 -42 OFFCURVE",
"206 -42 CURVE SMOOTH"
);
},
{
closed = 1;
nodes = (
"112 640 OFFCURVE",
"61 657 OFFCURVE",
"34 777 CURVE SMOOTH",
"21 833 OFFCURVE",
"8 910 OFFCURVE",
"8 984 CURVE SMOOTH",
"8 1086 OFFCURVE",
"39 1198 OFFCURVE",
"195 1198 CURVE SMOOTH",
"433 1198 OFFCURVE",
"690 1113 OFFCURVE",
"690 887 CURVE SMOOTH",
"690 679 OFFCURVE",
"367 640 OFFCURVE",
"251 640 CURVE SMOOTH"
);
}
);
width = 965;
},
{
anchors = (
{
name = bottom;
position = "{830, 0}";
},
{
name = top;
position = "{500, 1267}";
}
);
layerId = "AE80B40C-E5A8-4B5C-A94B-22B98FE5A19F";
paths = (
{
closed = 1;
nodes = (
"622 -42 OFFCURVE",
"722 -10 OFFCURVE",
"722 105 CURVE SMOOTH",
"722 170 OFFCURVE",
"684 261 OFFCURVE",
"684 302 CURVE SMOOTH",
"684 321 OFFCURVE",
"686 347 OFFCURVE",
"702 347 CURVE SMOOTH",
"724 347 OFFCURVE",
"789 265 OFFCURVE",
"860 172 CURVE SMOOTH",
"960 41 OFFCURVE",
"1075 -27 OFFCURVE",
"1225 -27 CURVE SMOOTH",
"1353 -27 OFFCURVE",
"1466 28 OFFCURVE",
"1466 132 CURVE SMOOTH",
"1466 191 OFFCURVE",
"1430 247 OFFCURVE",
"1382 295 CURVE SMOOTH",
"1301 376 OFFCURVE",
"1087 491 OFFCURVE",
"1087 523 CURVE SMOOTH",
"1087 547 OFFCURVE",
"1106 560 OFFCURVE",
"1130 573 CURVE SMOOTH",
"1204 613 OFFCURVE",
"1258 689 OFFCURVE",
"1258 800 CURVE SMOOTH",
"1258 1107 OFFCURVE",
"905 1233 OFFCURVE",
"580 1233 CURVE SMOOTH",
"232 1233 OFFCURVE",
"-25 1142 OFFCURVE",
"-25 781 CURVE SMOOTH",
"-25 595 OFFCURVE",
"67 240 OFFCURVE",
"164 118 CURVE SMOOTH",
"244 17 OFFCURVE",
"362 -42 OFFCURVE",
"507 -42 CURVE SMOOTH"
);
},
{
closed = 1;
nodes = (
"612 717 OFFCURVE",
"555 738 OFFCURVE",
"547 774 CURVE SMOOTH",
"541 801 OFFCURVE",
"538 821 OFFCURVE",
"538 838 CURVE SMOOTH",
"538 888 OFFCURVE",
"559 923 OFFCURVE",
"616 923 CURVE SMOOTH",
"686 923 OFFCURVE",
"747 876 OFFCURVE",
"747 799 CURVE SMOOTH",
"747 744 OFFCURVE",
"710 717 OFFCURVE",
"665 717 CURVE SMOOTH"
);
}
);
width = 1445;
},
{
anchors = (
{
name = bottom;
position = "{723, 0}";
},
{
name = top;
position = "{723, 1255}";
}
);
layerId = "6282282A-FA3F-4DEE-9DB6-5D5B2A6C152F";
paths = (
{
closed = 1;
nodes = (
"515 -42 OFFCURVE",
"622 -10 OFFCURVE",
"649 105 CURVE SMOOTH",
"661 156 OFFCURVE",
"661 241 OFFCURVE",
"661 289 CURVE SMOOTH",
"661 323 OFFCURVE",
"662 347 OFFCURVE",
"675 347 CURVE SMOOTH",
"697 347 OFFCURVE",
"753 265 OFFCURVE",
"802 172 CURVE SMOOTH",
"870 39 OFFCURVE",
"971 -27 OFFCURVE",
"1121 -27 CURVE SMOOTH",
"1263 -27 OFFCURVE",
"1403 40 OFFCURVE",
"1403 167 CURVE SMOOTH",
"1403 208 OFFCURVE",
"1386 252 OFFCURVE",
"1353 295 CURVE SMOOTH",
"1292 377 OFFCURVE",
"1111 497 OFFCURVE",
"1111 528 CURVE SMOOTH",
"1111 550 OFFCURVE",
"1137 565 OFFCURVE",
"1165 573 CURVE SMOOTH",
"1263 602 OFFCURVE",
"1357 645 OFFCURVE",
"1357 828 CURVE SMOOTH",
"1357 1084 OFFCURVE",
"1054 1233 OFFCURVE",
"767 1233 CURVE SMOOTH",
"349 1233 OFFCURVE",
"32 1101 OFFCURVE",
"32 528 CURVE SMOOTH",
"32 394 OFFCURVE",
"43 209 OFFCURVE",
"94 118 CURVE SMOOTH",
"149 17 OFFCURVE",
"255 -42 OFFCURVE",
"400 -42 CURVE SMOOTH"
);
},
{
closed = 1;
nodes = (
"680 717 OFFCURVE",
"628 738 OFFCURVE",
"628 774 CURVE SMOOTH",
"628 821 OFFCURVE",
"634 847 OFFCURVE",
"647 872 CURVE SMOOTH",
"661 899 OFFCURVE",
"680 923 OFFCURVE",
"732 923 CURVE SMOOTH",
"787 923 OFFCURVE",
"838 890 OFFCURVE",
"838 833 CURVE SMOOTH",
"838 755 OFFCURVE",
"787 717 OFFCURVE",
"733 717 CURVE SMOOTH"
);
}
);
width = 1445;
},
{
anchors = (
{
name = bottom;
position = "{468, 0}";
},
{
name = top;
position = "{468, 1217}";
}
);
layerId = "4C364951-5780-4BC6-AB35-57CC8C56127C";
paths = (
{
closed = 1;
nodes = (
"134 -42 OFFCURVE",
"141 -21 OFFCURVE",
"141 19 CURVE SMOOTH",
"141 37 OFFCURVE",
"133 215 OFFCURVE",
"133 280 CURVE SMOOTH",
"133 500 OFFCURVE",
"133 550 OFFCURVE",
"168 550 CURVE SMOOTH",
"189 550 OFFCURVE",
"231 532 OFFCURVE",
"413 352 CURVE SMOOTH",
"559 208 OFFCURVE",
"789 -18 OFFCURVE",
"834 -18 CURVE SMOOTH",
"851 -18 OFFCURVE",
"852 -10 OFFCURVE",
"852 -5 CURVE SMOOTH",
"852 19 OFFCURVE",
"550 321 OFFCURVE",
"413 450 CURVE SMOOTH",
"322 536 OFFCURVE",
"314 548 OFFCURVE",
"314 564 CURVE SMOOTH",
"314 576 OFFCURVE",
"332 580 OFFCURVE",
"453 596 CURVE SMOOTH",
"554 609 OFFCURVE",
"882 683 OFFCURVE",
"882 927 CURVE SMOOTH",
"882 1152 OFFCURVE",
"676 1255 OFFCURVE",
"404 1255 CURVE SMOOTH",
"75 1255 OFFCURVE",
"58 1022 OFFCURVE",
"58 605 CURVE SMOOTH",
"58 460 OFFCURVE",
"70 171 OFFCURVE",
"74 77 CURVE SMOOTH",
"78 -7 OFFCURVE",
"88 -42 OFFCURVE",
"112 -42 CURVE SMOOTH"
);
},
{
closed = 1;
nodes = (
"136 635 OFFCURVE",
"129 657 OFFCURVE",
"129 777 CURVE SMOOTH",
"129 835 OFFCURVE",
"132 914 OFFCURVE",
"146 992 CURVE SMOOTH",
"173 1139 OFFCURVE",
"250 1198 OFFCURVE",
"402 1198 CURVE SMOOTH",
"602 1198 OFFCURVE",
"827 1131 OFFCURVE",
"827 928 CURVE SMOOTH",
"827 683 OFFCURVE",
"400 635 OFFCURVE",
"275 635 CURVE SMOOTH"
);
}
);
width = 965;
}
);
leftKerningGroup = H;
rightKerningGroup = R;
unicode = 0052;
},
{
glyphname = S;
lastChange = "2020-04-19 03:08:30 +0000";
layers = (
{
anchors = (
{
name = bottom;
position = "{587, 17}";
},
{
name = top;
position = "{852, 1241}";
}
);
layerId = "307B7D8E-54CC-4996-A0B0-7E3456408354";
paths = (
{
closed = 1;
nodes = (
"852 -50 OFFCURVE",
"1264 72 OFFCURVE",
"1264 407 CURVE SMOOTH",
"1264 569 OFFCURVE",
"1146 680 OFFCURVE",
"1032 727 CURVE SMOOTH",
"951 760 OFFCURVE",
"893 784 OFFCURVE",
"893 824 CURVE SMOOTH",
"893 859 OFFCURVE",
"925 870 OFFCURVE",
"965 870 CURVE SMOOTH",
"994 870 OFFCURVE",
"1006 870 OFFCURVE",
"1049 870 CURVE SMOOTH",
"1193 870 OFFCURVE",
"1333 962 OFFCURVE",
"1333 1097 CURVE SMOOTH",
"1333 1220 OFFCURVE",
"1132 1245 OFFCURVE",
"957 1245 CURVE SMOOTH",
"653 1245 OFFCURVE",
"191 1167 OFFCURVE",
"191 853 CURVE SMOOTH",
"191 630 OFFCURVE",
"334 571 OFFCURVE",
"431 538 CURVE SMOOTH",
"520 508 OFFCURVE",
"545 483 OFFCURVE",
"545 448 CURVE SMOOTH",
"545 392 OFFCURVE",
"470 386 OFFCURVE",
"380 386 CURVE SMOOTH",
"360 386 OFFCURVE",
"313 387 OFFCURVE",
"293 387 CURVE SMOOTH",
"150 387 OFFCURVE",
"-21 351 OFFCURVE",
"-21 181 CURVE SMOOTH",
"-21 -10 OFFCURVE",
"242 -50 OFFCURVE",
"484 -50 CURVE SMOOTH"
);
}
);
width = 1317;
},
{
anchors = (
{
name = bottom;
position = "{427, -33}";
},
{
name = top;
position = "{720, 1250}";
}
);
layerId = "AE979D1C-FDDA-49FD-8CD9-3E2A42843A18";
paths = (
{
closed = 1;
nodes = (
"649 -48 OFFCURVE",
"930 3 OFFCURVE",
"930 280 CURVE SMOOTH",
"930 443 OFFCURVE",
"786 554 OFFCURVE",
"563 656 CURVE SMOOTH",
"398 732 OFFCURVE",
"274 807 OFFCURVE",
"274 932 CURVE SMOOTH",
"274 1133 OFFCURVE",
"517 1195 OFFCURVE",
"735 1195 CURVE SMOOTH",
"971 1195 OFFCURVE",
"1063 1082 OFFCURVE",
"1100 1082 CURVE SMOOTH",
"1115 1082 OFFCURVE",
"1121 1091 OFFCURVE",
"1121 1103 CURVE SMOOTH",
"1121 1148 OFFCURVE",
"978 1253 OFFCURVE",
"730 1253 CURVE SMOOTH",
"484 1253 OFFCURVE",
"192 1170 OFFCURVE",
"192 918 CURVE SMOOTH",
"192 766 OFFCURVE",
"343 681 OFFCURVE",
"539 587 CURVE SMOOTH",
"726 497 OFFCURVE",
"851 413 OFFCURVE",
"851 273 CURVE SMOOTH",
"851 50 OFFCURVE",
"622 22 OFFCURVE",
"392 22 CURVE SMOOTH",
"164 22 OFFCURVE",
"49 123 OFFCURVE",
"2 123 CURVE SMOOTH",
"-10 123 OFFCURVE",
"-19 116 OFFCURVE",
"-19 103 CURVE SMOOTH",
"-19 56 OFFCURVE",
"155 -48 OFFCURVE",
"384 -48 CURVE SMOOTH"
);
}
);
width = 1050;
},
{
anchors = (
{
name = bottom;
position = "{625, -33}";
},
{
name = top;
position = "{330, 1253}";
}
);
layerId = "A5079BDB-9783-4F5E-864F-267B8C6F09C1";
paths = (
{
closed = 1;
nodes = (
"820 -48 OFFCURVE",
"979 37 OFFCURVE",
"979 196 CURVE SMOOTH",
"979 431 OFFCURVE",
"690 554 OFFCURVE",
"420 656 CURVE SMOOTH",
"214 733 OFFCURVE",
"-14 823 OFFCURVE",
"-14 1007 CURVE SMOOTH",
"-14 1155 OFFCURVE",
"162 1195 OFFCURVE",
"342 1195 CURVE SMOOTH",
"578 1195 OFFCURVE",
"720 1082 OFFCURVE",
"757 1082 CURVE SMOOTH",
"767 1082 OFFCURVE",
"772 1089 OFFCURVE",
"772 1097 CURVE SMOOTH",
"772 1177 OFFCURVE",
"492 1253 OFFCURVE",
"330 1253 CURVE SMOOTH",
"159 1253 OFFCURVE",
"-95 1203 OFFCURVE",
"-95 1014 CURVE SMOOTH",
"-95 784 OFFCURVE",
"159 680 OFFCURVE",
"408 584 CURVE SMOOTH",
"640 494 OFFCURVE",
"904 390 OFFCURVE",
"904 187 CURVE SMOOTH",
"904 69 OFFCURVE",
"794 22 OFFCURVE",
"541 22 CURVE SMOOTH",
"312 22 OFFCURVE",
"153 124 OFFCURVE",
"107 124 CURVE SMOOTH",
"96 124 OFFCURVE",
"90 120 OFFCURVE",
"90 111 CURVE SMOOTH",
"90 38 OFFCURVE",
"391 -48 OFFCURVE",
"545 -48 CURVE SMOOTH"
);
}
);
width = 1050;
},
{
anchors = (
{
name = bottom;
position = "{760, 17}";
},
{
name = top;
position = "{537, 1241}";
}
);
layerId = "AE80B40C-E5A8-4B5C-A94B-22B98FE5A19F";
paths = (
{
closed = 1;
nodes = (
"980 -50 OFFCURVE",
"1280 53 OFFCURVE",
"1280 286 CURVE SMOOTH",
"1280 498 OFFCURVE",
"1075 657 OFFCURVE",
"872 727 CURVE SMOOTH",
"769 763 OFFCURVE",
"686 794 OFFCURVE",
"686 833 CURVE SMOOTH",
"686 862 OFFCURVE",
"703 870 OFFCURVE",
"739 870 CURVE SMOOTH",
"768 870 OFFCURVE",
"780 870 OFFCURVE",
"823 870 CURVE SMOOTH",
"927 870 OFFCURVE",
"1017 912 OFFCURVE",
"1017 1017 CURVE SMOOTH",
"1017 1210 OFFCURVE",
"790 1245 OFFCURVE",
"579 1245 CURVE SMOOTH",
"299 1245 OFFCURVE",
"-35 1151 OFFCURVE",
"-35 916 CURVE SMOOTH",
"-35 727 OFFCURVE",
"151 586 OFFCURVE",
"353 528 CURVE SMOOTH",
"430 506 OFFCURVE",
"517 480 OFFCURVE",
"517 434 CURVE SMOOTH",
"517 393 OFFCURVE",
"459 386 OFFCURVE",
"378 386 CURVE SMOOTH",
"358 386 OFFCURVE",
"311 387 OFFCURVE",
"291 387 CURVE SMOOTH",
"166 387 OFFCURVE",
"64 354 OFFCURVE",
"64 238 CURVE SMOOTH",
"64 -13 OFFCURVE",
"389 -50 OFFCURVE",
"652 -50 CURVE SMOOTH"
);
}
);
width = 1317;
},
{
anchors = (
{
name = bottom;
position = "{658, 17}";
},
{
name = top;
position = "{686, 1241}";
}
);
layerId = "6282282A-FA3F-4DEE-9DB6-5D5B2A6C152F";
paths = (
{
closed = 1;
nodes = (
"902 -50 OFFCURVE",
"1256 73 OFFCURVE",
"1256 356 CURVE SMOOTH",
"1256 555 OFFCURVE",
"1080 675 OFFCURVE",
"942 727 CURVE SMOOTH",
"847 762 OFFCURVE",
"780 788 OFFCURVE",
"780 833 CURVE SMOOTH",
"780 861 OFFCURVE",
"806 870 OFFCURVE",
"842 870 CURVE SMOOTH",
"871 870 OFFCURVE",
"883 870 OFFCURVE",
"926 870 CURVE SMOOTH",
"1046 870 OFFCURVE",
"1160 926 OFFCURVE",
"1160 1068 CURVE SMOOTH",
"1160 1216 OFFCURVE",
"956 1245 OFFCURVE",
"768 1245 CURVE SMOOTH",
"464 1245 OFFCURVE",
"72 1134 OFFCURVE",
"72 853 CURVE SMOOTH",
"72 689 OFFCURVE",
"214 578 OFFCURVE",
"377 528 CURVE SMOOTH",
"462 502 OFFCURVE",
"520 483 OFFCURVE",
"520 448 CURVE SMOOTH",
"520 394 OFFCURVE",
"459 386 OFFCURVE",
"369 386 CURVE SMOOTH",
"349 386 OFFCURVE",
"302 387 OFFCURVE",
"282 387 CURVE SMOOTH",
"139 387 OFFCURVE",
"15 343 OFFCURVE",
"15 181 CURVE SMOOTH",
"15 -19 OFFCURVE",
"301 -50 OFFCURVE",
"543 -50 CURVE SMOOTH"
);
}
);
width = 1317;
},
{
anchors = (
{
name = bottom;
position = "{510, -33}";
},
{
name = top;
position = "{510, 1250}";
}
);
layerId = "4C364951-5780-4BC6-AB35-57CC8C56127C";
paths = (
{
closed = 1;
nodes = (
"754 -48 OFFCURVE",
"950 14 OFFCURVE",
"950 244 CURVE SMOOTH",
"950 437 OFFCURVE",
"754 547 OFFCURVE",
"490 656 CURVE SMOOTH",
"289 739 OFFCURVE",
"132 811 OFFCURVE",
"132 970 CURVE SMOOTH",
"132 1148 OFFCURVE",
"343 1195 OFFCURVE",
"537 1195 CURVE SMOOTH",
"773 1195 OFFCURVE",
"891 1082 OFFCURVE",
"928 1082 CURVE SMOOTH",
"939 1082 OFFCURVE",
"945 1093 OFFCURVE",
"945 1101 CURVE SMOOTH",
"945 1153 OFFCURVE",
"776 1253 OFFCURVE",
"528 1253 CURVE SMOOTH",
"344 1253 OFFCURVE",
"52 1205 OFFCURVE",
"52 967 CURVE SMOOTH",
"52 773 OFFCURVE",
"232 691 OFFCURVE",
"472 587 CURVE SMOOTH",
"697 490 OFFCURVE",
"872 408 OFFCURVE",
"872 235 CURVE SMOOTH",
"872 62 OFFCURVE",
"740 22 OFFCURVE",
"455 22 CURVE SMOOTH",
"227 22 OFFCURVE",
"99 123 OFFCURVE",
"52 123 CURVE SMOOTH",
"41 123 OFFCURVE",
"34 117 OFFCURVE",
"34 107 CURVE SMOOTH",
"34 62 OFFCURVE",
"218 -48 OFFCURVE",
"453 -48 CURVE SMOOTH"
);
}
);
width = 1050;
}
);
leftKerningGroup = S;
rightKerningGroup = S;
unicode = 0053;
},
